<svg width="878" height="379" viewBox="0 0 878 379" fill="none" xmlns="http://www.w3.org/2000/svg">
<g clip-path="url(#clip0_506_2022)">
<mask id="mask0_506_2022" style="mask-type:luminance" maskUnits="userSpaceOnUse" x="-727" y="-840" width="2304" height="1728">
<path d="M-727 -840H1577V888H-727V-840Z" fill="white"/>
</mask>
<g mask="url(#mask0_506_2022)">
<path d="M60.8648 209.094C58.8368 209.094 56.5328 208.834 53.8221 208.296C51.4648 207.831 49.1088 207.311 46.8154 206.752C44.5154 206.186 42.4208 205.62 40.5821 205.066C38.9501 204.572 37.8634 204.248 37.3074 204.092C29.0861 202.118 23.3181 200.122 19.6781 197.991C14.4661 194.95 12.1381 189.912 13.2954 184.175C14.1581 179.899 16.9968 174.732 21.9714 168.376C26.3008 162.843 32.0688 155.271 39.1128 145.87C41.6621 142.383 45.0688 137.868 49.1994 132.502C51.2114 129.884 53.2928 127.115 55.4301 124.21C51.8154 124.171 50.1141 121.98 49.5461 121.034C48.8141 119.811 47.8634 117.243 49.7181 113.779C50.7701 111.819 52.2954 109.734 54.3848 107.399C56.3834 105.16 58.6421 103.066 61.0968 101.176C64.1181 98.8498 66.4248 97.6564 68.5514 97.3231C69.2781 97.1978 70.5381 97.0698 74.7594 97.0311C79.5314 90.4058 84.2861 83.7631 89.2394 76.7991C93.8834 70.2604 97.4368 65.1058 99.8154 61.4564C99.6208 60.1658 99.8341 58.8431 100.459 57.6618C101.219 56.2258 102.347 55.3511 103.511 54.8138C103.798 53.9658 104.065 53.2938 104.333 52.7404C105.949 48.1458 107.509 44.5724 109.099 41.8271C111.117 38.3338 113.967 35.7018 117.567 34.0071C120.818 32.4778 124.977 31.6191 130.282 31.3804C134.905 31.1778 141.278 31.0764 149.23 31.0764C152.685 31.0764 157.746 31.1244 164.701 31.2258C171.399 31.3298 178.39 31.4271 185.679 31.5258L206.669 31.8231C212.685 31.9164 217.678 31.9684 221.17 31.9724C221.226 31.9298 221.297 31.8764 221.377 31.8084L221.879 31.3858L222.465 31.0898C223.561 30.5364 224.689 30.2551 225.818 30.2551C228.905 30.2551 232.231 32.4644 232.703 37.4018C232.923 39.7684 232.691 42.6858 231.991 46.3324C231.353 49.6498 230.393 53.2564 229.137 57.0591C227.865 60.8978 226.394 64.5111 224.766 67.8071C223.001 71.3858 221.178 74.2004 219.197 76.4058C216.961 78.8924 214.478 80.1511 211.814 80.1511C210.55 80.1511 209.286 79.8444 208.133 79.2618C207.65 79.0964 205.803 78.5791 199.974 77.7884C194.889 77.1044 188.779 76.4604 181.822 75.8778C176.251 75.4084 170.221 74.9924 163.839 74.6364C163.846 74.8884 163.841 75.1284 163.827 75.3524C163.717 77.1204 162.949 79.7124 159.939 82.0791C158.915 82.9524 156.667 85.1324 151.751 90.5484C149.677 92.8351 147.431 95.3978 145.031 98.2164C148.33 98.1738 151.487 98.0818 154.459 97.9418C160.705 97.6511 165.659 97.1471 169.189 96.4391C170.141 96.2618 170.929 96.1818 171.674 96.1818C175.127 96.1818 176.939 97.9631 177.711 99.0244C178.479 100.08 179.614 102.338 178.566 105.579C177.765 108.027 176.199 110.575 173.777 113.387C171.57 115.943 168.953 118.3 165.995 120.395C162.577 122.808 159.557 123.979 156.754 123.979C156.521 123.979 156.291 123.971 156.065 123.955L125.09 123.119C121.563 127.732 117.986 132.427 114.363 137.206C110.325 142.526 106.129 148.108 101.891 153.802C97.8288 159.262 93.9168 164.604 90.2634 169.678C88.8821 171.598 87.5661 173.459 86.3221 175.258C88.3114 175.315 90.3714 175.355 92.4941 175.382C94.4848 175.408 96.4621 175.422 98.4328 175.422C102.309 175.422 106.237 175.37 110.106 175.268C115.811 175.123 121.47 174.784 126.927 174.26C132.385 173.739 137.426 173.1 141.917 172.358C142.661 172.232 143.353 172.171 144.015 172.171C147.745 172.171 149.589 174.179 150.357 175.378C151.335 176.903 152.146 179.499 150.45 183.187C149.091 186.132 146.833 189.31 143.541 192.91C140.423 196.311 136.679 199.584 132.409 202.642C127.569 206.096 123.113 207.972 118.779 208.38C115.946 208.696 112.083 208.895 107.069 208.976C102.166 209.055 96.8954 209.094 91.4008 209.094H60.8648Z" fill="white"/>
</g>
<mask id="mask1_506_2022" style="mask-type:luminance" maskUnits="userSpaceOnUse" x="-727" y="-840" width="2304" height="1728">
<path d="M-727 -840H1577V888H-727V-840Z" fill="white"/>
</mask>
<g mask="url(#mask1_506_2022)">
<path d="M142.84 177.953C138.191 178.721 133.068 179.37 127.469 179.903C121.867 180.442 116.127 180.786 110.255 180.937C104.376 181.09 98.4321 181.13 92.4254 181.051C86.4108 180.977 80.9494 180.786 76.0294 180.477C78.7588 176.197 81.9734 171.493 85.6628 166.365C89.3521 161.241 93.2454 155.925 97.3441 150.417C101.443 144.91 105.605 139.367 109.845 133.781C114.079 128.198 118.248 122.73 122.347 117.374L156.365 118.293C158.005 118.446 160.119 117.603 162.719 115.767C165.312 113.931 167.567 111.906 169.481 109.686C171.391 107.471 172.62 105.519 173.171 103.835C173.715 102.154 172.76 101.541 170.301 101.999C166.472 102.766 161.285 103.301 154.727 103.605C148.168 103.914 140.925 103.989 133.003 103.835C138.465 97.1048 143.315 91.4088 147.553 86.7395C151.787 82.0755 154.727 79.0528 156.365 77.6755C158.551 75.9942 158.755 74.2728 156.98 72.5128C155.5 71.0528 153.256 69.6701 150.269 68.3648C153.292 68.4595 156.365 68.5768 159.532 68.7328C167.583 69.1355 175.173 69.6288 182.296 70.2288C189.416 70.8261 195.561 71.4755 200.736 72.1715C205.905 72.8715 209.168 73.5168 210.527 74.1141C211.883 74.9115 213.365 74.4141 214.979 72.6195C216.588 70.8261 218.157 68.3875 219.684 65.2955C221.209 62.2075 222.564 58.8675 223.753 55.2808C224.937 51.6928 225.828 48.3581 226.424 45.2661C227.016 42.1781 227.227 39.7355 227.059 37.9408C226.888 36.1488 226.208 35.5501 225.025 36.1488C223.836 37.1475 222.736 37.6435 221.719 37.6435C218.324 37.6435 213.281 37.5955 206.585 37.4928C199.884 37.3955 192.891 37.2968 185.603 37.1941C178.309 37.0955 171.316 36.9981 164.619 36.8955C157.919 36.7981 152.792 36.7461 149.231 36.7461C141.259 36.7461 135.028 36.8475 130.537 37.0435C126.043 37.2462 122.525 37.9408 119.981 39.1368C117.439 40.3341 115.444 42.1782 114.005 44.6675C112.563 47.1608 111.08 50.6008 109.555 54.9821C109.212 55.5795 108.747 56.9248 108.156 59.0182C108.101 59.2088 108.052 59.3928 107.999 59.5821C105.903 59.7008 105.075 60.1461 105.541 60.9248C105.811 61.8435 105.676 62.7595 105.132 63.6781C102.673 67.5035 98.9121 72.9715 93.8601 80.0861C88.8001 87.1995 83.4081 94.7355 77.6708 102.687C73.0201 102.687 70.2921 102.766 69.4721 102.918C68.3774 103.071 66.7374 103.989 64.5534 105.67C62.3628 107.355 60.3841 109.191 58.6108 111.178C56.8294 113.169 55.5361 114.927 54.7161 116.455C53.8974 117.986 54.3068 118.675 55.9468 118.521L67.0134 117.833C62.3628 124.411 57.9254 130.454 53.6921 135.961C49.4534 141.467 46.1094 145.906 43.6494 149.27C36.5414 158.757 30.8028 166.289 26.4348 171.871C22.0614 177.458 19.5308 181.933 18.8521 185.297C18.1734 188.663 19.3974 191.263 22.5414 193.098C25.6788 194.934 31.0774 196.77 38.7321 198.605C39.2761 198.755 40.4348 199.099 42.2148 199.638C43.9894 200.173 45.9681 200.706 48.1588 201.245C50.3428 201.778 52.5974 202.277 54.9214 202.737C57.2401 203.194 59.2254 203.425 60.8641 203.425H74.8014H91.4001C96.9974 203.425 102.192 203.385 106.976 203.309C111.753 203.231 115.513 203.041 118.248 202.737C121.527 202.427 125.145 200.861 129.108 198.033C133.068 195.199 136.487 192.217 139.356 189.083C142.225 185.949 144.204 183.194 145.299 180.821C146.388 178.451 145.569 177.494 142.84 177.953Z" fill="#FF2C66"/>
</g>
<mask id="mask2_506_2022" style="mask-type:luminance" maskUnits="userSpaceOnUse" x="-727" y="-840" width="2304" height="1728">
<path d="M-727 -840H1577V888H-727V-840Z" fill="white"/>
</mask>
<g mask="url(#mask2_506_2022)">
<path d="M422.435 106.631C420.98 108.04 419.062 110.019 416.532 112.807C412.384 117.375 407.755 122.751 402.768 128.787C400.323 131.746 397.847 134.786 395.36 137.883C397.566 135.364 399.82 132.79 402.127 130.158C408.348 123.058 414.355 116.258 419.98 109.944C420.816 108.819 421.634 107.714 422.435 106.631ZM497.143 120.979C495.47 122.731 493.716 124.58 491.872 126.539C486.62 132.116 481.046 138.088 475.303 144.287C469.824 150.203 464.048 156.518 458.138 163.054C455.127 166.386 452.13 169.688 449.168 172.938C449.724 172.623 450.352 172.226 451.059 171.724C454.892 169.008 459.199 165.275 463.864 160.627C468.606 155.912 473.506 150.462 478.432 144.424C483.43 138.299 488.315 132.252 492.952 126.454C494.423 124.54 495.822 122.715 497.143 120.979ZM379.332 260.495C376.498 260.495 373.395 260.16 369.851 259.471C366.568 258.832 363.316 258.063 360.18 257.186C356.634 256.19 355.15 255.726 354.371 255.456C345.994 253.5 340.151 251.516 336.514 249.395C331.283 246.339 328.958 241.335 330.13 235.666C330.992 231.526 333.652 226.423 338.264 220.059C342.359 214.406 347.826 206.836 354.65 197.358C354.796 197.146 354.951 196.924 355.115 196.692C354.856 196.699 354.596 196.702 354.336 196.702C351.483 196.702 348.544 196.392 345.6 195.78C343.051 195.256 340.43 194.767 337.822 194.33C329.186 192.998 322.772 191.079 318.29 188.476C311.394 184.49 309.611 178.831 309.332 174.787C308.979 169.771 310.596 163.935 314.276 156.951C316.079 153.524 318.362 149.602 321.1 145.222L309.768 157.772C303.535 164.674 297.716 170.996 292.472 176.563C287.143 182.214 282.354 186.811 278.239 190.231C273.152 194.454 269.624 196.254 266.439 196.254C266.18 196.254 265.928 196.242 265.684 196.219L265.516 196.2C262.976 195.886 261.234 195.651 260.187 195.483C259.034 195.3 257.375 194.904 254.991 194.239C249.56 193.023 244.803 191.903 240.851 190.908C236.307 189.77 232.792 188.438 230.11 186.839C225.631 184.184 224.078 180.664 223.566 178.18C222.918 175.034 223.486 171.334 225.302 166.867C226.803 163.164 229.239 158.696 232.744 153.214C233.732 151.671 234.804 150.023 235.959 148.274L227.384 157.772C221.164 164.659 215.346 170.979 210.088 176.563C204.774 182.198 200.078 186.775 196.13 190.17C191.17 194.434 187.68 196.254 184.463 196.254C184.206 196.254 183.954 196.242 183.708 196.219C179.768 195.782 178.491 195.575 177.864 195.458C177.288 195.352 176.103 195.107 172.686 194.256C167.222 193.034 162.438 191.908 158.467 190.908C153.932 189.77 150.419 188.44 147.731 186.843C143.242 184.176 141.691 180.659 141.182 178.179C140.534 175.046 141.102 171.347 142.915 166.874C144.44 163.127 146.875 158.662 150.362 153.214C153.696 148.002 158.01 141.574 163.183 134.108C169.24 125.627 175.682 116.862 182.376 107.992C188.588 99.7591 194.358 91.6564 199.542 83.8898C199.143 82.3498 199.339 80.7311 200.136 79.3205C202.136 75.7845 206.363 75.7845 208.168 75.7845C208.424 75.7845 208.692 75.7884 208.972 75.7951C212.222 75.8804 216.252 76.2871 220.958 77.0058C225.574 77.7098 230.619 78.7045 235.951 79.9605C241.382 81.2431 246.248 82.7098 250.422 84.3178C255.056 86.1098 258.494 88.0231 260.935 90.1671C262.2 91.2831 262.999 92.4311 263.491 93.5165C266.358 90.8445 269.112 88.3711 271.739 86.1125C278.083 80.6511 282.836 77.5578 286.694 76.3831L287.502 76.1378H287.859C288.47 75.9938 289.124 75.9191 289.827 75.9085C290.251 75.8898 290.702 75.8805 291.18 75.8805C294.526 75.8805 299.064 76.3645 305.056 77.3605C311.644 78.4618 318.178 79.8925 324.476 81.6151C331.191 83.4551 336.483 85.5685 340.656 88.0765C343.26 89.6431 345.016 91.4565 345.904 93.4885C350.067 89.6018 353.951 86.1805 357.508 83.2698C363.756 78.1578 368.312 75.8778 372.279 75.8778C372.488 75.8778 372.692 75.8845 372.894 75.8965C373.23 75.8845 373.587 75.8778 373.964 75.8778C377.095 75.8778 381.543 76.3218 387.566 77.2325C394.343 78.2645 400.992 79.7058 407.334 81.5178C414.018 83.4325 419.287 85.5765 423.45 88.0751C427.178 90.3178 429.166 93.0618 429.362 96.2311C429.38 96.5338 429.384 96.8578 429.364 97.1991C429.4 97.1498 429.435 97.1005 429.471 97.0511C433.232 91.8885 435.946 87.9644 437.551 85.3698C437.332 84.0018 437.574 82.6031 438.276 81.3631C440.331 77.7431 444.808 77.7431 446.96 77.7431C450.283 77.7431 454.251 78.1018 459.091 78.8405C463.711 79.5471 468.754 80.5404 474.086 81.7951C479.502 83.0764 484.367 84.5418 488.552 86.1525C493.299 87.9885 496.748 90.0138 499.108 92.3471C499.474 92.7098 499.796 93.0725 500.082 93.4351C504.375 89.1578 507.534 86.1805 509.724 84.3445C512.51 82.0005 515.567 80.3498 518.803 79.4445C521.75 78.6191 524.883 78.2018 528.116 78.2018C531.147 78.2018 534.222 78.4591 537.254 78.9685L545.587 80.3698C555.066 82.1965 562.095 84.5245 567.083 87.4871C573.347 91.2218 576.354 97.0925 575.559 104.023C574.884 109.802 571.607 116.775 565.536 125.352C559.947 133.247 551.676 143.336 540.954 155.342C532.942 164.152 526.164 171.51 520.776 177.246C514.983 183.403 509.29 188.232 503.848 191.606C498.11 195.164 492.159 197.33 486.159 198.04C484.344 198.252 482.407 198.359 480.395 198.359H480.394C476.019 198.359 471.066 197.852 465.67 196.85C463.676 196.53 461.138 196.056 458.124 195.44C455.028 194.812 451.811 194.052 448.568 193.182C445.43 192.344 442.262 191.438 439.158 190.487C437.527 189.991 435.988 189.486 434.554 188.974L415.699 209.088L415.1 209.928C405.118 223.52 397.927 234.147 393.683 241.576C389.546 248.82 388.538 251.539 388.299 252.346C388.456 254.283 387.891 256.131 386.667 257.595C385.059 259.52 382.592 260.495 379.332 260.495Z" fill="white"/>
</g>
<mask id="mask3_506_2022" style="mask-type:luminance" maskUnits="userSpaceOnUse" x="-727" y="-840" width="2304" height="1728">
<path d="M-727 -840H1577V888H-727V-840Z" fill="white"/>
</mask>
<g mask="url(#mask3_506_2022)">
<path d="M518.689 100.049C517.321 102.728 514.933 106.439 511.52 111.179C508.097 115.921 503.384 122.192 497.38 129.993C492.729 135.811 487.88 141.812 482.825 148.008C477.769 154.203 472.786 159.749 467.865 164.644C462.95 169.541 458.438 173.443 454.341 176.347C450.244 179.255 446.821 180.327 444.096 179.56C443.817 179.56 443.071 179.329 441.837 178.871C440.611 178.412 439.176 177.879 437.533 177.264C442.724 171.607 448.193 165.601 453.932 159.252C459.672 152.905 465.405 146.631 471.145 140.435C476.884 134.24 482.416 128.312 487.745 122.652C493.076 116.993 497.852 112.021 502.093 107.736C506.325 103.455 509.941 100.013 512.955 97.4092C515.955 94.8105 517.871 93.5079 518.689 93.5079C519.512 93.5079 520.057 93.9319 520.33 94.7705C520.601 95.6132 520.057 97.3732 518.689 100.049ZM569.926 103.376C570.47 98.6359 568.555 94.9652 564.188 92.3612C559.811 89.7612 553.253 87.6212 544.514 85.9359C541.78 85.4772 539.045 85.0185 536.316 84.5599C533.581 84.1012 530.847 83.8705 528.116 83.8705C525.381 83.8705 522.792 84.2145 520.33 84.9039C517.87 85.5919 515.545 86.8545 513.364 88.6905C511.173 90.5252 507.828 93.7025 503.321 98.2119C498.815 102.728 493.62 108.004 487.745 114.047C481.867 120.092 475.656 126.631 469.099 133.667C462.536 140.704 455.979 147.664 449.421 154.548C453.788 148.889 458.236 143.228 462.743 137.567C467.249 131.909 471.553 126.707 475.656 121.963C479.753 117.223 483.441 113.053 486.72 109.457C489.999 105.864 492.729 103.225 494.92 101.541C496.825 99.8585 496.899 98.1372 495.121 96.3772C493.345 94.6212 490.476 92.9745 486.517 91.4425C482.55 89.9172 477.972 88.5399 472.787 87.3132C467.592 86.0905 462.742 85.1332 458.236 84.4452C453.725 83.7559 449.965 83.4119 446.961 83.4119C443.952 83.4119 442.724 83.8705 443.273 84.7892C443.542 85.7065 443.408 86.6252 442.864 87.5425C441.227 90.2959 438.285 94.5812 434.053 100.392C431.148 104.375 427.92 108.759 424.381 113.528C418.701 119.901 412.718 126.673 406.39 133.895C399.281 142.005 392.66 149.577 386.512 156.613C380.364 163.651 375.034 169.501 370.525 174.167C366.018 178.835 363.077 181.244 361.713 181.395C359.798 181.549 359.729 179.828 361.509 176.232C363.284 172.64 366.018 168.087 369.706 162.579C373.396 157.072 377.833 150.991 383.026 144.336C388.214 137.681 393.338 131.296 398.397 125.176C403.45 119.059 408.094 113.667 412.333 108.999C416.565 104.333 419.777 101.16 421.968 99.4745C424.693 97.3345 424.221 95.1545 420.533 92.9359C416.84 90.7199 411.924 88.7305 405.776 86.9692C399.628 85.2119 393.274 83.8358 386.716 82.8385C380.158 81.8452 375.509 81.4265 372.78 81.5772C370.321 81.2719 366.428 83.2972 361.098 87.6572C355.772 92.0172 349.757 97.4892 343.064 104.065C336.366 110.644 329.468 117.832 322.366 125.635C315.257 133.436 308.769 140.628 302.897 147.204C297.017 153.783 292.24 159.177 288.55 163.383C284.862 167.592 283.152 169.463 283.428 169.004C284.516 166.863 285.682 164.913 286.91 163.152C288.141 161.395 289.576 159.365 291.216 157.072C292.855 154.777 294.833 152.101 297.157 149.041C299.477 145.983 302.281 142.156 305.561 137.567C310.748 130.683 316.077 123.839 321.546 117.029C327.009 110.224 332.881 104.373 339.17 99.4745C341.898 97.3345 341.425 95.1545 337.736 92.9359C334.048 90.7199 329.128 88.7679 322.981 87.0839C316.833 85.4012 310.544 84.0252 304.125 82.9532C297.702 81.8852 292.989 81.4265 289.985 81.5772C289.434 81.5772 289.025 81.6545 288.756 81.8065H288.345C285.336 82.7238 281.032 85.5919 275.436 90.4119C269.83 95.2292 263.753 100.931 257.194 107.507C250.637 114.085 243.938 121.084 237.112 128.503C230.277 135.924 224.2 142.693 218.872 148.811C213.542 154.932 209.169 159.94 205.756 163.841C202.336 167.743 200.768 169.463 201.042 169.004C202.13 166.863 203.296 164.913 204.527 163.152C205.756 161.395 207.19 159.365 208.829 157.072C210.469 154.777 212.449 152.101 214.773 149.041C217.092 145.983 219.897 142.156 223.176 137.567C228.364 130.683 233.692 123.839 239.161 117.029C244.624 110.224 250.497 104.373 256.785 99.4745C258.969 97.7932 259.104 96.1119 257.194 94.4265C255.28 92.7452 252.341 91.1385 248.383 89.6079C244.42 88.0799 239.84 86.7039 234.652 85.4772C229.458 84.2545 224.61 83.2972 220.102 82.6092C215.593 81.9212 211.834 81.5399 208.829 81.4625C205.82 81.3865 204.59 81.8065 205.141 82.7239C205.685 83.3359 205.89 83.8359 205.756 84.2145C205.614 84.5985 205.41 85.0972 205.141 85.7065C199.672 93.9679 193.593 102.537 186.901 111.407C180.202 120.281 173.85 128.927 167.842 137.337C162.649 144.833 158.416 151.145 155.137 156.269C151.857 161.395 149.538 165.64 148.169 169.004C146.804 172.371 146.324 175.049 146.734 177.036C147.142 179.025 148.443 180.671 150.628 181.969C152.819 183.271 155.892 184.417 159.85 185.411C163.808 186.407 168.521 187.516 173.991 188.739C176.451 189.352 178.089 189.735 178.909 189.885C179.729 190.04 181.502 190.269 184.237 190.575C185.877 190.728 188.605 189.161 192.435 185.871C196.259 182.581 200.768 178.183 205.961 172.676C211.148 167.168 216.887 160.936 223.176 153.973C229.459 147.015 235.81 139.976 242.234 132.863C248.652 125.749 254.941 118.865 261.089 112.211C267.237 105.556 273.04 99.8585 278.509 95.1159C280.693 93.2799 281.788 92.9745 281.788 94.1972C276.871 101.236 271.605 108.424 266.008 115.768C260.404 123.111 255.146 130.303 250.226 137.337C245.033 144.833 240.8 151.145 237.521 156.269C234.242 161.395 231.917 165.64 230.553 169.004C229.184 172.371 228.709 175.049 229.119 177.036C229.529 179.025 230.822 180.671 233.012 181.969C235.197 183.271 238.27 184.417 242.234 185.411C246.192 186.407 250.906 187.516 256.376 188.739C258.56 189.352 260.128 189.735 261.089 189.885C262.044 190.04 263.753 190.269 266.213 190.575C267.852 190.728 270.651 189.161 274.616 185.871C278.573 182.581 283.152 178.183 288.345 172.676C293.533 167.168 299.272 160.936 305.561 153.973C311.844 147.015 318.197 139.976 324.62 132.863C331.037 125.749 337.326 118.865 343.474 112.211C349.622 105.556 355.425 99.8585 360.894 95.1159C362.257 93.7385 363.148 93.1292 363.558 93.2799C363.968 93.4345 363.898 94.1972 363.353 95.5745L359.255 101.311C354.605 107.277 350.032 113.323 345.524 119.439C341.016 125.56 336.846 131.525 333.022 137.337C327.009 146.211 322.429 153.629 319.292 159.596C316.146 165.563 314.713 170.496 314.988 174.396C315.257 178.297 317.306 181.359 321.136 183.575C324.96 185.795 330.833 187.516 338.761 188.739C341.489 189.197 344.153 189.696 346.753 190.229C349.348 190.768 351.877 191.033 354.336 191.033C356.796 191.033 359.184 190.688 361.509 190C363.828 189.312 366.222 187.975 368.681 185.985C370.056 184.8 371.58 183.408 373.242 181.821C371.742 183.805 370.276 185.745 368.881 187.591C364.373 193.557 361.164 197.916 359.249 200.671C352.422 210.155 346.953 217.727 342.854 223.387C338.754 229.043 336.366 233.521 335.681 236.815C335.002 240.097 336.232 242.664 339.37 244.499C342.516 246.332 348.049 248.172 355.97 250.007C356.789 250.309 358.705 250.883 361.709 251.725C364.718 252.568 367.792 253.295 370.932 253.907C374.076 254.517 376.873 254.825 379.333 254.825C381.792 254.825 382.888 254.056 382.612 252.529C382.344 250.997 384.393 246.409 388.76 238.764C393.135 231.109 400.372 220.405 410.485 206.637L411.304 205.489L433.026 182.313C435.213 183.231 437.803 184.149 440.817 185.067C443.817 185.985 446.893 186.867 450.037 187.705C453.176 188.548 456.248 189.276 459.257 189.885C462.261 190.499 464.721 190.957 466.638 191.263C474.014 192.639 480.297 193.019 485.492 192.409C490.677 191.796 495.8 189.925 500.861 186.788C505.916 183.655 511.173 179.179 516.643 173.364C522.103 167.552 528.794 160.284 536.725 151.565C547.384 139.632 555.44 129.804 560.909 122.077C566.373 114.355 569.373 108.12 569.926 103.376Z" fill="#FF2C66"/>
</g>
<mask id="mask4_506_2022" style="mask-type:luminance" maskUnits="userSpaceOnUse" x="-727" y="-840" width="2304" height="1728">
<path d="M-727 -840H1577V888H-727V-840Z" fill="white"/>
</mask>
<g mask="url(#mask4_506_2022)">
<path d="M661.037 73.6836C656.961 73.6836 652.906 73.0649 648.985 71.8463C642.609 69.8663 637.902 66.0783 635.002 60.5916C631.761 54.4796 633.171 46.7676 639.315 37.0196L639.422 36.8556C641.427 33.9063 642.997 31.2089 644.085 28.8409C645.317 26.1556 645.737 24.4209 645.871 23.4369L645.981 22.6409L646.193 22.1649C645.942 20.7703 646.173 19.3196 646.898 18.0383C648.95 14.4089 653.434 14.4089 655.589 14.4089C658.865 14.4089 662.946 14.7796 667.715 15.5076C672.338 16.2129 677.383 17.2076 682.71 18.4623C688.13 19.7436 692.998 21.2089 697.178 22.8196C701.914 24.6516 705.363 26.6743 707.73 29.0076C710.275 31.5356 710.745 34.0956 710.694 35.8009C710.642 37.5169 710.01 40.0663 707.29 42.4609L707.079 42.6463L706.853 42.8103C704.937 44.1876 702.63 45.8969 699.998 47.8903C697.367 49.8783 694.71 52.0343 692.097 54.3049C689.457 56.5956 687.019 58.8823 684.849 61.1023C682.931 63.0596 681.545 64.8676 680.723 66.4796L680.505 66.9089L680.215 67.2956C677.839 70.4823 673.507 72.3943 666.581 73.3129C664.73 73.5596 662.862 73.6836 661.037 73.6836Z" fill="white"/>
</g>
<mask id="mask5_506_2022" style="mask-type:luminance" maskUnits="userSpaceOnUse" x="-727" y="-840" width="2304" height="1728">
<path d="M-727 -840H1577V888H-727V-840Z" fill="white"/>
</mask>
<g mask="url(#mask5_506_2022)">
<path d="M650.668 66.432C655.588 67.9613 660.641 68.3813 665.835 67.6933C671.023 67.0053 674.301 65.744 675.671 63.9066C676.761 61.7666 678.471 59.5106 680.796 57.1386C683.113 54.768 685.644 52.3986 688.379 50.0253C691.107 47.6546 693.841 45.436 696.576 43.3693C699.303 41.304 701.628 39.5826 703.543 38.2066C705.452 36.5253 705.521 34.804 703.747 33.044C701.968 31.288 699.099 29.6413 695.141 28.1093C691.176 26.5826 686.597 25.2066 681.409 23.98C676.217 22.7573 671.369 21.8 666.86 21.112C662.351 20.4226 658.591 20.0786 655.588 20.0786C652.577 20.0786 651.347 20.5373 651.899 21.456C652.168 21.9146 652.237 22.3386 652.103 22.7173C651.963 23.1013 651.759 23.6 651.489 24.2093C651.215 26.2 650.464 28.5333 649.236 31.208C648.005 33.8866 646.293 36.8306 644.111 40.0426C639.192 47.8453 637.823 53.8106 640.013 57.9413C642.196 62.0706 645.749 64.904 650.668 66.432Z" fill="#FF2C66"/>
</g>
<mask id="mask6_506_2022" style="mask-type:luminance" maskUnits="userSpaceOnUse" x="-727" y="-840" width="2305" height="1728">
<path d="M-727 -840H1577V888H-727V-840Z" fill="white"/>
</mask>
<g mask="url(#mask6_506_2022)">
<path d="M661.192 103.892C657.042 107.231 653.164 110.801 649.664 114.5C646.062 118.309 642.717 122.132 639.718 125.86C636.668 129.641 633.845 133.367 631.322 136.937C629.946 138.879 628.67 140.689 627.492 142.372C629.896 139.62 632.3 136.857 634.705 134.083C639.212 128.885 643.513 123.916 647.608 119.173C651.869 114.247 655.405 110.288 658.42 107.072L659.049 106.4C659.758 105.584 660.562 104.671 661.465 103.657C661.44 103.681 661.192 103.892 661.192 103.892ZM756.782 105.849C753.49 108.64 750.436 111.528 747.622 114.5C744.01 118.321 740.664 122.143 737.678 125.859C734.629 129.639 731.806 133.364 729.28 136.937C727.754 139.092 726.349 141.088 725.062 142.924C727.87 139.657 730.674 136.405 733.48 133.168C737.656 128.352 741.733 123.708 745.608 119.363C749.026 114.595 752.776 110.061 756.782 105.849ZM791.822 153.036C787.67 159.652 784.83 165.515 783.37 170.487C782.824 172.345 782.656 173.552 782.618 174.277C783.905 174.205 786.604 173.663 791.58 171.165C797.641 168.127 804.11 163.515 810.814 157.455C819.828 149.292 827.681 141.025 834.157 132.888C836.054 130.503 837.989 128.115 839.952 125.727C837.277 128.127 834.43 130.508 831.428 132.856C825.325 137.62 818.642 141.965 811.562 145.772C805.04 149.279 798.412 151.717 791.822 153.036ZM687.968 196.701C685.112 196.701 682.172 196.392 679.23 195.78C676.681 195.256 674.06 194.767 671.452 194.329C662.817 192.999 656.402 191.08 651.92 188.477C645.024 184.489 643.241 178.831 642.961 174.787C642.608 169.775 644.225 163.939 647.905 156.952C651.114 150.852 655.844 143.181 661.96 134.157C665.902 128.344 670.185 122.336 674.738 116.225C674.056 117.004 673.458 117.663 672.946 118.2C669.106 122.651 664.557 127.955 659.285 134.133C653.412 141.011 647.474 148.001 641.476 155.107C635.413 162.279 629.349 169.105 623.45 175.404C617.333 181.931 612.264 186.825 607.949 190.367C604.896 192.837 601.826 194.533 598.794 195.434C595.957 196.276 593.002 196.701 590.008 196.701C587.154 196.701 584.216 196.392 581.273 195.78C578.722 195.256 576.102 194.767 573.494 194.329C564.869 193 558.454 191.083 553.964 188.479C547.076 184.489 545.289 178.836 545.004 174.796C544.658 169.769 546.274 163.939 549.944 156.957C553.181 150.815 557.91 143.145 564.001 134.157C569.797 125.507 576.22 116.636 583.07 107.815C589.55 99.4692 595.342 91.2785 600.298 83.4585C600.037 82.0505 600.265 80.6012 600.989 79.3212C602.988 75.7838 607.216 75.7838 609.02 75.7838C609.276 75.7838 609.545 75.7878 609.825 75.7945C613.077 75.8798 617.108 76.2865 621.809 77.0052C626.429 77.7105 631.474 78.7038 636.804 79.9598C642.232 81.2425 647.1 82.7092 651.274 84.3172C655.968 86.1332 659.386 88.0892 661.733 90.3038C664.321 92.7612 664.824 95.3052 664.79 97.0078C664.768 98.2452 664.442 99.9158 663.246 101.656C665.597 99.0025 667.974 96.2665 670.33 93.5025C673.053 90.3105 675.648 87.2572 678.125 84.3385C678.125 84.3385 680.062 82.0598 680.732 81.2772C679.834 79.5758 679.642 77.7252 679.912 76.0745C680.33 73.4572 681.554 70.8305 683.652 68.0598C685.136 66.0878 686.556 64.1572 687.864 62.3292C687.954 62.2012 688.034 62.0852 688.104 61.9785C687.288 59.8852 687.778 58.1265 688.122 57.2972C688.742 55.8038 690.462 53.2985 695.014 53.2985C695.181 53.2985 695.356 53.3012 695.538 53.3078C698.192 53.4025 701.212 53.9425 704.518 54.9105C707.78 55.8678 710.724 57.0745 713.273 58.4972C714.542 59.2105 718.364 61.3572 718.362 65.4932C718.361 67.8265 717.074 69.9398 714.921 71.1478C714.914 71.1505 714.489 71.4065 713.346 72.3705C712.542 73.0452 711.678 73.8305 710.765 74.7172L727.296 78.3318C731.713 79.2612 736.162 80.3292 740.477 81.4958C744.984 82.7172 748.933 84.0985 752.217 85.6012C756.07 87.3652 758.822 89.3158 760.628 91.5625C763.026 94.5478 763.301 98.0798 761.574 101.081C766.832 96.1332 772.408 91.7892 778.186 88.1412C785.093 83.7798 792.556 80.6052 800.366 78.7052C804.85 77.6172 809.509 77.0665 814.216 77.0665C817.872 77.0665 821.642 77.3998 825.422 78.0558C828.096 78.5532 830.936 79.2278 834.174 80.1305C837.276 81.0012 840.433 82.0052 843.565 83.1172C850.321 85.6412 854.68 88.0638 857.373 90.7758C858.83 92.2452 863.086 97.5385 858.234 105.263L860.953 105.877C862.244 106.169 863.478 106.421 864.64 106.639C865.924 106.877 867.284 107.16 868.721 107.48L878.442 109.641L871.621 116.897C868.98 119.707 866.157 122.905 863.23 126.403C860.15 130.085 856.95 133.823 853.721 137.513C850.464 141.241 847.318 144.915 844.377 148.432C841.354 152.044 838.42 155.448 835.653 158.551C829.988 165.049 823.841 170.835 817.43 175.7C811.025 180.563 804.498 184.62 798.033 187.757C791.56 190.899 785.468 193.194 779.925 194.584C775.905 195.589 772.426 196.079 769.288 196.079C767.698 196.079 766.188 195.947 764.798 195.688C756.79 194.299 749.353 192.632 742.765 190.747C735.113 188.561 729.465 184.901 725.973 179.865C724.616 178.003 723.758 175.737 723.404 173.096C720.846 175.869 718.364 178.48 715.985 180.897C712.236 184.709 708.864 187.881 705.962 190.321C702.852 192.839 699.782 194.534 696.753 195.434C693.912 196.276 690.957 196.701 687.968 196.701Z" fill="white"/>
</g>
<mask id="mask7_506_2022" style="mask-type:luminance" maskUnits="userSpaceOnUse" x="-727" y="-840" width="2304" height="1728">
<path d="M-727 -840H1577V888H-727V-840Z" fill="white"/>
</mask>
<g mask="url(#mask7_506_2022)">
<path d="M812.772 119.324C820.283 112.212 828.002 106.589 835.931 102.459C837.57 101.695 838.388 101.656 838.388 102.344C838.388 103.032 837.979 104.144 837.159 105.671C835.244 108.12 832.856 111.028 829.987 114.392C827.118 117.759 823.77 121.161 819.944 124.601C816.114 128.044 811.951 131.257 807.443 134.24C802.934 137.224 798.22 139.557 793.302 141.239C798.767 133.745 805.255 126.437 812.772 119.324ZM863.596 112.212C862.368 111.981 861.066 111.716 859.703 111.408C852.324 119.668 845.286 128.008 838.594 136.42C831.896 144.835 823.902 153.251 814.616 161.661C807.508 168.087 800.68 172.945 794.123 176.233C787.566 179.524 782.779 180.632 779.778 179.56C776.766 178.491 776.152 174.935 777.931 168.889C779.706 162.848 783.191 155.849 788.384 147.893C795.211 146.825 802.046 144.452 808.878 140.779C815.704 137.108 822.058 132.979 827.936 128.389C833.81 123.799 839.006 119.135 843.511 114.392C848.02 109.652 851.23 105.751 853.146 102.688C855.328 99.4759 855.399 96.8372 853.35 94.7719C851.299 92.7065 847.407 90.6039 841.667 88.4612C838.659 87.3919 835.654 86.4345 832.652 85.5919C829.64 84.7532 826.912 84.1012 824.452 83.6425C816.526 82.2652 808.942 82.4599 801.706 84.2159C794.463 85.9759 787.628 88.8839 781.212 92.9359C774.787 96.9905 768.711 101.885 762.972 107.623C758.175 112.417 753.883 117.525 750.042 122.908C746.131 127.293 742.043 131.945 737.766 136.88C733.259 142.081 728.75 147.32 724.24 152.599C719.732 157.875 715.492 162.619 711.535 166.824C707.57 171.033 704.156 174.512 701.287 177.264C698.418 180.019 696.434 181.396 695.343 181.396C692.608 181.704 693.152 178.872 696.983 172.905C700.808 166.94 707.775 157.072 717.888 143.304C719.796 140.551 722.05 137.337 724.65 133.667C727.244 129.995 730.112 126.209 733.259 122.308C736.395 118.407 739.816 114.505 743.504 110.605C747.195 106.704 751.222 102.996 755.596 99.4759C757.235 98.0985 757.44 96.6465 756.21 95.1159C754.982 93.5879 752.862 92.1319 749.856 90.7559C746.848 89.3799 743.23 88.1159 738.995 86.9692C734.756 85.8225 730.452 84.7892 726.084 83.8719L699.852 78.1345C700.674 77.2172 701.627 76.1479 702.722 74.9225C703.81 73.6999 704.975 72.4772 706.206 71.2505C707.435 70.0279 708.595 68.9572 709.691 68.0385C710.779 67.1199 711.598 66.5105 712.148 66.2025C713.236 65.5919 712.692 64.6759 710.51 63.4492C708.319 62.2252 705.796 61.1945 702.926 60.3519C700.056 59.5119 697.527 59.0532 695.343 58.9745C693.152 58.8985 692.743 59.5479 694.115 60.9252C694.383 62.1505 693.839 63.7185 692.474 65.6292C691.104 67.5439 689.67 69.4932 688.172 71.4812C686.667 73.4705 685.776 75.3065 685.507 76.9879C685.232 78.6732 686.328 79.8959 688.786 80.6585C687.416 82.1892 685.438 84.4852 682.842 87.5439C680.242 90.6039 677.515 93.8172 674.646 97.1812C671.775 100.548 668.971 103.76 666.244 106.817C664.796 108.437 663.586 109.813 662.599 110.961L662.555 110.949C659.547 114.161 655.998 118.141 651.898 122.881C647.802 127.624 643.496 132.597 638.988 137.796C634.479 142.999 629.97 148.163 625.462 153.285C620.952 158.413 616.786 163.039 612.96 167.168C609.13 171.299 605.788 174.705 602.919 177.38C600.05 180.059 598.206 181.396 597.384 181.396C594.65 181.704 595.196 178.872 599.024 172.905C602.85 166.94 609.816 157.072 619.93 143.304C621.838 140.551 624.091 137.337 626.691 133.667C629.287 129.995 632.154 126.209 635.3 122.308C638.436 118.407 641.858 114.505 645.546 110.605C649.236 106.704 653.263 102.996 657.638 99.4759C659.547 97.7945 659.616 96.1119 657.842 94.4279C656.06 92.7452 653.194 91.1385 649.236 89.6079C645.271 88.0799 640.692 86.7052 635.504 85.4785C630.31 84.2545 625.462 83.2985 620.952 82.6092C616.446 81.9212 612.686 81.5412 609.682 81.4625C606.672 81.3865 605.442 81.8065 605.994 82.7239C606.263 83.7972 606.128 84.7892 605.584 85.7065C600.388 93.9692 594.375 102.497 587.548 111.293C580.714 120.092 574.434 128.773 568.694 137.337C562.68 146.212 558.107 153.629 554.963 159.596C551.826 165.563 550.391 170.496 550.659 174.396C550.935 178.297 552.984 181.36 556.807 183.576C560.636 185.795 566.503 187.516 574.434 188.739C577.16 189.197 579.826 189.696 582.426 190.231C585.018 190.768 587.548 191.033 590.008 191.033C592.467 191.033 594.856 190.689 597.18 190C599.498 189.312 601.894 187.975 604.354 185.985C608.451 182.623 613.434 177.803 619.312 171.528C625.187 165.259 631.131 158.564 637.144 151.449C643.15 144.336 649.094 137.337 654.972 130.455C660.296 124.215 664.883 118.867 668.75 114.387C669.854 113.239 671.479 111.367 673.619 108.769C676.08 105.787 678.744 102.612 681.614 99.2452C684.482 95.8825 687.282 92.6305 690.016 89.4932C692.743 86.3599 694.795 83.9505 696.164 82.2652L699.443 82.9545C701.627 83.4132 702.652 84.3305 702.518 85.7065C702.375 87.0839 701.762 88.6145 700.674 90.2959C695.478 97.9479 689.811 105.787 683.663 113.817C677.515 121.849 671.84 129.689 666.652 137.337C660.639 146.212 656.06 153.629 652.922 159.596C649.778 165.563 648.343 170.496 648.618 174.396C648.887 178.297 650.935 181.36 654.766 183.576C658.591 185.795 664.462 187.516 672.392 188.739C675.119 189.197 677.784 189.696 680.384 190.231C682.976 190.768 685.507 191.033 687.967 191.033C690.426 191.033 692.814 190.689 695.139 190C697.456 189.312 699.852 187.975 702.312 185.985C705.04 183.689 708.256 180.671 711.944 176.921C715.632 173.175 719.527 169.004 723.624 164.416C726.436 161.268 729.336 157.996 732.276 154.668C732.055 155.279 731.816 155.9 731.616 156.497C730.118 161.013 729.228 165.028 728.952 168.545C728.682 172.065 729.228 174.74 730.591 176.577C733.326 180.556 737.9 183.461 744.323 185.296C750.74 187.132 757.912 188.739 765.842 190.115C769.12 190.729 773.352 190.384 778.547 189.084C783.735 187.784 789.41 185.641 795.558 182.659C801.706 179.675 807.855 175.853 814.003 171.184C820.151 166.52 825.952 161.051 831.422 154.777C834.15 151.719 837.019 148.391 840.028 144.796C843.032 141.203 846.176 137.532 849.455 133.781C852.734 130.035 855.874 126.363 858.883 122.767C861.887 119.173 864.756 115.923 867.491 113.015C866.12 112.709 864.826 112.44 863.596 112.212Z" fill="#FF2C66"/>
</g>
<mask id="mask8_506_2022" style="mask-type:luminance" maskUnits="userSpaceOnUse" x="-727" y="-840" width="2304" height="1728">
<path d="M-727 -840H1577V888H-727V-840Z" fill="white"/>
</mask>
<g mask="url(#mask8_506_2022)">
<path d="M230.237 250.864C230.12 250.868 229.788 251.294 229.46 251.822C229.136 252.458 229.036 252.875 229.153 252.872C229.386 252.863 229.718 252.438 230.042 251.802C230.37 251.274 230.47 250.855 230.237 250.864ZM227.592 254.686C227.157 255.427 226.941 255.85 227.286 255.735C227.628 255.518 228.185 254.874 228.513 254.344C229.269 252.868 228.7 253.198 227.592 254.686ZM208.753 223.027C208.749 222.924 208.061 223.256 207.155 223.907C206.244 224.458 205.452 225.106 205.456 225.208C205.464 225.416 206.265 224.975 207.176 224.426C208.082 223.776 208.758 223.131 208.753 223.027ZM188.731 235.93C188.965 235.92 189.527 235.383 189.971 234.851C190.533 234.314 190.861 233.784 190.745 233.788C190.512 233.796 189.948 234.334 189.505 234.864C188.943 235.402 188.613 235.934 188.731 235.93ZM199.316 293.806C196.697 298.252 186.535 317.89 186.56 318.511C186.568 318.719 189.611 313.223 193.175 306.255C196.74 299.288 200.332 292.943 200.99 291.986C201.654 291.031 202.085 290.188 201.965 290.088C201.728 289.992 200.626 291.583 199.316 293.806ZM180.849 243.036C180.849 243.036 181.635 242.286 182.535 241.424L184.099 239.715L182.409 241.222C180.716 242.627 180.383 243.052 180.849 243.036ZM182.268 327.682C181.92 327.692 180.399 330.44 180.42 330.959C180.441 331.476 180.661 331.16 181.633 329.259C182.065 328.414 182.385 327.678 182.268 327.682ZM203.066 226.74C185.356 239.051 165.419 259.63 148.177 283.235C143.537 289.615 137.297 299.679 137.341 300.714C137.351 300.923 138.668 298.908 140.417 296.048C142.051 293.192 145.236 288.315 147.557 285.123C162.46 264.294 182.029 243.308 197.995 231.163C203.992 226.506 206.585 224.238 203.066 226.74ZM134.433 298.215C134.46 298.839 134.68 298.519 135.436 297.042C136.088 295.878 135.968 295.778 135.189 296.739C134.745 297.274 134.425 298.007 134.433 298.215ZM176.356 247.338C178.261 245.404 177.583 245.947 174.775 248.634C163.216 260.014 145.776 281.654 138.685 293.719C136.832 296.892 134.468 301.848 133.857 304.046C133.245 306.143 133.893 304.879 135.603 301.083C140.492 289.403 157.433 267.052 176.356 247.338ZM235.101 227.352C236.486 221.391 236.318 220.151 234.317 219.802C231.969 219.463 225.959 221.008 221.493 223.231C204.895 231.354 182.352 251.082 164.35 273.262C149.236 291.815 141.343 304.216 139.789 311.844C138.717 316.964 138.968 317.372 142.568 316.839C150.695 315.638 163.653 309.815 175.596 302.055C183.213 297.032 184.463 296.162 184.445 295.747C184.441 295.644 182.34 295.712 179.777 295.9C174.775 296.376 173.004 295.914 173.4 294.239C173.612 293.716 173.125 293.214 171.825 292.84C170.048 292.275 168.44 290.147 168.73 288.687C169.012 287.014 185.529 282.531 199.108 280.427C208.161 278.986 228.975 276.646 230.271 276.912C231.8 277.174 234.126 279.795 233.813 280.636C233.713 281.055 232.446 281.511 231.172 281.76C228.389 282.267 218.33 284.776 216.374 285.462C210.502 287.524 209.814 287.856 209.844 288.583C209.901 289.931 207.084 295.212 203.462 300.832C198.629 308.151 191.447 320.842 184.516 333.939C181.264 340.063 178.323 345.144 177.973 345.155C177.621 345.167 176.533 344.267 175.44 343.264C174.101 341.959 173.587 340.835 173.54 339.695C173.453 337.623 175.879 331.316 182.729 316.25C185.615 309.823 187.956 304.351 187.836 304.25C187.714 304.15 186.237 305.132 184.539 306.435C176.151 312.624 162.572 320.334 155.212 323.17C151.995 324.419 149.683 325.014 146.304 325.227C140.833 325.718 139.3 325.354 136.147 322.551C134.816 321.451 133.005 320.059 132.042 319.363C125.768 314.587 125.601 304.939 131.643 292.911C139.416 277.606 163.433 248.383 180.569 233.496C202.659 214.092 218.425 205.583 229.123 207.207C232.768 207.811 236.584 209.66 238.185 211.682C241.025 215.326 244.26 220.098 244.916 221.842C245.953 224.298 245.693 229.288 244.276 234.523C242.373 242.163 234.617 255.078 228.334 261.304L224.408 265.17L222.946 263.766C220.506 261.251 220.909 259.679 225.982 249.654C231.276 239.308 233.824 233.207 235.101 227.352Z" fill="#0981F9"/>
</g>
<mask id="mask9_506_2022" style="mask-type:luminance" maskUnits="userSpaceOnUse" x="-727" y="-840" width="2305" height="1728">
<path d="M-727 -840H1577V888H-727V-840Z" fill="white"/>
</mask>
<g mask="url(#mask9_506_2022)">
<path d="M274.36 253.534C273.418 254.888 273.286 255.718 273.768 255.369C274.413 255.014 275.196 253.83 275.654 252.826C277.034 249.969 276.061 250.496 274.36 253.534ZM272.497 256.738C272.333 256.744 271.705 257.59 271.088 258.768C270.63 259.777 270.496 260.605 270.66 260.6C270.989 260.588 271.618 259.741 272.077 258.732C272.692 257.554 272.826 256.726 272.497 256.738ZM270.349 261.105L268.933 262.976C268.152 264.158 267.058 265.848 266.601 266.857L265.686 268.869L267.261 266.833C268.048 265.812 269.138 264.122 269.59 262.952L270.349 261.105ZM264.617 271.221C264.288 271.233 263.664 272.244 263.206 273.25C262.584 274.264 262.448 275.097 262.614 275.089C262.944 275.077 263.573 274.228 264.03 273.221C264.653 272.208 264.781 271.214 264.617 271.221ZM272.814 251.938C269.653 255.689 255.118 282.13 256.108 282.094C256.437 282.082 259.068 277.365 262.157 271.64C265.245 265.916 269.261 258.505 271.288 255.294C273.152 252.092 273.92 250.576 272.814 251.938ZM319.082 258.152C322.501 261.325 319.664 264.897 310.72 268.528C304.386 271.233 302.077 271.32 296.218 269.061C292.205 267.56 291.045 267.438 288.438 268.358C281.278 271.098 264.658 290.196 255.83 305.868C251.338 313.789 249.913 315.489 248.101 315.557C246.784 315.605 245.441 314.993 245.082 314.185C244.728 313.537 244.677 312.217 244.978 311.382C245.277 310.546 245.094 310.061 244.61 310.405C244.13 310.757 243.636 310.773 243.618 310.277C243.598 309.781 242.761 309.485 241.608 309.529C240.454 309.569 239.1 308.628 238.057 307.184C236.482 304.762 236.47 304.437 242.734 290.838C251.129 272.377 257.93 259.916 265.773 248.898C271.114 241.606 272.86 239.726 274.836 239.654C276.156 239.605 277.497 240.217 277.865 241.192C278.76 243.137 280.648 245.049 281.965 245.001C284.106 244.921 284.461 250.025 282.446 253.561L280.602 257.264L284.716 256.945C287.188 256.854 290.52 257.721 293.705 259.088C299.918 261.996 306.186 261.926 312.841 258.878C317.056 256.905 317.716 256.881 319.082 258.152Z" fill="#0981F9"/>
</g>
<mask id="mask10_506_2022" style="mask-type:luminance" maskUnits="userSpaceOnUse" x="-727" y="-840" width="2304" height="1728">
<path d="M-727 -840H1577V888H-727V-840Z" fill="white"/>
</mask>
<g mask="url(#mask10_506_2022)">
<path d="M344.639 279.981C341.964 283.543 334.352 296.367 334.388 297.357C334.412 298.014 338.148 296.389 342.183 293.931C346.533 291.131 352.939 285.779 364.591 275.115C371.775 268.582 373.356 266.707 372.977 265.399C372.783 264.583 372.556 262.942 372.52 261.953C372.429 259.479 370.461 259.887 363.345 263.777C357.041 267.311 349.52 273.693 344.639 279.981ZM340.031 271.403C336.552 275.494 329.863 286.469 328.993 289.801C328.695 290.633 330.257 288.267 332.265 284.562C334.275 280.857 337.705 275.45 339.737 272.405L343.668 267.142L340.031 271.403ZM329 285.506C330.992 281.307 333.604 276.098 335.019 274.23L337.528 270.669L334.843 273.905C331.68 277.653 326.596 287.41 325.893 290.737C325.777 292.061 327.009 289.706 329 285.506ZM321.277 299.819C319.361 297.085 318.984 295.778 318.808 290.999C318.577 284.738 320.664 278.719 326.439 269.759C334.381 256.926 345.924 247.754 358.979 243.809C366.485 241.55 368.659 242.294 376.519 249.595C380.113 253.093 383.377 256.603 383.739 257.414C383.933 258.23 384.959 259.183 385.787 259.321C386.625 259.617 387.479 260.409 387.667 261.063C388.028 261.878 389.232 263.154 390.573 263.762C395.963 266.699 396.847 272.773 393.787 288.23C392.949 292.386 392.591 296.03 392.932 296.346C394.297 297.617 401.193 292.246 419.072 275.913C425.781 269.887 432.016 264.541 432.829 264.183C434.125 263.477 434.789 263.613 436.156 264.885C437.183 265.835 437.877 266.801 437.885 266.965C437.928 268.119 407.931 300.414 403.921 303.534C398.471 307.859 393.553 308.702 390.635 305.674C389.439 304.562 387.553 302.65 386.192 301.547C380.736 296.795 379.2 290.913 380.799 280.626C381.477 276.642 382.015 273.319 381.851 273.327C380.697 273.37 370.759 281.323 361.507 289.918C348.255 301.957 345.697 304.195 340.681 306.858C335.82 309.347 331.865 309.494 329.48 307.437C328.461 306.649 327.595 305.525 327.583 305.195C327.564 304.702 326.716 304.073 325.548 303.789C324.543 303.329 322.664 301.582 321.277 299.819Z" fill="#0981F9"/>
</g>
<mask id="mask11_506_2022" style="mask-type:luminance" maskUnits="userSpaceOnUse" x="-727" y="-840" width="2304" height="1728">
<path d="M-727 -840H1577V888H-727V-840Z" fill="white"/>
</mask>
<g mask="url(#mask11_506_2022)">
<path d="M490.461 265.357C489.849 266.699 489.564 267.863 489.729 267.855C490.057 267.843 490.673 266.668 491.282 265.326C491.893 263.982 492.353 262.974 492.024 262.986C491.857 262.993 491.234 264.006 490.461 265.357ZM489.452 264.897C489.929 264.382 490.237 263.71 489.893 263.395C489.722 263.238 489.238 263.582 488.942 264.418C488.653 265.587 488.653 265.587 489.452 264.897ZM489.093 268.539C488.928 268.546 488.465 269.391 487.998 270.231C487.536 271.071 487.397 271.737 487.56 271.731C487.726 271.725 488.36 271.04 488.821 270.2C489.125 269.364 489.421 268.527 489.093 268.539ZM486.785 268.626C486.173 269.968 485.724 271.139 486.053 271.124C486.217 271.119 486.833 269.945 487.445 268.602C488.058 267.425 488.513 266.253 488.184 266.265C488.017 266.271 487.401 267.448 486.785 268.626ZM481.149 281.373C480.353 282.063 479.712 282.581 479.717 282.747C479.741 283.407 480.389 283.052 481.325 281.698C482.269 280.344 482.269 280.345 481.149 281.373ZM457.866 245.106C457.89 245.766 458.53 245.246 459.469 243.89C460.417 242.703 460.41 242.538 459.293 243.568C458.494 244.256 457.861 244.942 457.866 245.106ZM455.562 249.81C456.046 249.466 456.838 248.609 457.305 247.766C458.372 245.419 457.558 245.778 456.002 248.31C455.386 249.49 455.244 250.156 455.562 249.81ZM452.293 255.048C452.457 255.04 453.078 254.03 453.86 252.846C454.642 251.662 454.785 250.994 454.301 251.343C453.328 251.873 451.636 255.072 452.293 255.048ZM447.138 262.995C447.305 262.987 448.569 261.454 449.813 259.43C451.061 257.405 451.989 255.883 451.665 255.895C451.498 255.901 450.234 257.434 448.988 259.46C447.745 261.486 446.809 263.007 447.138 262.995ZM435.033 279.286C435.365 279.271 435.834 278.594 436.292 277.583C436.756 276.743 436.896 276.077 436.732 276.083C436.402 276.095 435.933 276.773 435.468 277.615C435.009 278.626 434.872 279.29 435.033 279.286ZM433.02 287.278C433.184 287.27 435.668 283.053 438.624 278.159C441.408 273.106 444.514 267.877 445.454 266.522C446.224 265.007 446.84 263.83 446.51 263.842C446.017 263.862 442.744 269.098 437.324 278.703C432.524 287.297 432.524 287.297 433.02 287.278ZM430.712 287.362C430.877 287.357 431.508 286.51 431.804 285.673C432.269 284.83 432.404 284.002 432.24 284.006C432.074 284.014 431.445 284.861 431.148 285.697C430.682 286.539 430.548 287.369 430.712 287.362ZM430.09 292.831C430.42 292.819 431.036 291.639 431.653 290.462C432.261 289.122 432.548 287.957 432.385 287.962C432.218 287.969 431.438 289.15 430.826 290.491C430.21 291.669 429.926 292.838 430.09 292.831ZM426.394 300.066C426.725 300.054 427.497 298.537 428.422 296.854C429.18 295.007 429.624 293.674 429.46 293.679C429.296 293.686 428.357 295.039 427.598 296.883C426.672 298.569 426.232 300.07 426.394 300.066ZM423.913 304.281C423.949 305.267 424.266 304.926 425.326 302.41C426.085 300.571 426.085 300.571 424.982 301.929C424.358 302.945 423.901 303.951 423.913 304.281ZM423.19 302.655C423.67 302.146 423.809 301.478 423.638 301.319C423.461 300.997 422.986 301.51 422.682 302.345C422.236 303.518 422.398 303.513 423.19 302.655ZM418.894 315.847C418.925 316.674 419.389 315.831 421.669 310.634C422.89 307.95 423.797 305.605 423.632 305.61C423.138 305.629 418.857 314.863 418.894 315.847ZM417.996 313.903C418.638 313.385 418.778 312.718 418.608 312.559C418.265 312.245 417.786 312.757 417.657 313.587C417.197 314.594 417.368 314.753 417.996 313.903ZM399.465 343.797C403.146 331.779 407.669 320.225 415.294 303.279C432.673 264.516 456.94 228.972 459.75 238.108C459.946 238.924 461.137 239.867 462.144 240.326C463.15 240.784 464.341 241.731 464.529 242.386C465.24 243.679 461.098 252.246 454.872 262.377C452.546 266.423 450.21 270.142 449.902 270.814C449.6 271.486 453.088 267.723 457.685 262.604C465.285 253.907 474.388 245.653 479.074 242.999C482.146 241.241 486.077 240.437 488.082 241.185C489.081 241.478 492.305 243.833 495.04 246.373L499.994 250.975L499.818 255.111C499.272 267.174 483.954 290.181 470.889 298.421C464.438 302.454 463.133 302.834 458.005 302.526C453.86 302.018 448.142 299.095 448.076 297.282C448.056 296.786 449.693 296.399 451.665 296.158C459.409 295.874 467.43 289.634 474.438 278.321C478.954 271.059 486.928 254.594 486.417 254.117C485.73 253.482 476.42 260.426 469.872 266.281C461.085 274.197 451.145 286.609 438.608 304.559C422.006 328.609 416.573 337.885 411.164 352.275C407.402 362.15 406.634 363.662 404.638 363.241C403.808 363.106 403.296 362.629 403.278 362.135C403.236 360.985 401.197 359.406 400.056 359.782C399.574 360.129 398.401 359.675 397.546 358.881C395.674 357.305 395.785 355.811 399.465 343.797Z" fill="#0981F9"/>
</g>
<mask id="mask12_506_2022" style="mask-type:luminance" maskUnits="userSpaceOnUse" x="-727" y="-840" width="2304" height="1728">
<path d="M-727 -840H1577V888H-727V-840Z" fill="white"/>
</mask>
<g mask="url(#mask12_506_2022)">
<path d="M556.138 194.117C554.894 196.146 554.443 197.314 555.083 196.798C555.719 196.115 556.814 194.586 557.587 193.077C559.754 189.198 558.624 189.902 556.138 194.117ZM553.98 198.158C553.648 198.17 552.555 199.861 548.199 206.953C547.42 208.301 547.13 209.302 547.294 209.295C547.456 209.29 548.564 207.93 549.65 206.071C553.851 199.153 554.308 198.146 553.98 198.158ZM546.066 211.818C545.902 211.822 544.028 214.697 542.175 218.067C537.68 225.99 537.527 226.322 538.023 226.302C538.186 226.298 539.748 223.931 541.292 221.069C542.996 218.035 544.696 214.837 545.319 213.826C545.934 212.646 546.395 211.806 546.066 211.818ZM537.399 227.318C537.235 227.326 533.974 232.891 530.435 239.786C523.194 253.751 521.039 257.954 521.532 257.937C521.699 257.93 524.787 252.206 528.326 245.309C531.87 238.411 535.575 231.51 536.34 229.998C537.112 228.483 537.728 227.306 537.399 227.318ZM520.908 258.951C520.57 258.633 515.056 270.222 515.095 271.211C515.112 271.707 516.502 269.179 518.188 265.653C519.871 262.123 521.082 259.107 520.908 258.951ZM509.946 270.41C509.966 270.903 510.454 270.721 510.758 270.049C511.23 269.374 511.523 268.373 511.506 267.879C511.491 267.547 511.168 267.726 510.698 268.402C510.394 269.074 509.934 270.079 509.946 270.41ZM508.287 283.507C508.451 283.501 509.356 281.158 510.232 278.154C516.61 258.614 550.774 196.298 572.395 165.135C575.375 160.901 577.707 157.019 577.695 156.69C577.616 154.547 554.84 190.207 542.74 211.115C524.446 242.978 505.155 283.623 508.287 283.507ZM505.402 263.483C509.46 252.771 530.008 214.885 544.655 191.409C563.962 160.166 574.192 146.755 578.338 147.261C579.494 147.381 580.343 148.009 580.534 148.665C580.56 149.323 580.764 150.47 580.784 150.963C580.808 151.623 581.311 151.771 581.79 151.421C582.435 151.069 582.608 151.227 582.315 152.229C582.023 153.231 582.195 153.387 583.003 153.031C583.818 152.667 584.672 153.462 585.22 154.927C586.66 158.173 584.366 163.043 569.127 188.358C556.999 208.441 549.871 221.083 538.923 241.785C533.842 251.705 521.894 276.57 522.232 276.887C522.232 276.887 526.502 271.779 531.542 265.323C543.054 250.871 547.662 246.083 550.466 245.981C551.947 245.925 554.312 247.482 558.752 251.447L564.742 257.165L564.966 263.265C565.088 266.561 564.647 272.515 564.132 276.495C562.839 286.278 563.059 292.213 564.906 292.969C567.408 293.701 574.488 288.818 587.091 277.133C598.586 266.642 601.81 264.545 601.924 267.675C601.962 268.665 576.87 295.169 572.7 298.457C571.092 299.669 568.983 300.573 567.168 300.641C564.532 300.737 563.352 300.121 559.24 295.982C553.083 290.103 551.436 285.71 550.474 273.041C550.115 267.774 549.467 263.671 549.303 263.677C548.807 263.695 543.211 268.519 536.667 274.538C534.114 276.946 527.778 284.107 522.731 290.402C511.2 304.358 510.083 305.387 507.3 301.531C506.598 300.402 505.238 299.295 504.41 299.162C497.907 297.425 498.346 282.391 505.402 263.483Z" fill="#0981F9"/>
</g>
<mask id="mask13_506_2022" style="mask-type:luminance" maskUnits="userSpaceOnUse" x="-727" y="-840" width="2304" height="1728">
<path d="M-727 -840H1577V888H-727V-840Z" fill="white"/>
</mask>
<g mask="url(#mask13_506_2022)">
<path d="M617.551 226.175C614.467 223.154 614.876 220.826 619.207 217.365C624.332 213.214 634.529 207.891 638.791 207.075C642.399 206.445 643.076 206.917 646.224 211.746C646.579 212.394 644.823 213.946 641.592 215.879C638.677 217.473 632.892 221.647 628.889 224.929C624.727 228.383 621.197 231.154 621.035 231.158C621.035 231.158 620.353 230.523 619.833 229.885C619.149 229.25 618.961 228.597 619.117 228.426C619.436 228.085 618.74 227.119 617.551 226.175ZM597.425 270.973C597.443 271.469 598.983 268.609 600.815 264.582C602.652 260.715 605.901 254.821 607.929 251.611C609.948 248.238 611.492 245.371 611.325 245.378C610.304 244.43 597.339 268.67 597.425 270.973ZM596.875 273.966C597.348 273.455 597.652 272.783 597.32 272.631C597.141 272.305 596.665 272.819 596.367 273.653C596.072 274.657 596.08 274.821 596.875 273.966ZM596.795 298.719C588.417 290.783 586.269 281.782 589.945 269.603C594.783 253.087 606.52 235.822 611.693 237.446C612.527 237.581 613.733 239.021 614.281 240.487C614.996 241.943 615.868 243.231 616.528 243.207C618.011 243.151 618.959 246.418 618.237 249.25C618.112 250.41 615.515 255.951 612.915 261.495C606.301 274.606 601.791 286.491 601.475 291.286L601.283 295.09L604.067 294.493C607.673 293.865 614.281 289.661 625.02 281.011C645.052 264.926 649.388 261.63 650.208 261.602C650.704 261.582 651.711 262.042 652.401 262.841C653.271 263.966 652.963 264.635 648.983 268.575C642.127 275.102 618.633 295.769 613.653 299.418C610.117 302.023 608.812 302.403 605.189 302.535C601.068 302.687 600.739 302.702 596.795 298.719Z" fill="#0981F9"/>
</g>
<mask id="mask14_506_2022" style="mask-type:luminance" maskUnits="userSpaceOnUse" x="-727" y="-840" width="2304" height="1728">
<path d="M-727 -840H1577V888H-727V-840Z" fill="white"/>
</mask>
<g mask="url(#mask14_506_2022)">
<path d="M658.167 258.171C655.199 262.738 648.878 274.687 649.7 274.659C649.864 274.651 651.415 271.952 652.94 268.598C656.018 262.543 661.651 254.247 666.383 248.299C667.967 246.587 667.327 247.107 665.107 249.5C663.048 251.886 659.894 255.8 658.167 258.171ZM649.994 269.199C651.983 264.998 654.76 259.784 656.33 257.576C657.731 255.383 658.667 253.864 658.184 254.208C656.735 255.09 651.763 263.524 648.858 269.736C645.05 278.294 645.86 277.932 649.994 269.199ZM644.231 260.667C652.354 243.7 667.322 229.122 677.211 228.756C681 228.616 682.014 229.24 687.686 235.299C692.84 240.887 692.844 245.504 687.676 248.5C685.411 249.74 685.244 249.746 683.872 248.314C683.02 247.519 682.324 246.554 682.134 245.9C681.415 244.279 675.519 249.94 669.046 257.935C659.746 269.666 652.495 283.299 652.243 289.907C652.016 292.72 652.195 293.046 653.846 293.15C657.16 293.523 666.359 287.904 685.324 274.166C697.38 265.47 704.306 260.923 705.143 261.223C706.812 261.823 706.675 262.484 704.287 264.886C699.838 269.507 666.168 296.159 662.282 298.118C656.128 301.315 653.646 301.076 648.379 296.982C645.995 295.09 642.904 291.736 641.672 289.638C637.618 282.69 638.408 272.762 644.231 260.667Z" fill="#0981F9"/>
</g>
<mask id="mask15_506_2022" style="mask-type:luminance" maskUnits="userSpaceOnUse" x="-727" y="-831" width="2304" height="1728">
<path d="M-727 -831H1577V897H-727V-831Z" fill="white"/>
</mask>
<g mask="url(#mask15_506_2022)">
<path d="M718.689 252.891C718.856 252.885 719.655 252.195 720.447 251.343C721.241 250.485 721.703 249.643 721.376 249.655C721.209 249.663 720.416 250.517 719.625 251.372C718.995 252.219 718.523 252.897 718.689 252.891ZM716.352 310.237C715.569 311.42 715.428 312.087 715.912 311.737C716.395 311.391 717.024 310.541 717.488 309.701C718.555 307.349 717.907 307.703 716.352 310.237ZM715.892 306.788C714.655 308.981 713.569 310.835 713.581 311.165C713.605 311.824 716.275 308.096 717.183 305.917C718.872 302.553 718.071 303.076 715.892 306.788ZM713.107 258.047C711.379 260.423 710.276 261.944 710.76 261.6C711.251 261.415 713.151 259.2 714.873 256.829C716.609 254.617 717.7 252.929 717.216 253.276C716.735 253.623 714.833 255.673 713.107 258.047ZM710.196 259.804C712.544 256.256 712.691 255.753 711.096 257.293C709.029 259.352 705.916 264.42 706.573 264.395C706.74 264.388 708.312 262.352 710.196 259.804ZM712.661 295.195L713.211 292.203L709.849 294.965C704.727 299.283 699.349 305.587 696.549 310.144C695.148 312.505 694.069 314.523 694.084 314.853C694.12 315.843 697.392 315.063 700.136 313.479C706.604 309.94 711.616 302.657 712.661 295.195ZM761.703 260.38C763.064 261.485 762.909 261.656 760.629 262.561C754.777 264.923 741.532 272.675 728.809 281.227L720.603 286.812L722.683 289.543C728.591 297.573 727.497 308.175 720.049 316.537C714.192 323.187 707.031 325.927 698.424 325.255C694.616 324.903 693.776 324.439 690.181 320.941C687.951 318.712 686.221 316.465 686.179 315.312C686.155 310.197 692.123 302.056 702.993 292.577L709.389 287.06L706.956 283.688C705.736 281.916 704.015 280 703.34 279.531C702.656 278.895 701.269 277.132 700.377 275.348C696.843 269.041 699.317 260.043 706.937 251.841C716.609 241.251 727.488 236.393 730.315 241.405C733.841 247.547 733.817 246.887 731.421 249.121C719.439 259.795 714.087 266.759 711.869 273.769L710.829 276.943L713.732 279.475L716.631 282.007L726.627 275.7C737.916 268.519 753.781 260.339 757.885 259.693C759.684 259.296 760.844 259.417 761.703 260.38Z" fill="#0981F9"/>
</g>
</g>
<defs>
<clipPath id="clip0_506_2022">
<rect width="878" height="379" fill="white"/>
</clipPath>
</defs>
</svg>
