<svg width="106" height="56" viewBox="0 0 106 56" fill="none" xmlns="http://www.w3.org/2000/svg">
<g clip-path="url(#clip0)">
<path d="M52.1331 37.4503C51.995 37.4125 49.8701 36.8628 47.612 36.8628C43.3369 36.8628 40.7629 39.1785 40.7629 42.6269C40.7629 45.6794 42.9162 47.2017 45.5004 48.0206C45.7869 48.1154 46.209 48.248 46.4901 48.3414C47.6404 48.7044 48.5587 49.2437 48.5587 50.1781C48.5587 51.2229 47.4974 51.8993 45.1904 51.8993C43.163 51.8993 41.2193 51.3177 40.8099 51.2141V55.4568C41.0381 55.5054 43.3481 55.9603 45.8158 55.9603C49.3652 55.9603 53.4254 54.4046 53.4254 49.7733C53.4254 47.5269 52.0542 45.4588 49.044 44.499L47.7643 44.0903C47.0009 43.8486 45.638 43.4571 45.638 42.3346C45.638 41.448 46.6478 40.8236 48.5072 40.8236C50.1115 40.8236 52.064 41.3644 52.1331 41.3861V37.4503ZM91.3301 46.4118C91.3301 49.0944 89.2816 51.2647 86.5329 51.2647C83.7812 51.2647 81.7381 49.0944 81.7381 46.4118C81.7381 43.7346 83.7812 41.5634 86.5329 41.5634C89.2816 41.5634 91.3301 43.7346 91.3301 46.4118ZM86.5329 36.8687C80.8796 36.8687 76.8253 41.1459 76.8253 46.4118C76.8253 51.6861 80.8796 55.9603 86.5329 55.9603C92.1856 55.9603 96.2458 51.6861 96.2458 46.4118C96.2458 41.1459 92.1856 36.8687 86.5329 36.8687ZM34.5431 55.6322H29.9045V37.1954H34.5431V55.6322Z" fill="#191C1F"/>
<path d="M23.5463 37.5304C23.1105 37.4007 21.4993 36.8697 19.3172 36.8697C13.6727 36.8697 9.5293 40.9066 9.5293 46.4128C9.5293 52.3532 14.1032 55.9612 19.3172 55.9612C21.3886 55.9612 22.9699 55.469 23.5463 55.305V50.3558C23.347 50.4669 21.8308 51.3344 19.6497 51.3344C16.5596 51.3344 14.5665 49.1528 14.5665 46.4128C14.5665 43.5892 16.6458 41.4951 19.6497 41.4951C21.8681 41.4951 23.3597 42.3817 23.5463 42.4795" fill="#191C1F"/>
<path d="M71.9543 37.5304C71.5184 37.4007 69.9073 36.8697 67.7251 36.8697C62.0807 36.8697 57.9373 40.9066 57.9373 46.4128C57.9373 52.3532 62.5112 55.9612 67.7251 55.9612C69.7966 55.9612 71.3779 55.469 71.9543 55.305V50.3558C71.7549 50.4669 70.2388 51.3344 68.0576 51.3344C64.9675 51.3344 62.9744 49.1528 62.9744 46.4128C62.9744 43.5892 65.0537 41.4951 68.0576 41.4951C70.276 41.4951 71.7677 42.3817 71.9543 42.4795" fill="#191C1F"/>
<path d="M29.9023 2.33626C29.9023 1.06545 28.8676 0.0348511 27.5992 0.0348511C26.3314 0.0348511 25.2966 1.06545 25.2966 2.33626V26.8191C25.2966 28.0972 26.3314 29.1274 27.5992 29.1274C28.8676 29.1274 29.9023 28.0972 29.9023 26.8191V2.33626ZM17.2536 11.0271C17.2536 9.75675 16.2193 8.72468 14.9509 8.72468C13.6826 8.72468 12.6483 9.75675 12.6483 11.0271V22.2197C12.6483 23.4974 13.6826 24.528 14.9509 24.528C16.2193 24.528 17.2536 23.4974 17.2536 22.2197V11.0271ZM4.60526 17.3796C4.60526 16.1088 3.57098 15.0787 2.30263 15.0787C1.03574 15.0787 0 16.1088 0 17.3796V22.2197C0 23.4974 1.03574 24.528 2.30263 24.528C3.57098 24.528 4.60526 23.4974 4.60526 22.2197V17.3796Z" fill="#191C1F"/>
<path d="M25.2978 2.33906C25.2978 1.06826 26.3326 0.0376587 27.6009 0.0376587C28.8688 0.0376587 29.9036 1.06826 29.9036 2.33906V26.8219C29.9036 28.1001 28.8688 29.1302 27.6009 29.1302C26.3326 29.1302 25.2978 28.1001 25.2978 26.8219V2.33906ZM37.9466 11.0299C37.9466 9.75956 38.9809 8.72749 40.2492 8.72749C41.5176 8.72749 42.5519 9.75956 42.5519 11.0299V22.2225C42.5519 23.5002 41.5176 24.5308 40.2492 24.5308C38.9809 24.5308 37.9466 23.5002 37.9466 22.2225V11.0299ZM50.5949 17.3824C50.5949 16.1116 51.6292 15.0815 52.8976 15.0815C54.1645 15.0815 55.2002 16.1116 55.2002 17.3824V22.2225C55.2002 23.5002 54.1645 24.5308 52.8976 24.5308C51.6292 24.5308 50.5949 23.5002 50.5949 22.2225V17.3824Z" fill="#191C1F"/>
<path d="M75.8751 2.33906C75.8751 1.06826 76.9098 0.0376587 78.1782 0.0376587C79.446 0.0376587 80.4808 1.06826 80.4808 2.33906V26.8219C80.4808 28.1001 79.446 29.1302 78.1782 29.1302C76.9098 29.1302 75.8751 28.1001 75.8751 26.8219V2.33906ZM88.5238 11.0299C88.5238 9.75956 89.5581 8.72749 90.8264 8.72749C92.0948 8.72749 93.1291 9.75956 93.1291 11.0299V22.2225C93.1291 23.5002 92.0948 24.5308 90.8264 24.5308C89.5581 24.5308 88.5238 23.5002 88.5238 22.2225V11.0299ZM101.172 17.3824C101.172 16.1116 102.206 15.0815 103.475 15.0815C104.742 15.0815 105.777 16.1116 105.777 17.3824V22.2225C105.777 23.5002 104.742 24.5308 103.475 24.5308C102.206 24.5308 101.172 23.5002 101.172 22.2225V17.3824Z" fill="#191C1F"/>
<path d="M80.4794 2.33906C80.4794 1.06826 79.4447 0.0376587 78.1763 0.0376587C76.9085 0.0376587 75.8737 1.06826 75.8737 2.33906V26.8219C75.8737 28.1001 76.9085 29.1302 78.1763 29.1302C79.4447 29.1302 80.4794 28.1001 80.4794 26.8219V2.33906ZM67.8307 11.0299C67.8307 9.75956 66.7964 8.72749 65.528 8.72749C64.2597 8.72749 63.2254 9.75956 63.2254 11.0299V22.2225C63.2254 23.5002 64.2597 24.5308 65.528 24.5308C66.7964 24.5308 67.8307 23.5002 67.8307 22.2225V11.0299ZM55.1824 17.3824C55.1824 16.1116 54.1481 15.0815 52.8798 15.0815C51.6129 15.0815 50.5771 16.1116 50.5771 17.3824V22.2225C50.5771 23.5002 51.6129 24.5308 52.8798 24.5308C54.1481 24.5308 55.1824 23.5002 55.1824 22.2225V17.3824Z" fill="#191C1F"/>
</g>
<defs>
<clipPath id="clip0">
<rect width="105.778" height="56" fill="white"/>
</clipPath>
</defs>
</svg>
