<svg width="106" height="56" viewBox="0 0 106 56" fill="none" xmlns="http://www.w3.org/2000/svg">
<g clip-path="url(#clip0)">
<path d="M88.2064 41.5903C88.2048 41.5903 87.8818 41.8837 87.8818 41.8837C87.4203 42.3042 86.9454 42.7543 86.3721 42.5292C86.2138 42.4705 86.1024 42.2555 86.0756 42.0887C86.0496 40.8852 86.5814 39.7701 87.0971 38.6844L87.2293 38.4004C88.7128 35.8763 90.4371 32.9022 92.9695 30.8381C93.3963 30.5244 93.8594 30.2607 94.3482 30.4663C94.4606 30.5737 94.5915 30.7598 94.5915 30.9455C94.5915 31.0044 94.5402 31.1608 94.5106 31.2095C93.8033 32.3743 93.1297 33.5971 92.4746 34.771C91.1945 37.0899 89.8665 39.4866 88.2063 41.5905L88.2064 41.5903ZM74.4847 35.6418C74.3878 35.7107 72.677 35.1234 72.3464 33.5092C72.0659 32.1194 73.005 31.0334 73.9137 30.486C74.3037 30.1728 74.8912 30.0654 75.3221 30.2213C75.7221 30.4956 75.8305 30.9852 75.8305 31.5127C75.8305 31.8362 75.7884 32.1686 75.7512 32.4718C75.7512 32.4718 75.7441 32.5307 75.743 32.5405C75.4579 33.6261 75.0217 34.6927 74.4847 35.6419L74.4847 35.6418ZM67.9495 42.2068C67.775 41.9427 67.7172 41.6538 67.7114 41.3415C67.6779 39.4231 69.7033 35.9877 71.133 34.1161H71.1362C71.7353 35.4529 73.092 36.3123 73.911 36.6744C72.8938 38.9835 69.4051 43.9287 67.9499 42.2068H67.9495ZM92.641 42.5475C92.3024 42.7822 91.8267 42.6017 92.0046 42.0638C92.4476 40.694 94.209 37.9027 94.209 37.9027L99.1149 29.0356H95.7544C95.5947 29.303 95.2531 29.917 95.2531 29.917C95.0976 29.6531 94.6328 29.0662 94.4413 28.9395C93.6204 28.4107 92.4158 28.6607 91.5848 29.14C87.9721 31.2928 85.3361 35.5462 83.2571 38.8627C83.2571 38.8627 81.0688 42.5497 79.854 42.8239C78.9056 42.9023 79.0035 41.6004 79.0445 41.2971C79.4112 39.1052 80.2628 37.0214 81.1207 35.1332C82.8656 33.9005 84.857 32.2862 86.6668 30.5154C90.5943 26.6896 93.9052 22.3552 94.389 21.3868C94.389 21.3868 93.8652 21.4946 93.2466 21.514C90.2251 25.809 84.042 32.0516 82.1676 32.9804C82.998 30.9451 88.3633 21.23 92.9292 16.5831L93.6476 15.8784C94.7585 14.7728 95.9097 13.638 96.8067 13.452C96.9014 13.4423 97.0235 13.452 97.1288 13.6774C97.1688 14.5382 96.8544 15.1743 96.4936 15.8982L95.988 16.955C95.988 16.955 96.7042 16.818 97.1745 16.661C97.7202 15.6147 98.3246 14.4403 98.1018 13.0415C98.0274 12.5914 97.7077 12.249 97.2899 12.1706C95.9279 11.9065 94.4436 12.9335 93.2492 13.7654L93.2009 13.7945C87.0614 18.6962 81.8769 25.7604 77.3441 35.4072C77.0156 35.6612 75.7463 35.9648 75.5305 35.8178C75.9782 34.8788 76.5417 33.6164 76.8238 32.2467C76.8726 31.8553 76.918 31.4544 76.918 31.0631C76.918 30.221 76.7196 29.4288 75.9793 28.8811C75.1114 28.4407 74.0387 28.6463 73.3154 28.9788C70.0754 30.3485 67.6539 33.734 65.9065 36.5219C64.9667 38.2932 64.0296 40.1903 63.7701 42.3628C63.5874 44.0649 63.9594 45.1607 64.9091 45.7088C65.8858 46.2172 67.115 45.6888 67.5979 45.4346C70.8803 43.6736 73.1739 40.1419 74.9817 36.913C75.0535 36.9034 76.0406 36.8742 76.7872 36.6782C76.7972 36.6782 76.8014 36.6782 76.8179 36.6885C76.7751 36.8346 76.3893 38.0091 76.3893 38.0091C75.2435 41.4331 74.7137 43.7618 75.7959 45.1414C77.3425 47.0885 79.9029 45.0733 81.9859 42.4116C81.5388 45.6011 83.1609 46.1002 84.3974 45.8559C85.8177 45.4647 87.4005 43.9185 88.135 43.1263C87.8992 44.0555 87.9633 45.719 89.2554 45.8851C90.1411 46.052 90.8038 45.5611 91.5707 45.1402C94.3215 43.6138 97.6147 38.5276 98.4696 37.0571H97.3486C96.1333 38.9288 94.5867 41.3829 92.6413 42.5478L92.641 42.5475ZM50.2618 23.5545H53.4102L55.1871 20.6134H52.038L50.2618 23.5545ZM100.554 15.7414C98.1536 17.1309 95.6652 18.0308 92.6526 17.7178C91.8177 18.6769 91.0049 19.6649 90.2556 20.6823C94.4836 21.7781 98.9659 19.342 101.466 17.0235C104.11 14.6851 105.466 11.7404 105.466 11.7404C105.466 11.7404 103.484 14.0491 100.554 15.7414L100.554 15.7414ZM74.0807 14.9981C73.58 20.8487 69.1172 24.2834 68.013 24.5566C67.3438 24.6934 66.202 24.3903 67.2212 21.9349C68.7224 18.6276 71.2853 15.8201 74.0351 14.3816C74.102 14.6263 74.1003 14.7824 74.0806 14.9979L74.0807 14.9981ZM65.3845 29.742C65.0648 29.0377 64.3057 28.5876 63.4969 28.6364C60.8701 28.8812 58.3008 31.0824 56.9517 34.2427C56.2438 35.8669 55.8575 37.2072 55.6041 39.3399C56.4209 38.3814 58.087 36.8063 59.9777 35.9453C59.9777 35.9453 60.2349 33.9005 61.5468 32.0807C62.0432 31.3271 63.0366 30.114 64.1521 30.4368C65.1267 30.7697 64.7842 33.5189 63.4889 36.1794C62.5304 38.1364 61.0637 40.0937 59.5797 41.4435C58.2678 42.5785 56.3266 43.9481 54.6282 42.8916C53.5585 42.2461 53.0129 40.8956 53.1282 39.1542C53.6393 34.2136 55.8463 30.0063 59.0044 25.2124C62.2609 20.7607 65.8508 16.1918 70.6868 13.755C71.6733 13.2463 72.5867 13.1289 73.3763 13.442C73.3763 13.442 68.8367 15.9858 66.6726 20.6921C66.1222 21.8859 65.3565 23.4997 66.1275 24.9283C66.5304 25.6717 67.2458 25.7305 67.8217 25.6914C70.4742 25.0651 72.1878 22.5409 73.5881 20.2322C74.3999 18.4809 75.1214 16.7394 75.1214 14.8019C75.1214 14.5671 75.1095 14.2542 75.09 14.0191C76.3572 13.3345 78.9558 14.5474 78.9558 14.5474C80.9865 15.2326 85.3105 18.6082 86.7688 19.2536C87.4802 18.4123 88.6494 17.1406 89.3076 16.5045L88.3547 15.9076C86.829 14.9586 85.2163 14.0584 83.6289 13.1681C80.024 11.1627 77.0895 11.867 75.596 12.4149C75.0091 12.63 74.4726 12.816 74.4726 12.816C73.3644 11.5833 71.5468 11.7004 70.2075 12.0333C65.3911 13.4421 60.9194 16.876 56.1253 22.8346C52.6006 27.5015 50.4139 31.5327 49.249 35.5144C48.3507 38.1949 48.0778 42.1377 50.2702 44.4761C52.1342 46.4616 54.6059 46.0315 56.3515 45.3175C60.1332 43.4194 63.5322 39.3295 65.226 34.6237C65.6347 33.2249 66.0883 31.2486 65.3846 29.7417L65.3845 29.742ZM23.4649 25.2027C23.4586 25.2222 22.8226 26.7092 22.8226 26.7092C22.7307 26.7874 22.5853 26.7484 22.4187 26.7092L22.1332 26.66C21.2369 26.3764 20.5607 25.7697 20.3522 25.0458C20.0647 23.6369 21.2458 22.5314 21.7662 22.1304C22.2655 21.7779 23.0417 21.5921 23.4925 21.9542C23.7705 22.287 23.8758 22.7173 23.8758 23.1872C23.876 23.823 23.6834 24.5372 23.465 25.2027H23.4649ZM22.0987 28.0299C22.0987 28.0299 22.0699 28.1182 22.0556 28.1471C22.0519 28.1471 20.6099 30.5438 20.6099 30.5438C19.7396 31.7278 18.653 33.2154 17.2947 33.9293C16.8921 34.0663 16.3355 34.1545 16.052 33.7928C15.4507 33.0588 15.7606 32.0414 16.0123 31.2196L16.1014 30.926C16.8232 28.9304 17.9685 27.1689 19.0831 25.5348C19.097 25.5251 19.1283 25.5154 19.1396 25.5154C19.1422 25.5252 19.1466 25.5252 19.1486 25.5448C19.8481 26.9143 21.1597 27.55 22.1406 27.8439C22.1465 27.8439 22.1528 27.8537 22.1528 27.8733C22.153 27.9025 22.1369 27.9419 22.0988 28.0296L22.0987 28.0299ZM40.1375 26.4548C40.7825 25.5451 42.66 23.1088 43.1177 22.698C44.657 21.3179 45.2723 21.9251 45.3256 22.3553C43.8889 24.9773 42.1933 27.9808 40.5991 30.6812C40.6023 30.6716 40.1002 31.4541 40.1002 31.4541C39.3961 32.5496 38.6872 33.4889 37.5308 34.1443C37.3659 34.1935 37.0941 34.2132 36.9132 34.0758C36.6954 33.929 36.6095 33.6843 36.634 33.4298C36.7033 32.5886 37.5438 30.016 40.1375 26.4546L40.1375 26.4548ZM24.151 20.5063C22.1609 19.1758 18.161 21.7195 14.9574 26.0826C12.0278 29.9965 10.7627 34.5454 12.1394 36.6491C14.1874 39.1243 17.9893 35.524 19.6061 33.5969L19.8147 33.3716C20.9141 32.1682 21.7636 30.7201 22.5858 29.3307C22.5858 29.3307 23.3414 28.0588 23.3775 28C23.8445 27.9123 24.4071 27.7753 25.041 27.5893C25.0319 27.6185 22.6157 31.7571 22.8622 33.8116C22.9389 34.4383 22.8803 36.7276 25.0738 37.4222C27.9971 37.9215 30.3317 35.6122 32.3909 33.5576C32.3909 33.5576 32.7418 33.2155 32.9403 33.0202C32.8901 33.2251 32.8246 33.4985 32.8246 33.4985C31.9687 36.5315 33.1224 37.1679 33.844 37.4027C36.025 38.0488 38.6305 34.8199 38.6389 34.8199C38.5714 35.837 38.3738 36.6784 39.426 37.3535C40.419 37.7158 41.4241 37.1636 42.188 36.645C44.9397 34.6687 47.1564 31.5757 48.9467 28.9019H47.8046C47.7911 28.9019 44.9863 33.0446 43.1651 33.945C43.1624 33.945 42.8308 34.1184 42.6398 33.9812C42.4034 33.7756 42.4967 33.3483 42.6424 33.0457C42.6516 33.0259 49.6746 20.6134 49.6746 20.6134H46.3587C46.3587 20.6134 45.9965 21.2106 45.967 21.2498C45.9447 21.2303 45.8915 21.1276 45.8547 21.0784C43.8003 18.1825 39.1478 22.6369 35.6451 27.8023C34.2966 29.7886 32.5798 32.025 30.7996 33.6395C30.7996 33.6395 28.1623 36.1031 27.0355 34.3331C26.6236 33.5893 26.7503 32.5021 26.9826 31.7881C28.2946 27.9822 30.5554 24.5285 33.1279 22.444C33.8542 21.8672 34.6435 21.7003 35.0353 21.945C35.4085 22.1704 35.4688 22.7276 35.2326 23.1092C34.6335 23.0897 34.1535 23.2753 33.7632 23.6862C32.9944 24.5081 32.7274 25.3007 32.9718 26.0444C34.1592 27.7663 36.5272 24.3615 36.4127 22.2873C36.3717 21.5436 35.9824 20.8393 35.4014 20.4966C34.5354 19.9685 33.2143 20.1053 32.3594 20.5263C31.2149 20.9664 29.4032 22.5022 28.3457 23.6961C27.0144 25.1933 24.7312 26.8563 24.0171 26.6701C24.2511 26.0338 26.1796 22.0129 24.1508 20.5066L24.151 20.5063ZM40.8181 42.2751C36.9129 39.7116 31.613 39.2617 23.0659 41.6782C13.9541 43.8603 10.9158 45.259 6.92615 42.4511C5.39336 41.0717 4.84379 38.8507 5.25419 35.6518C6.20598 30.4367 8.77799 25.4179 13.3469 19.8513C15.897 16.9554 18.2625 14.4701 21.386 13.4723C23.7799 12.8462 23.5561 14.7635 23.2665 15.0376C22.9608 15.0376 22.4473 15.0867 22.0505 15.3506C21.7285 15.6051 20.8444 16.427 20.7969 17.5326C20.7284 19.225 22.4472 18.8728 23.1886 17.9435C23.9877 16.8964 25.1686 14.8911 24.2397 13.0221C23.8503 12.3569 23.1776 11.8972 22.3423 11.7406C19.4821 11.5741 16.8182 12.9634 14.3598 14.4995C8.98479 18.3052 4.68395 23.5789 2.25069 29.3514C0.847611 32.8343 -0.421232 37.8233 1.48077 41.8841C2.95207 44.7017 6.00663 46.1983 9.65112 45.8854C12.2071 45.6117 15.2974 44.7699 17.3765 44.2616C19.4551 43.7525 30.0953 40.0253 33.5917 46.5123C33.5917 46.5123 34.7543 44.2125 37.6597 44.1635C40.0484 43.9389 43.4944 44.8682 46.0037 46.7463C45.1677 45.465 42.7974 43.5768 40.82 42.2753L40.8181 42.2751Z" fill="#191C1F"/>
</g>
<defs>
<clipPath id="clip0">
<rect width="106" height="36.0889" fill="white" transform="translate(0 11.2007)"/>
</clipPath>
</defs>
</svg>
