<svg width="106" height="56" viewBox="0 0 106 56" fill="none" xmlns="http://www.w3.org/2000/svg">
<g clip-path="url(#clip0)">
<g clip-path="url(#clip1)">
<path d="M35.4101 49.235C35.3287 48.971 35.0908 48.3776 35.026 47.9395C34.883 46.9692 35.3819 46.3301 35.84 46.1838C36.3542 46.0379 36.555 46.3005 36.754 46.9108C37.0113 47.8402 37.04 49.0581 36.9534 50.8016C36.841 53.1832 35.6693 56.0594 32.7567 55.9996C30.2425 55.9436 29.13 54.2877 29.0143 51.7611C28.9597 50.5701 29.0435 49.3795 29.5284 47.6957C29.7857 46.7941 30.0153 46.4732 30.8135 46.3005C31.441 46.1838 31.3846 46.851 31.2425 47.6379C30.9297 49.3795 30.7844 50.2204 30.9001 52.1964C31.0121 54.2877 31.9565 55.1013 32.9848 55.1013C34.5272 55.1314 35.2121 53.8246 35.499 51.9347C35.7253 50.4251 35.5545 49.699 35.4101 49.235ZM68.2958 51.2976C68.8964 51.2976 69.0686 52.0199 68.9251 52.4576C68.7817 52.8924 68.2685 53.3884 67.4693 53.5328C67.2971 53.0961 67.211 51.2976 68.2958 51.2976ZM57.1312 52.282C57.1312 51.7903 56.8725 51.3832 56.5611 51.3832C56.301 51.3832 55.7036 51.6726 55.7036 52.6025C55.7036 53.331 55.9581 53.6764 56.0747 53.8246C56.9007 53.562 57.1312 52.8632 57.1312 52.282ZM48.2471 46.3583C48.2069 45.8925 47.8477 45.5753 47.3619 45.5753C46.82 45.5753 46.3095 46.1536 46.3637 46.8802C46.3984 47.3593 46.676 47.7531 47.2216 47.7531C47.8477 47.7536 48.3045 47.0275 48.2471 46.3583ZM52.8918 48.0642C52.8423 47.252 52.6489 46.8854 52.2199 46.9155C51.6512 46.9503 51.3883 48.7701 51.5045 50.683C51.5785 51.931 51.7613 52.1235 51.9316 52.1112C52.2463 52.0919 53.0011 49.8623 52.8918 48.0642ZM71.8377 51.1216C71.4837 52.6147 70.4106 54.8114 68.8094 54.8114C68.4387 54.8114 67.7816 54.6651 67.7816 54.2877C67.7816 53.8806 70.2967 53.8246 70.2967 51.8773C70.2967 51.1522 69.6401 50.1343 68.6683 50.1343C67.3832 50.1343 66.1296 51.5588 66.1296 53.5333C66.1296 55.3037 67.211 55.8848 68.2962 55.8848C70.182 55.8848 71.3245 54.3154 71.9238 53.0096C72.2107 53.8811 72.3792 55.8848 73.096 55.8848C73.3806 55.8848 73.5819 55.7394 73.9248 54.9564C74.7795 53.0091 75.6088 50.7729 76.7518 50.7729C77.1789 50.7729 76.923 51.5587 77.9508 51.5587C78.4353 51.5587 78.7768 51.1522 78.7768 50.6853C78.7768 50.0167 78.178 49.4957 77.265 49.4957C74.5796 49.4957 74.0104 53.5912 73.5814 53.5912C72.8669 53.5912 73.0955 50.3089 72.5805 50.3089C72.1232 50.3084 71.8988 50.8623 71.8377 51.1216ZM48.9903 54.6062C49.4184 54.6062 50.1546 54.4651 50.734 53.5216C50.4027 52.7733 50.1662 51.2613 50.1333 50.7108C49.963 47.8953 51.0297 45.2468 52.1972 45.1734C53.0533 45.1207 53.7382 45.9447 53.8169 47.2797C54.0275 50.7879 52.8784 52.2524 52.3032 53.5159C52.4004 54.0058 53.2176 54.8397 53.9886 54.8397C54.2732 54.8397 54.6175 54.6942 54.704 54.5766C54.6466 54.3747 54.5883 54.1135 54.5883 53.7347C54.5883 51.7018 55.8739 49.9875 56.9882 49.9875C57.8735 49.9875 58.3876 51.178 58.3876 51.9639C58.3876 52.8919 57.6157 53.6486 56.4741 54.3747C56.6749 54.5766 57.0442 54.7234 57.3598 54.7234C58.9892 54.7234 59.8416 52.7187 60.4728 50.8882C60.5866 50.539 60.7879 50.0463 61.1868 50.0463C61.8722 50.0463 62.1591 54.6354 63.2984 54.6354C63.7857 54.6354 64.1846 53.618 64.1846 52.8359C64.1846 52.2543 63.9847 52.1959 63.9847 51.3536C63.9847 50.4251 64.4706 49.6416 65.1291 49.6416C65.5284 49.6416 65.6728 50.0463 65.6728 50.539C65.6728 52.3983 64.3572 55.8552 62.4178 55.8552C60.9587 55.8552 61.0725 53.299 60.5589 53.299C59.985 53.299 59.1854 55.8839 56.3607 55.8839C55.9016 55.8839 55.4171 55.6519 55.0182 55.186C54.3338 55.6519 53.7609 55.8552 53.1038 55.8552C52.0482 55.8552 51.5901 54.7512 51.163 54.7512C50.6479 54.7512 50.0783 55.8839 48.3628 55.8839C46.9921 55.8839 46.7635 54.027 46.279 54.027C45.8496 54.027 45.1929 55.8839 44.4793 55.8839C43.278 55.8839 43.0235 52.6609 41.9647 52.6609C41.1368 52.6609 38.5199 55.9342 37.8095 55.8594C37.524 55.8293 37.4037 55.6124 37.4338 55.3215C37.474 54.9197 37.8142 53.8439 37.9521 53.3352C38.183 52.4519 38.3949 51.4839 38.5134 51.1752C38.6309 50.8637 38.9479 50.6416 39.2025 50.6656C39.3306 50.6778 39.3691 50.9211 39.4088 51.1221C39.5532 51.8402 39.7545 52.5724 39.9817 52.5724C40.383 52.5724 41.7078 49.987 42.4788 49.987C43.4228 49.987 43.5357 54.0543 44.8204 54.0543C45.2498 54.0543 45.565 53.5324 45.8495 52.8914C45.8787 51.8152 46.1642 50.2792 47.0208 50.2792C47.621 50.2792 47.907 51.643 47.4771 52.8354C47.4762 54.2575 48.3892 54.6062 48.9903 54.6062Z" fill="#191C1F"/>
<path d="M68.8833 9.06078C68.6714 9.06078 68.3678 9.06078 68.2008 8.72243C68.0638 8.44478 68.1101 7.99725 67.8523 7.79725C68.1101 7.87396 68.3826 7.87396 68.5946 7.87396C69.2776 7.87396 69.9301 7.39631 70.4308 7.39631C70.7608 7.39631 70.8672 7.61231 70.8672 7.82737C70.8677 8.50643 69.521 9.06078 68.8833 9.06078ZM69.2165 10.8024C70.7913 10.8024 72.2333 9.52337 72.2333 8.39866C72.2333 7.87396 71.9898 7.4429 71.3684 7.36572C71.4743 7.50455 71.5197 7.61231 71.5197 7.8589C71.5197 8.7069 70.2494 9.64714 68.8685 9.64714C68.3678 9.64714 68.216 10.001 68.216 10.186C68.216 10.618 68.626 10.8024 69.2165 10.8024ZM69.0957 11.45C69.2933 12.9135 71.4743 14.8867 72.0653 14.8401C72.4605 14.8062 72.6118 12.929 72.6118 11.45C72.6118 10.6024 72.6576 9.93937 72.2175 9.78502C71.5192 11.2189 69.6876 11.5116 69.0957 11.45Z" fill="#191C1F"/>
<path d="M34.9845 21.1431C35.4991 21.1431 35.3931 17.937 36.2266 17.937C36.4242 17.937 36.4848 18.1375 36.4848 18.384C36.4848 19.1083 36.1359 20.1723 36.1359 20.7572C36.1359 21.0504 36.2117 21.1431 36.3483 21.1431C36.7125 21.1431 37.3487 17.6132 37.9698 17.6132C38.1669 17.6132 38.2576 17.8137 38.2576 18.0142C38.2576 18.7539 37.3339 20.8805 37.3339 21.4815C37.3339 21.5742 37.3636 21.6509 37.4399 21.6509C37.8189 21.6509 38.5764 19.9869 38.8185 19.1549C38.955 18.7229 39.1369 18.4913 39.3039 18.4913C39.4552 18.4913 39.5922 18.6612 39.5922 19.016C39.5922 19.848 38.8337 21.8052 38.1669 23.1158C37.6523 24.1328 36.849 25.5958 36.849 26.4127C36.849 26.8292 36.9235 27.2603 37.5149 27.7845C36.5449 27.7229 36.1511 27.6306 35.7879 26.8603C34.1659 30.1426 38.7731 29.8193 37.197 32.7309C36.9087 32.208 34.636 31.6683 34.636 28.617C34.636 25.9817 36.9087 24.4405 36.9087 23.3469C36.9087 23.1313 36.8337 22.9464 36.6366 22.777C36.1359 22.3445 36.1206 21.9911 35.7268 21.9911C35.4394 21.9911 35.0896 22.6688 35.4537 23.2697C35.5754 23.4702 35.6814 23.5935 35.6814 23.7784C35.6814 24.2095 35.0141 25.3648 34.5449 25.3648C34.0747 25.3648 33.7119 24.1798 33.7119 22.2678C33.7119 20.5718 34.09 18.8622 34.5602 18.8622C34.6962 18.8622 34.7416 18.9544 34.7416 19.0782C34.7416 19.2786 34.6814 19.6786 34.6814 20.3567C34.6814 21.081 34.848 21.1431 34.9845 21.1431Z" fill="#191C1F"/>
<path d="M38.8481 25.6585C39.4854 25.6585 40.0152 25.1799 40.0152 24.1182V22.5455C40.0152 21.9446 40.061 21.2669 40.4553 20.7883C40.4095 20.9893 40.4095 21.2048 40.4095 21.4053C40.4095 22.7309 41.1365 23.6406 41.1365 24.9192C41.1365 25.3963 41 25.6589 40.6372 25.6589C40.2883 25.6589 40.3188 25.3352 40.2424 25.3352C40.1823 25.3352 40.0911 25.5352 40.0911 25.7512C40.0911 26.0749 40.3183 26.5832 40.9546 26.5832C41.5007 26.5832 41.9394 26.0749 41.9394 25.5046C41.9394 24.1187 40.8787 22.5766 40.8787 21.0975C40.8787 20.45 41.0453 20.0189 41.1818 19.6791C41.1818 22.7464 43.7428 24.9808 43.7428 26.2594C43.7428 26.5526 43.5308 26.7841 43.2124 26.7841C42.864 26.7841 42.6969 26.506 42.6969 26.29C42.6969 26.1822 42.6817 26.1516 42.6363 26.1516C42.5461 26.1516 42.273 26.4599 42.273 26.8613C42.273 27.3691 42.6817 27.9865 43.4397 27.9865C44.3027 27.9865 44.7729 27.2458 44.7729 26.5832C44.7729 24.9657 41.6664 22.5149 41.6664 19.8956C41.6664 19.4481 41.7413 18.7238 42.0606 18.1695C40.0601 19.4787 39.4391 21.2208 39.4391 22.7464C39.4391 24.0721 39.3937 24.7337 38.7269 24.7337C38.378 24.7337 38.2873 24.4109 38.1656 24.4109C38.0749 24.4109 38.0291 24.6881 38.0291 24.7648C38.03 25.3347 38.4395 25.6585 38.8481 25.6585Z" fill="#191C1F"/>
<path d="M61.8063 8.30618C61.9988 8.17488 62.853 8.38288 63.9576 7.82759C64.0937 7.75182 64.2302 7.72076 64.3514 7.72076C64.8827 7.72076 64.7462 8.33677 65.2316 8.33677C65.6097 8.33677 66.096 8.013 66.3843 8.013C66.836 8.013 67.488 9.46195 67.488 10.1401C67.488 10.926 66.3233 11.4041 64.9433 11.4041C62.9289 11.4041 61.7151 9.6163 61.7151 8.46006C61.7156 8.36782 61.7614 8.33677 61.8063 8.30618ZM65.1104 10.2634C65.7777 10.2634 66.2779 9.95512 66.2779 9.76971C66.2779 9.70901 66.1872 9.66242 65.9896 9.66242C65.7925 9.66242 65.3982 9.64736 64.655 9.52359C64.0173 9.41583 63.5324 9.16924 63.3505 9.16924C63.2899 9.16924 63.2593 9.19983 63.2593 9.24595C63.2593 9.64736 63.9877 10.2634 65.1104 10.2634Z" fill="#191C1F"/>
<path d="M39.1657 31.4681C38.6659 31.5918 37.8621 32.3918 37.8621 33.6572C37.8621 35.1664 39.4535 37.4944 42.075 37.4944C44.287 37.4944 44.8331 35.9377 44.8331 34.8888C44.8331 32.5622 43.4244 30.9283 41.591 30.9283C40.5905 30.9283 39.696 31.6681 39.696 32.7617C39.696 33.7801 40.454 35.3052 42.2569 35.3052C43.1056 35.3052 43.6054 34.6878 43.6054 33.981C43.6054 33.2869 42.9844 32.3321 42.0746 32.3321C41.802 32.3321 41.6053 32.5151 41.6053 32.8092C41.6053 33.1782 42.1046 33.549 42.7266 33.549C42.8775 33.549 42.9992 33.5179 43.0602 33.4869C43.0899 33.5344 43.1056 33.6106 43.1056 33.6723C43.1056 34.0271 42.7719 34.2431 42.2569 34.2431C41.4841 34.2431 40.7414 33.6577 40.7414 32.7311C40.7414 32.1777 41.2115 31.7772 41.8932 31.7772C43.2416 31.7772 44.0445 32.9942 44.0445 34.2125C44.0445 35.3057 43.4545 35.9386 42.2416 35.9386C39.8168 35.9382 38.6358 33.7184 39.1657 31.4681Z" fill="#191C1F"/>
<path d="M56.4651 40.4978C57.1921 40.4978 57.1541 40.4361 57.3818 40.4361C57.6086 40.4361 57.6243 40.575 57.6243 40.6677C57.6243 41.007 56.8811 41.423 55.5627 41.423C54.7899 41.423 54.3197 41.0065 54.1837 40.5444C53.4261 41.0375 52.2748 41.4846 51.1378 41.4846C48.0317 41.4846 47.2436 40.1119 46.2732 39.6663C45.5305 39.327 44.3939 39.99 42.8025 38.1867C43.0149 38.2333 43.3032 38.2484 43.5304 38.2484C44.9238 38.2484 45.6665 37.5562 45.6665 36.4456C45.6665 36.3063 45.6513 36.1538 45.636 36.0155C46.0608 36.1849 47.0312 36.9237 47.2589 38.2333C47.2885 38.3877 47.9095 38.526 48.3038 38.526C48.8499 38.526 49.5468 38.2945 49.6528 37.3863C51.4714 37.2324 52.6996 36.1388 52.9573 34.7501C53.608 34.9661 54.3507 35.567 54.5326 35.8762C54.7903 35.7839 55.093 35.7373 55.4414 35.7373C55.9264 35.7373 56.4725 35.8301 57.1236 36.0305C57.1541 35.8301 57.1842 35.5835 57.4878 35.5835C57.9422 35.5835 57.821 36.0922 57.9727 36.3835C58.0486 36.5378 58.4281 36.63 58.4281 36.9388C58.4281 37.2324 58.1842 37.3406 58.0329 37.3406C57.9723 37.3406 57.8964 37.3251 57.8506 37.31C57.5479 37.4178 57.5322 39.6357 56.2596 39.6357C55.3207 39.6357 54.4567 38.8498 54.0772 37.8644C53.9712 37.5717 53.744 37.3863 53.5316 37.3863C53.2896 37.3863 53.1531 37.4329 52.8657 37.7566C52.0475 38.6649 50.6833 39.4507 49.0012 39.4507C48.4857 39.4507 48.0766 39.4037 47.9701 39.4037C47.9091 39.4037 47.9091 39.4192 47.9091 39.4343C47.9091 39.5425 48.4241 39.959 49.5459 39.959C52.2132 39.959 52.8652 38.4329 53.2891 38.4329C53.3507 38.4329 53.5312 38.4329 53.6371 38.6799C54.2595 40.1585 55.6164 40.4978 56.4651 40.4978ZM55.2901 37.4178C55.2901 37.7571 55.5631 38.0347 55.8968 38.0347C56.2304 38.0347 56.503 37.7571 56.503 37.4178C56.503 37.078 56.2304 36.8004 55.8968 36.8004C55.5631 36.8004 55.2901 37.078 55.2901 37.4178Z" fill="#191C1F"/>
<path d="M67.2942 29.7264C67.0818 29.7264 66.8546 29.8963 66.8546 30.3132C66.8546 30.7739 67.2035 31.0676 67.4002 31.1593C67.5066 31.2219 67.6737 31.2836 67.8389 31.2836C68.279 31.2836 68.6284 31.1593 68.6284 30.789C68.6279 30.3132 67.9449 29.7264 67.2942 29.7264ZM65.6593 30.6812C65.3409 30.6812 63.5805 33.0699 62.4463 33.0699C62.1737 33.0699 61.946 32.5462 61.946 32.1471C61.946 31.9311 62.0821 31.7767 62.5685 31.668C65.1743 31.0671 64.5977 29.0784 66.8236 29.0784C68.0508 29.0784 69.4169 29.9273 69.4169 31.8375C69.4169 33.8718 66.5695 36.3984 66.1447 36.3984C65.7958 36.3984 65.4168 35.8902 65.4168 35.5514C65.4168 35.4436 65.4626 35.3048 65.7657 35.1815C67.2188 34.5951 68.0513 33.2394 68.0513 32.5452C68.0513 32.3909 67.9759 32.2384 67.7787 32.2384C67.5214 32.2384 66.4182 34.7956 65.1891 34.7956C64.339 34.7956 63.4746 34.0116 63.4746 33.6408C63.4746 33.0234 65.9323 31.884 65.9323 31.02C65.9318 30.6958 65.7805 30.6812 65.6593 30.6812Z" fill="#191C1F"/>
<path d="M35.666 10.4794C35.666 10.4794 35.2269 10.8178 34.6813 10.8178C34.0302 10.8178 33.5146 10.3251 33.5146 9.63141C33.5146 9.1533 33.7571 8.66059 34.3175 8.41353C34.3027 8.50624 34.3027 8.58294 34.3027 8.67565C34.3023 9.55471 34.7872 10.2168 35.666 10.4794ZM38.909 13.4385C38.5759 13.8385 38.2269 14.5171 38.2269 15.2102C38.2269 16.0422 38.7276 16.7354 39.5004 16.7354C40.2427 16.7354 40.5916 16.0884 40.5916 15.4262C40.5916 14.3938 39.667 13.6686 38.909 13.4385ZM33.8784 14.0545C33.8497 14.102 33.8326 14.1627 33.8326 14.2244C33.8326 14.3632 33.9843 14.5171 34.1199 14.5171C34.2412 14.5171 34.3171 14.4865 34.3777 14.4865C34.741 14.4865 35.1505 14.7481 35.7414 14.7481C36.0894 14.7481 36.499 14.6399 37.014 14.3787C38.1052 13.8234 38.53 12.4521 38.53 12.2206C38.53 11.9274 38.2987 11.966 38.1052 11.6964C37.9118 11.4276 37.9858 11.19 37.8627 11.0644C37.7929 10.9924 37.5754 10.9876 37.3019 10.9566C37.2107 10.9467 37.0895 10.9411 36.9682 10.9411C36.4689 10.9411 35.8761 11.0036 35.2107 11.4347C33.8964 12.2879 34.0898 13.7001 33.8784 14.0545ZM37.4393 12.1434C37.5444 12.2888 37.834 12.4676 37.834 12.5754C37.834 12.7905 37.7119 13.0686 37.4699 13.0686C36.9391 13.0686 36.5152 12.2516 36.5152 11.7886C36.5152 11.4964 36.6822 11.4658 36.909 11.4658C37.015 11.4658 37.0608 11.4813 37.1362 11.5274C37.2723 11.6046 37.2723 11.9124 37.4393 12.1434ZM36.0446 14.0239C35.5448 14.0239 34.9992 13.3924 34.9992 12.8215C34.9992 12.5138 35.2264 12.1279 35.393 12.1279C35.4536 12.1279 35.4841 12.1745 35.499 12.2827C35.5897 13.0375 36.0751 13.4695 36.53 13.6846C36.5753 13.7152 36.6059 13.7307 36.6059 13.7613C36.6059 13.8695 36.3176 14.0239 36.0446 14.0239ZM37.3333 10.1401C37.4088 9.89306 37.4694 9.58577 37.4694 9.246C37.4694 8.50671 37.1353 7.38153 36.1052 7.38153C35.5147 7.38153 35.0894 7.85918 35.0894 8.42953C35.0894 9.64741 36.287 10.1401 37.3333 10.1401ZM33.4082 16.3044C33.4082 17.4752 33.7571 18.0305 34.3781 18.0305C34.8631 18.0305 35.5147 17.6756 36.287 16.9975C35.6966 17.1364 35.2412 17.2291 34.8326 17.2291C34.287 17.2291 33.8631 17.0131 33.4082 16.3044ZM33.939 14.9326C33.9242 15.0102 33.9242 15.0869 33.9242 15.1636C33.9242 15.8879 34.3023 16.2888 34.8025 16.2888C35.1801 16.2888 35.6207 16.0578 36.0135 15.5486C35.8479 15.5792 35.6503 15.5947 35.4684 15.5947C34.9085 15.5947 34.3023 15.4413 33.939 14.9326ZM37.6517 14.7171C37.3023 14.8093 36.5753 15.2408 36.5753 16.0112C36.5753 16.5655 36.9992 16.9208 37.53 16.9208C37.803 16.9208 37.9997 16.8587 38.121 16.7665C37.6971 16.3505 37.5453 15.8879 37.5453 15.4262C37.5453 15.102 37.5906 14.902 37.6517 14.7171ZM38.1968 10.4945C38.1968 10.8333 38.4694 11.1114 38.8026 11.1114C39.1363 11.1114 39.4093 10.8338 39.4093 10.4945C39.4093 10.1556 39.1363 9.87753 38.8026 9.87753C38.4694 9.87753 38.1968 10.1556 38.1968 10.4945ZM38.9845 11.8813C38.9845 12.2206 39.258 12.4982 39.5921 12.4982C39.9248 12.4982 40.1978 12.2206 40.1978 11.8813C40.1978 11.5429 39.9248 11.2653 39.5921 11.2653C39.2575 11.2653 38.9845 11.5429 38.9845 11.8813Z" fill="#191C1F"/>
<path d="M62.6286 19.4471C62.6286 19.1393 62.9016 18.8772 63.201 18.8772C63.5352 18.8772 63.7929 19.1393 63.7929 19.4471C63.7929 19.8015 63.5347 20.0485 63.201 20.0485C62.9016 20.0485 62.6286 19.8015 62.6286 19.4471ZM57.3078 14.7008C57.3078 15.0396 57.5813 15.3172 57.9136 15.3172C58.2481 15.3172 58.5212 15.0396 58.5212 14.7008C58.5212 14.3624 58.2477 14.0848 57.9136 14.0848C57.5813 14.0848 57.3078 14.3624 57.3078 14.7008ZM56.7932 16.8735C56.7932 17.3516 57.1861 17.7516 57.6567 17.7516C58.126 17.7516 58.5212 17.3516 58.5212 16.8735C58.5212 16.3963 58.126 15.9949 57.6567 15.9949C57.1861 15.9949 56.7932 16.3963 56.7932 16.8735ZM58.703 15.8871C58.703 16.4118 59.1126 16.8274 59.6248 16.8274C60.1399 16.8274 60.5508 16.4118 60.5508 15.8871C60.5508 15.3634 60.1399 14.9474 59.6248 14.9474C59.1126 14.9474 58.703 15.3634 58.703 15.8871ZM58.7794 13.8838C58.7794 14.2081 59.0371 14.4707 59.3523 14.4707C59.6707 14.4707 59.9284 14.2081 59.9284 13.8838C59.9284 13.561 59.6702 13.2989 59.3523 13.2989C59.0371 13.2989 58.7794 13.561 58.7794 13.8838ZM61.5212 12.4053C61.5212 12.7281 61.779 12.9902 62.0978 12.9902C62.4162 12.9902 62.6744 12.7281 62.6744 12.4053C62.6744 12.081 62.4162 11.8189 62.0978 11.8189C61.779 11.8189 61.5212 12.081 61.5212 12.4053ZM60.3838 14.3008C60.3838 14.8396 60.8234 15.2862 61.3542 15.2862C61.8854 15.2862 62.3255 14.8396 62.3255 14.3008C62.3255 13.7605 61.8859 13.3144 61.3542 13.3144C60.8234 13.3144 60.3838 13.7605 60.3838 14.3008ZM58.8243 17.9064C58.8243 18.2457 59.0973 18.5224 59.4282 18.5224C59.7618 18.5224 60.0353 18.2457 60.0353 17.9064C60.0353 17.5671 59.7618 17.2899 59.4282 17.2899C59.0973 17.2899 58.8243 17.5671 58.8243 17.9064ZM60.8086 16.673C60.8086 17.0123 61.0811 17.2899 61.4157 17.2899C61.7489 17.2899 62.0219 17.0123 62.0219 16.673C62.0219 16.3347 61.7489 16.057 61.4157 16.057C61.0811 16.057 60.8086 16.3347 60.8086 16.673ZM60.2477 18.8462C60.2477 19.4316 60.7174 19.9097 61.294 19.9097C61.8701 19.9097 62.3412 19.4316 62.3412 18.8462C62.3412 18.2608 61.8701 17.7826 61.294 17.7826C60.7174 17.7826 60.2477 18.2608 60.2477 18.8462ZM62.431 17.5356C62.431 17.937 62.7499 18.2608 63.1413 18.2608C63.5356 18.2608 63.854 17.937 63.854 17.5356C63.854 17.1356 63.5356 16.8118 63.1413 16.8118C62.7499 16.8118 62.431 17.1356 62.431 17.5356ZM62.3857 15.5939C62.3857 15.9492 62.6744 16.2419 63.0192 16.2419C63.3686 16.2419 63.6569 15.9492 63.6569 15.5939C63.6569 15.2401 63.3686 14.9474 63.0192 14.9474C62.6744 14.9474 62.3857 15.2401 62.3857 15.5939Z" fill="#191C1F"/>
<path d="M63.9296 35.8147C63.5354 36.1234 62.6135 36.8157 61.0813 36.8157C60.2627 36.8157 59.8985 36.5536 59.7773 36.5536C59.6255 36.5536 59.4589 36.7074 59.2918 36.9084C58.9318 37.3404 58.4612 38.1418 58.4612 39.0195C58.4612 39.6355 58.9318 40.251 59.8074 40.251C62.6441 40.251 64.764 38.4486 64.764 36.9856C64.764 36.154 64.279 35.8147 63.9296 35.8147ZM63.1415 35.6453C63.2642 35.539 63.2929 35.3681 63.2929 35.1978V34.8434C63.2929 34.3959 62.6288 34.1352 61.7186 34.1352C60.6112 34.1352 60.0198 34.6425 60.0198 34.859V35.5677C60.0198 35.8613 60.6875 36.154 61.5066 36.154C62.1586 36.154 62.7501 35.9846 63.1415 35.6453ZM63.0194 37.171C63.0957 37.171 63.186 37.2166 63.186 37.4947C63.186 37.8331 63.0351 38.2797 62.4918 38.6336C62.1128 38.8966 61.5969 39.1126 60.8388 39.1263C60.9601 38.7578 61.0513 38.3715 61.0513 38.0035C61.0513 37.8797 61.0364 37.787 61.0212 37.6486H61.2183C62.4164 37.6491 62.9324 37.171 63.0194 37.171Z" fill="#191C1F"/>
<path d="M57.2291 18.3386C57.3957 19.6478 59.125 18.9852 59.125 20.572C59.125 20.8036 59.0644 21.1433 59.0644 21.4356C59.0644 21.7748 59.094 22.0675 59.3495 22.0675C59.6068 22.0675 59.6678 21.8831 59.6678 21.636C59.6678 21.389 59.6068 21.0812 59.6068 20.9118C59.6068 20.372 59.9862 20.2492 60.2144 20.2492C60.7905 20.2492 61.2301 20.8501 62.095 20.8501C61.8974 21.8365 59.8955 21.5744 59.8955 22.6534C59.8955 23.1932 60.4263 23.3155 60.7752 23.3155C61.0936 23.3155 61.2 23.2694 61.2 22.9927C61.2 22.8379 61.1695 22.6685 61.1695 22.5607C61.1695 22.4986 61.2153 22.437 61.2912 22.437C61.6258 22.437 63.2593 23.701 63.2593 24.0868C63.2593 24.4407 61.5337 24.7951 61.0334 24.7951C60.8817 24.7951 60.8511 24.6873 60.8511 24.6257C60.8511 24.5179 61.1089 24.1941 61.1089 24.0097C61.1089 23.8708 60.8817 23.7781 60.2745 23.7781C59.9862 23.7781 59.7738 23.8092 59.7738 24.0407C59.7738 24.4558 60.4411 24.9649 60.4411 25.3494C60.4411 25.6581 60.2592 25.8431 59.7738 25.8431C59.3643 25.8431 58.7451 25.5188 58.7451 24.98C58.7451 24.5485 59.1824 24.1179 59.1824 23.8553C59.1824 23.7781 59.1246 23.6548 58.9427 23.6548C58.3809 23.6548 58.2296 25.1645 56.2434 25.3344C56.5618 25.0417 56.8339 24.7179 56.8339 24.0562C56.8339 23.7325 56.7589 23.4699 56.7589 23.116C56.7589 22.6534 56.9704 22.4219 57.2735 22.4219C57.8339 22.4219 58.1069 23.2228 58.4721 23.2228C58.6697 23.2228 58.8816 23.0388 58.8816 22.7612C58.8816 21.5899 56.6682 21.7593 56.6682 20.1104C56.6687 19.6633 56.8195 19.1085 57.2291 18.3386ZM64.4574 22.8539C64.4574 23.2384 64.5796 23.6854 64.9586 23.6854C65.277 23.6854 65.5495 23.1932 65.5495 22.6534C65.5495 22.037 65.4436 21.5588 65.4436 21.3118C65.4436 21.2045 65.4894 21.1584 65.5495 21.1584C65.7772 21.1739 65.9891 21.8054 66.2326 21.8054C66.5056 21.8054 66.9124 21.2963 67.0785 21.2963C67.1243 21.2963 67.1391 21.3584 67.1391 21.3734C67.1391 21.605 66.7902 22.1141 66.7902 22.3141C66.7902 22.4835 67.6699 22.5141 67.6699 22.6685C67.6699 22.9 66.7476 22.9 66.3085 23.1005C65.8841 23.285 65.625 23.516 65.625 23.8247C65.625 24.133 65.9285 24.1941 66.3533 24.1941C67.3659 24.1941 68.0785 23.6398 68.3057 23.6398C68.3511 23.6398 68.3812 23.6699 68.3812 23.7165C68.3812 23.8708 67.8661 24.3791 67.8661 24.6106C67.8661 24.8722 68.8064 25.1795 68.7912 25.3344C68.7764 25.3805 68.7153 25.3955 68.6093 25.3955C68.4418 25.3955 68.1845 25.3494 67.9869 25.3494C67.8656 25.3494 67.7597 25.3645 67.7134 25.4261C67.6084 25.5499 67.7439 26.3668 67.5329 26.3668C67.3353 26.3668 66.8198 24.5485 65.6555 24.5485C65.4884 24.5485 65.3672 24.6873 65.3672 24.9184C65.3672 25.5344 65.9586 26.2431 66.5199 26.5824C66.774 26.7522 67.1993 26.9216 67.1993 27.0148C67.1993 27.1988 66.2316 27.0299 66.2316 27.3376C66.2316 27.6153 66.3529 28.0322 66.3529 28.2779C66.3529 28.3551 66.3376 28.4468 66.2469 28.4468C66.065 28.4468 65.6245 27.5998 65.4126 27.5998C65.2307 27.5998 64.8364 28.108 64.6694 28.108C64.624 28.108 64.5939 28.0619 64.5939 28.0162C64.5939 27.6614 65.1553 26.8605 65.1553 26.0741C65.1553 25.7042 65.1094 24.9028 64.6694 24.9028C64.3056 24.9028 63.8956 25.4882 63.7138 26.0741C63.6082 26.4129 63.6837 27.7231 63.4407 27.7231C63.2135 27.7231 63.2741 26.8449 62.9701 26.8449C62.7466 26.8449 62.2611 27.2605 62.0941 27.2605C62.0635 27.2605 62.033 27.2449 62.033 27.2144C62.033 27.0299 62.4731 26.4285 62.4731 26.3052C62.4731 26.0741 61.4721 26.0435 61.4721 25.8586C61.4721 25.7504 61.8664 25.6737 62.2301 25.6115C63.0011 25.4727 64.1381 24.9028 64.1381 24.1019C64.1381 23.2082 63.2889 22.8224 62.7309 22.4525C62.4426 22.2675 62.1242 22.1141 62.1242 21.9908C62.1242 21.8671 62.4879 21.8671 62.6397 21.8671C62.8669 21.8671 63.0918 21.8515 63.0918 21.6671C63.0918 21.5278 63.0613 21.2511 63.0613 21.0351C63.0613 20.8807 63.0761 20.7574 63.1376 20.7574C63.3648 20.7574 63.6832 21.5123 63.8355 21.5123C64.0775 21.5123 64.4111 20.8958 64.6393 20.8958C64.7142 20.8958 64.7452 20.9424 64.7452 21.0807C64.7462 21.6511 64.4574 22.2981 64.4574 22.8539Z" fill="#191C1F"/>
<path d="M57.6724 27.122C58.3702 27.2147 58.5373 27.4608 58.5373 27.6617C58.5373 28.001 58.2337 28.1083 57.9449 28.1083C57.7335 28.1083 57.4905 28.0622 57.2327 28.0622C56.8986 28.0622 56.5659 28.1394 56.2933 28.4631C56.49 28.4937 56.7783 28.633 56.7783 28.9417C56.7783 29.8354 54.3386 29.0947 54.3386 31.3921C54.3386 32.609 55.5816 33.9351 57.46 33.9351C58.4313 33.9351 59.0528 33.6114 59.0528 33.2406C59.0528 32.9483 58.5377 33.1479 58.5377 32.9013C58.5377 32.7935 58.7196 32.5926 58.7196 32.4222C58.7196 32.3479 58.659 32.2081 58.5377 32.2081C58.2638 32.2081 57.7483 32.6537 56.7024 32.6537C55.8838 32.6537 55.0804 32.1775 55.0804 31.5295C55.0804 31.3911 55.1415 31.3135 55.2322 31.3135C55.3234 31.3135 55.4442 31.3756 55.5506 31.3756C55.6418 31.3756 55.6566 31.3135 55.6566 31.1446C55.6566 30.9747 55.6566 30.4966 55.944 30.4966C56.2327 30.4966 56.7783 31.5756 58.8709 31.5756C59.5655 31.5756 60.9154 31.4377 61.4161 30.9747C61.4008 32.6702 60.0958 34.9046 57.3693 34.9046C54.5353 34.9046 53.0198 32.5926 53.0198 30.4655C53.0198 28.1083 54.9134 25.9667 57.5058 25.9667C58.1717 25.9667 58.7339 26.1973 58.7339 26.4904C58.7335 26.8919 57.7478 26.6448 57.6724 27.122ZM62.3254 27.9399C62.4314 28.1083 62.4772 28.2782 62.4772 28.4321C62.4772 28.8641 62.1889 29.2646 62.1889 29.7121C62.1889 30.2203 62.5684 30.6359 63.1417 30.6359C63.7632 30.6359 64.188 30.1286 64.188 29.5267C64.188 28.7097 63.4601 28.0166 62.3254 27.9399ZM57.3082 28.9257C57.459 29.0791 57.5053 29.2335 57.5053 29.3879C57.5053 29.6189 57.3993 29.866 57.3993 30.1281C57.3993 30.4966 57.6724 30.8208 58.0657 30.8208C58.491 30.8208 58.7798 30.481 58.7798 30.082C58.7798 29.4961 58.1865 28.9257 57.3082 28.9257ZM59.3226 26.3055C60.9149 26.6137 61.7794 27.8316 61.7794 28.9723C61.7794 29.7587 61.2944 30.4815 60.4448 30.4815C59.671 30.4815 59.1129 29.9427 59.1129 29.0796C59.1129 28.4326 59.6099 27.7544 59.6099 27.0914C59.6099 26.8297 59.5345 26.5676 59.3226 26.3055ZM60.1111 28.3554C60.1111 28.5709 60.2629 28.7408 60.4753 28.7408C60.7173 28.7408 60.8696 28.5248 60.8696 28.2782C60.8696 27.9549 60.5813 27.5079 60.3083 27.5079C60.1865 27.5079 60.2324 27.6928 60.2023 27.8933C60.1866 28.0467 60.1111 28.2316 60.1111 28.3554Z" fill="#191C1F"/>
<path d="M43.3799 12.4981C43.895 12.4981 44.4854 9.66233 44.4854 9.18422C44.4854 9.06092 44.4406 8.96821 44.3346 8.96821C43.8644 8.96821 43.2133 11.6656 43.2133 12.2671C43.2129 12.3748 43.2429 12.4981 43.3799 12.4981ZM47.0926 13.3456C47.4707 13.3456 47.8951 11.8656 47.8951 10.9409C47.8951 10.7405 47.865 10.5254 47.7734 10.5254C47.455 10.5254 46.9247 12.0511 46.9247 12.8831C46.9251 13.2068 47.0015 13.3456 47.0926 13.3456ZM44.621 11.9739C44.7876 11.9739 45 11.788 45.3952 11.3423C45.4248 11.1419 45.4248 10.9565 45.4248 10.7254C45.4248 10.4176 45.3036 10.0783 45.1222 10.0783C44.6668 10.0783 44.4401 11.3113 44.4401 11.6355C44.4406 11.8195 44.5308 11.9739 44.621 11.9739ZM46.6979 11.3423C46.6979 11.0798 46.6368 11.0181 46.5767 11.0181C46.4249 11.0181 46.2587 11.2035 46.0163 11.6195C46.0463 12.1743 46.1375 12.4209 46.2888 12.4209C46.4554 12.4209 46.6979 11.8812 46.6979 11.3423ZM47.865 9.52351C48.8655 9.52351 49.3194 10.4021 49.3194 11.3885C49.3194 11.8195 49.1991 12.452 49.002 12.452C48.8048 12.452 48.8354 12.0972 48.8048 11.7734C48.7748 11.3574 48.6984 11.2652 48.5619 11.2652C48.3041 11.2652 48.138 11.8812 48.138 12.452C48.138 12.8059 48.1986 13.2068 48.4707 13.2068C48.6225 13.2068 48.759 13.1296 48.8502 13.0374C48.7896 13.7456 48.2736 14.3631 47.5466 14.3631C46.2129 14.3631 45.7127 12.7753 45.5618 11.8506C44.7585 12.7136 44.0162 13.3456 42.6821 13.3456C41.44 13.3456 40.8792 12.4209 40.8792 11.5428C40.8792 11.2802 40.9699 10.6026 41.2887 10.6026C41.6672 10.6026 41.334 11.8656 42.0763 11.8656C42.2586 11.8656 42.5909 11.7113 42.7737 11.2035C42.8797 10.8948 42.9403 10.572 42.9403 10.2939C42.9403 9.87739 42.8496 9.61622 42.5465 9.61622C42.2883 9.61622 41.9699 9.81575 41.8639 9.92398C42.2281 8.81433 43.1069 8.24445 44.0754 8.24445C45.274 8.24445 45.9098 9.32304 45.9098 10.5254C45.9098 10.6943 45.8945 10.8793 45.864 11.0492C46.3795 10.1861 47.0926 9.52351 47.865 9.52351Z" fill="#191C1F"/>
<path d="M45.0289 13.6685C44.3773 13.6685 44.3473 14.4713 44.3473 16.0882C43.8618 15.0252 43.0594 13.8845 42.1195 13.8845C41.4832 13.8845 41.2412 14.3165 41.2412 15.0708C41.2412 15.2252 41.256 15.4567 41.2865 15.5946C41.3624 15.3334 41.6049 15.2252 41.9076 15.2252C42.5601 15.2252 43.3477 15.7334 43.8627 16.4275C43.2723 16.3197 42.6961 16.2115 42.2116 16.2115C41.908 16.2115 41.6355 16.2426 41.4083 16.3503C40.9686 16.5503 40.3777 17.2134 40.3777 18.2153C40.3777 18.3696 40.393 18.5386 40.4235 18.7235C40.9538 17.5212 42.3629 16.9819 43.2723 16.9819C43.4546 16.9819 43.5902 16.9974 43.6966 17.0129C43.2264 17.444 43.1209 18.1993 43.0899 18.708C43.0756 18.9546 42.984 18.9706 42.8169 18.9706C42.8169 19.4783 43.2116 20.2341 43.2116 20.619C43.2116 20.7579 43.1357 20.8812 43.0603 20.9122C43.0603 21.5903 43.7262 22.0835 43.7262 22.5146C43.7262 22.6223 43.6966 22.715 43.6503 22.7616C43.6966 23.0393 44.4296 23.5056 44.5245 23.7395C44.6411 24.0237 44.7721 24.0717 44.848 24.0717C45.1057 24.0717 45.5139 23.763 45.5139 23.4854C45.5139 23.3932 45.438 23.2854 45.3783 23.2388C45.09 23.0237 44.9382 22.5612 44.817 22.2534C44.7105 22.2534 44.5735 22.2077 44.5254 22.0261C44.4426 21.707 44.4384 21.1127 44.3172 20.7579C44.12 20.7117 44.0289 20.6346 44.0289 20.2186C44.0289 20.0181 44.1506 19.2317 44.1506 18.9541C44.0599 18.9541 43.9386 18.8925 43.9386 18.7075C43.9386 18.2148 44.4241 17.8294 44.5597 17.1979C45.4236 17.8445 45.6351 18.507 45.6351 19.0934C45.6351 19.4007 45.5898 19.6939 45.5291 19.972C46.1659 19.6477 47.1206 19.1701 47.1206 18.1993C47.1206 17.6285 46.8628 16.9969 45.1501 16.7503C45.6805 16.5499 46.3478 16.4426 46.9082 16.4426C47.8786 16.4426 48.439 16.7503 48.5598 17.4435C48.7569 17.1357 48.9087 16.7809 48.9087 16.4576C48.9087 15.7019 48.2867 15.2096 47.4991 15.2096C46.5745 15.2096 45.7564 15.7019 44.8771 16.3037C45.2723 15.4717 45.5435 14.9786 46.0294 14.9786C46.1048 14.9786 46.1807 14.9941 46.2566 15.0096C46.0747 14.332 45.3931 13.6685 45.0289 13.6685Z" fill="#191C1F"/>
<path d="M70.5647 24.7798C71.3236 24.7798 71.9298 25.7812 71.9298 26.953C71.9298 28.201 71.3532 29.5577 70.3254 30.4814C70.3102 28.4014 67.8066 29.064 67.8066 27.5544C67.8066 26.9073 68.2625 26.4754 68.8085 26.4754C69.294 26.4754 69.673 26.6142 69.946 26.8923C69.673 26.6297 69.5364 26.2594 69.5364 25.9055C69.5364 25.3187 69.9006 24.7798 70.5647 24.7798Z" fill="#191C1F"/>
<path d="M57.0322 10.1396C57.427 10.525 57.7745 10.6939 58.1993 10.6939C58.3668 10.6939 58.5644 10.6483 58.6709 10.6483C58.8074 10.6483 58.8976 10.7095 58.8976 10.8172C58.8976 10.9871 58.7458 11.2648 58.5644 11.4191C58.7458 11.4958 58.9434 11.5269 59.1558 11.5269C60.0166 11.5269 61.0023 10.9716 61.0023 9.58524C61.1851 9.83089 61.291 10.3401 61.291 10.5716C61.291 12.2511 60.0772 12.8982 58.9582 12.8982C58.2303 12.8982 57.8657 12.6511 57.774 12.6511C57.4867 12.6511 57.5019 13.2375 57.3048 13.2219C56.9559 13.1603 56.6384 12.3744 56.6384 11.5424C56.6389 11.0488 56.7601 10.525 57.0322 10.1396ZM59.3197 9.01442C59.1984 8.81395 58.7458 8.70666 58.5344 8.70666C57.8661 8.70666 57.4112 9.18383 57.3205 9.61583C57.2599 9.46148 57.2146 9.27654 57.2146 9.0916C57.2146 8.41348 57.6695 7.58148 58.7773 7.58148C59.7445 7.58148 60.1235 8.10525 60.2605 8.10525C60.4118 8.10525 60.5636 7.95089 60.6853 7.95089C60.8519 7.95089 60.8519 8.21301 60.8519 8.39842C60.8519 9.01442 60.5784 10.0779 59.8963 10.4634C59.7746 10.2012 59.5321 9.90807 59.1406 9.7236C59.0346 9.67748 58.9893 9.58524 58.9893 9.49254C58.9888 9.32266 59.1401 9.10666 59.3197 9.01442Z" fill="#191C1F"/>
<path d="M46.5024 5.65497C46.5024 6.19427 48.3965 8.82956 48.7607 8.82956C49.0642 8.82956 49.291 8.29027 49.291 7.82721C49.291 7.70485 49.2604 7.58203 49.2007 7.48885C48.9277 7.10344 47.0031 5.56227 46.5783 5.56227C46.5325 5.56227 46.5024 5.60885 46.5024 5.65497ZM35.3637 4.06768C35.3637 4.37638 34.2124 5.40838 33.8037 5.40838C33.6524 5.40838 33.6061 5.22391 33.6061 5.0545C33.6061 4.74674 33.7427 4.31474 33.9097 4.17544C34.1059 3.9905 34.5608 3.89921 34.9093 3.89921C35.1212 3.89921 35.3637 3.94438 35.3637 4.06768ZM49.2007 4.9618C49.2007 4.03662 46.7421 2.35709 46.7148 1.63332C46.712 1.56697 46.7476 1.50109 46.8027 1.44227C47.2238 0.990501 48.9726 0.661089 48.9726 0.276148C48.9726 0.0766184 48.6084 0.0766184 48.4265 0.0766184C47.0174 0.0766184 44.9563 0.600383 44.9563 1.10862C44.9563 1.63332 46.805 2.91238 46.805 3.54438C46.805 3.7138 46.699 3.77544 46.532 3.77544C46.0174 3.77544 44.8957 3.14297 44.3653 3.14297C44.1229 3.14297 44.0312 3.31238 44.0312 3.55991C44.0312 4.29921 44.8952 5.70156 44.8952 6.11662C44.8952 6.16321 44.8799 6.22485 44.8193 6.22485C44.5463 6.22485 43.2593 4.68462 42.804 4.68462C42.6379 4.68462 42.6221 4.91521 42.6221 5.2545V5.77827C42.6221 6.13262 42.6068 6.34862 42.4412 6.34862C42.046 6.34862 41.8646 5.22391 41.486 5.22391C41.0918 5.22391 41.0159 7.22674 40.6378 7.22674C40.1977 7.22674 40.5767 5.02297 40.1524 5.02297C39.6827 5.02297 39.1519 6.48744 38.8182 6.48744C38.6974 6.48744 38.6674 6.36368 38.6674 6.25591C38.6674 5.80933 38.9242 5.08509 38.9242 4.65403C38.9242 4.43756 38.8636 4.31474 38.6826 4.31474C38.212 4.31474 37.1819 5.08509 36.7881 5.08509C36.7275 5.08509 36.6516 5.0545 36.6516 4.99238C36.6516 4.62344 38.3032 3.45168 38.3032 2.92791C38.3032 2.41874 36.0292 2.7585 36.0292 2.17215C36.0292 1.67944 37.6521 1.17074 37.6521 0.66203C37.6521 0.214971 35.727 0.0154419 34.9847 0.0154419C34.0902 0.0154419 33.6057 0.122265 33.6057 0.384383C33.6057 0.785324 35.6367 0.909089 35.6367 1.26297C35.6367 1.60227 33.5298 2.51144 33.5298 3.03521C33.5298 3.4978 36.4998 3.0658 36.4998 3.54438C36.4998 4.06768 33.9092 6.33262 33.9092 7.08791C33.9092 7.2578 34.0305 7.33497 34.1966 7.33497C34.9847 7.33497 37.0296 5.80933 37.591 5.80933C37.7881 5.80933 37.8034 6.05544 37.8034 6.27144C37.8034 6.67238 37.6673 7.28838 37.6673 7.73591C37.6673 8.0898 37.758 8.33638 38.0607 8.33638C38.6225 8.33638 39.1366 7.36556 39.5165 7.36556C40.001 7.36556 39.7132 10.2164 40.4407 10.2164C41.0617 10.2164 41.319 7.1345 41.7133 7.1345C42.1075 7.1345 42.4264 8.02815 42.7896 8.02815C43.2436 8.02815 43.0317 6.47191 43.5171 6.47191C44.047 6.47191 45.5625 8.32133 46.2446 8.32133C46.4566 8.32133 46.532 8.15144 46.532 7.93544C46.532 7.1185 45.4112 5.27003 45.4112 4.68462C45.4112 4.53074 45.4561 4.48415 45.6227 4.48415C46.2136 4.48415 47.942 5.31615 48.7597 5.31615C49.0346 5.31615 49.2007 5.16227 49.2007 4.9618ZM47.6241 1.9105C47.6241 2.18768 48.5788 2.78909 49.0189 2.78909C49.2762 2.78909 49.3521 2.43427 49.3521 2.06438C49.3521 1.60227 49.1558 1.58674 48.7611 1.58674C48.2609 1.58674 47.6241 1.72556 47.6241 1.9105ZM44.0627 0.338265C44.0627 0.24556 43.6083 0.152854 42.9872 0.152854C42.002 0.152854 42.1385 0.986266 41.381 0.986266C40.5929 0.986266 40.7891 0.122265 39.7891 0.122265C39.1829 0.122265 38.6229 0.230501 38.6229 0.368854C38.6229 0.554265 39.3347 0.477089 39.3347 0.986266C39.3347 1.52509 37.8038 1.67944 37.8038 2.00321C37.8038 2.11097 37.9246 2.15709 38.0764 2.15709C38.4105 2.15709 38.9399 2.00321 39.3194 2.00321C39.5318 2.00321 39.7289 2.04885 39.7289 2.24932C39.7289 2.63474 38.9098 3.32838 38.9098 3.63662C38.9098 3.72933 38.9853 3.76038 39.0612 3.76038C39.3647 3.76038 39.8803 2.97403 40.3648 2.97403C41.1681 2.97403 40.6383 4.71521 41.077 4.71521C41.5314 4.71521 41.3347 3.00415 41.9863 3.00415C42.5175 3.00415 42.9109 4.19097 43.2746 4.19097C43.3658 4.19097 43.4412 4.11427 43.4412 4.00603C43.4412 3.68321 42.9868 3.01968 42.9868 2.58862C42.9868 2.3265 43.1686 2.20274 43.4111 2.20274C43.7591 2.20274 44.2293 2.41874 44.4861 2.41874C44.5768 2.41874 44.668 2.38815 44.668 2.28038C44.668 1.9105 43.3204 1.51003 43.3204 1.03238C43.3209 0.554265 44.0627 0.554265 44.0627 0.338265Z" fill="#191C1F"/>
<path d="M70.9278 2.83573C70.9278 4.20655 69.9454 5.25455 68.1702 5.54726C68.3678 5.56232 68.5497 5.56232 68.732 5.56232C70.8066 5.56232 71.5655 4.60749 71.5655 3.80655C71.5655 3.35902 71.3225 2.95902 70.9278 2.83573ZM68.3678 4.39149C68.3678 3.29738 65.7935 3.01973 65.7935 2.77361C65.7935 2.57361 67.2308 2.23385 67.9735 2.21832C66.837 0.739258 65.2173 0.893611 65.2173 0.631493C65.2173 0.47714 66.4302 0.168434 67.5501 0.168434C68.4895 0.168434 69.3688 0.384434 69.3688 1.10867C69.3688 1.51008 69.0504 1.92655 69.0504 2.54208C69.0504 2.88138 69.2161 3.17408 69.6571 3.17408C70.1282 3.17408 70.2332 2.66585 70.2332 2.12561C70.2332 1.67949 70.1578 1.3402 70.1578 1.1242C70.1578 0.47714 70.5942 0.0460815 71.2161 0.0460815C71.7316 0.0460815 71.8533 0.276199 72.6118 0.276199C72.2018 0.523729 72.0505 0.970787 72.0505 1.18585C72.0505 1.83385 72.4609 2.28043 72.4609 3.60608C72.4609 6.03996 70.2184 6.90302 67.4742 6.90302C66.7199 6.90302 65.9152 6.84138 65.1262 6.71855C65.0054 6.70302 64.9749 6.67243 64.9749 6.59526C64.9749 6.39479 66.0522 6.28655 66.0522 5.30114C66.0522 4.91526 65.9305 4.54585 65.9305 4.40749C65.9305 4.33032 65.9911 4.28373 66.0522 4.28373C66.2794 4.28373 66.7352 5.17738 67.5811 5.17738C67.806 5.17738 68.3678 5.1002 68.3678 4.39149ZM70.8371 0.986317C70.8371 1.20138 71.0037 1.37079 71.2161 1.37079C71.4285 1.37079 71.5956 1.20138 71.5956 0.986317C71.5956 0.770317 71.4285 0.600434 71.2161 0.600434C71.0037 0.600434 70.8371 0.770317 70.8371 0.986317Z" fill="#191C1F"/>
<path d="M69.4915 15.2252C69.4915 14.9019 68.6872 14.8713 68.6118 13.9616C68.5961 13.8233 68.5507 13.5772 68.3837 13.5772C68.1111 13.5772 68.3231 14.4247 68.0199 14.4247C67.323 14.4247 67.0958 13.0374 66.8381 13.0374C66.777 13.0374 66.7048 13.0835 66.7048 13.2685C66.7048 13.4383 66.7353 13.5461 66.7353 13.7456C66.7353 13.9466 66.6891 14.0854 66.5077 14.0854C66.0981 14.0854 65.7339 13.1141 65.385 13.1141C65.3091 13.1141 65.2337 13.1607 65.2337 13.2379C65.2337 13.4228 65.5363 13.7612 65.5363 13.931C65.5363 14.3014 64.5506 14.1005 64.5506 14.4092C64.5506 14.548 64.6867 14.5936 64.869 14.5936C65.1879 14.5936 65.6886 14.4557 65.9463 14.4557C66.0981 14.4557 66.3253 14.4863 66.3253 14.6859C66.3253 14.9019 65.7793 15.179 65.7793 15.3795C65.7793 15.4722 65.87 15.5179 65.9459 15.5179C66.3554 15.5179 67.0801 14.7941 67.5956 14.7941C67.6863 14.7941 67.9135 14.8402 67.9135 14.979C67.9135 15.179 67.3985 15.5329 67.3985 15.8261C67.3985 15.9033 67.4447 15.9955 67.5354 15.9955C67.8066 15.9955 68.1708 15.2717 68.6868 15.2717C68.8839 15.2717 69.1722 15.3489 69.3245 15.3489C69.4462 15.3489 69.4915 15.2717 69.4915 15.2252ZM69.8858 22.6995C70.1287 21.9296 70.4323 21.3894 70.9288 20.5574C70.4323 20.2962 69.1121 19.7405 69.1121 18.8313C69.1121 17.7677 70.4156 16.9357 70.6859 16.9357C70.8076 16.9357 70.8377 17.044 70.8377 17.2445C70.8377 17.7988 70.5799 18.6925 70.5799 19.1706C70.5799 19.6016 70.853 20.0186 71.0954 20.0186C71.3532 20.0186 72.0658 19.0939 72.0658 18.1842C72.0658 16.5503 70.6554 16.0576 70.219 16.0576C69.8094 16.0576 69.0662 16.7353 67.3226 16.7353C64.0652 16.7353 63.322 13.4539 63.322 12.02C63.322 11.9583 63.3364 11.9428 63.3516 11.9428C63.4275 11.9428 63.7468 12.3442 64.7774 12.3442C65.3082 12.3442 65.7936 12.2049 66.5673 12.2049C68.3827 12.2049 69.187 13.4849 70.3097 15.1174C70.9885 15.5485 72.6119 16.2426 72.6119 18.1997C72.6119 19.9259 70.8071 20.8812 70.3703 22.7306C71.0644 22.6539 71.4744 21.3894 72.1871 21.3894C72.5513 21.3894 72.7179 21.6826 72.7179 22.1456C72.7179 22.8228 72.3384 23.8407 71.6105 24.4722C71.6253 24.4106 71.6253 24.3329 71.6253 24.2407C71.6253 23.8096 71.4592 23.1936 70.9728 23.1936C70.218 23.1936 69.9756 24.0256 69.5512 24.7183C69.1111 23.147 68.5197 21.7287 67.4591 20.8656C66.3859 19.9875 64.5349 20.4647 64.5349 18.8623C64.5349 18.4303 64.8084 17.8143 64.8084 17.3212C64.8084 17.1517 64.7779 16.9974 64.6862 16.8741C66.1425 17.4294 65.6266 18.4148 66.5225 19.4322C67.0801 20.0802 68.6266 20.6962 69.5211 23.3621C69.5359 23.2854 69.5512 23.0854 69.5512 22.9466C69.5512 20.6656 66.5822 18.4303 66.3244 17.5056C68.0491 17.7061 68.3522 18.1381 69.1713 20.4496C69.3393 20.9277 69.8858 22.1146 69.8858 22.6995Z" fill="#191C1F"/>
<path d="M61.5945 6.39483C60.5325 6.39483 59.8351 5.856 59.8351 5.57789C59.8351 5.43906 59.9258 5.3473 60.048 5.3473C60.3812 5.3473 61.1091 5.87059 61.3511 5.87059C61.4126 5.87059 61.4575 5.84047 61.4575 5.74777C61.4575 5.47012 61.1998 5.008 61.1998 4.77741C61.1998 4.7153 61.2456 4.66965 61.3363 4.66965C61.7454 4.66965 62.3521 4.83906 62.6714 4.83906C62.7773 4.83906 62.8074 4.77741 62.8074 4.7153C62.8074 4.37647 61.8213 3.71388 61.8213 3.51341C61.8213 3.32847 63.0467 3.05035 63.0467 2.75859C63.0467 2.44988 61.3807 2.66588 61.3807 2.37271C61.3807 2.15718 61.6996 1.7873 61.6996 1.61788C61.6996 1.54071 61.6385 1.51012 61.533 1.51012C61.3965 1.51012 60.6685 1.80282 60.365 1.80282C60.2136 1.80282 60.0313 1.77224 60.0313 1.55577C60.0313 1.20141 60.6227 0.816471 61.5482 0.816471C63.0462 0.816471 63.9416 1.86447 63.9416 3.62118C63.9426 5.84047 62.4136 6.39483 61.5945 6.39483ZM58.6402 3.4673C58.6402 3.29741 58.0479 2.97412 58.0479 2.78918C58.0479 2.75859 58.0775 2.74306 58.1233 2.74306C58.2909 2.74306 58.5792 2.80471 58.8073 2.80471C59.0044 2.80471 59.0345 1.94165 59.1835 1.94165C59.2895 1.94165 59.4709 2.75859 59.6389 2.75859C59.8356 2.75859 60.1993 2.52706 60.3511 2.52706C60.3812 2.52706 60.4117 2.54212 60.4117 2.57365C60.4117 2.68141 60.0327 3.09694 60.0327 3.22024C60.0327 3.35906 60.8823 3.52894 60.8823 3.65224C60.8823 3.80659 60.0174 3.79106 60.0174 3.92988C60.0174 4.03671 60.3363 4.46871 60.3363 4.60753C60.3363 4.63859 60.3205 4.65412 60.2905 4.65412C60.1687 4.65412 59.699 4.43765 59.5625 4.43765C59.3955 4.43765 59.1257 5.06965 58.9892 5.06965C58.9438 5.06965 58.9137 5.008 58.9137 4.93083L58.8832 4.31483C58.8832 4.25318 58.8536 4.19106 58.7772 4.19106C58.5949 4.19106 58.246 4.17553 58.1391 4.17553C58.0632 4.17553 58.0331 4.16047 58.0331 4.12941C58.0326 4.00612 58.6402 3.57506 58.6402 3.4673ZM58.1992 5.99342C58.4426 5.99342 58.488 6.5953 58.5343 6.94918C58.5643 7.13459 58.5949 7.14965 58.6708 7.14965C58.8531 7.14965 59.1405 6.44095 59.3353 6.44095C59.6227 6.44095 60.3969 7.25789 61.6857 7.25789C63.5182 7.25789 65.2471 5.9473 65.2471 3.63671C65.2471 1.40188 63.6992 0.0917648 61.564 0.0917648C60.5487 0.0917648 59.8046 0.600471 59.4103 0.600471C59.171 0.616 58.8073 0 58.6245 0C58.5491 0 58.4732 0.152941 58.4732 0.41553C58.4732 0.585412 58.4732 1.12424 58.2909 1.12424C57.9262 1.12424 56.5176 0.0616471 56.5176 0.446118C56.5176 0.800942 57.456 1.88 57.456 2.15718C57.456 2.43435 56.5324 2.69694 56.5324 2.88141C56.5324 3.22024 57.5171 3.28188 57.5171 3.71388C57.5171 4.14494 56.4861 4.48424 56.4861 4.808C56.4861 5.06965 57.5171 4.88518 57.5171 5.20847C57.5171 5.53177 56.7596 6.61083 56.7596 6.91812C56.7596 6.99577 56.7744 6.99577 56.8345 6.99577C57.1228 6.99577 57.9868 5.99342 58.1992 5.99342Z" fill="#191C1F"/>
<path d="M51.3342 33.0555C51.3342 33.1943 51.2884 33.3487 51.1672 33.5021C51.0015 33.1943 50.5309 33.04 50.3185 33.0404C48.7576 33.0404 49.3485 35.3369 47.6817 35.3369C46.9847 35.3369 46.9236 35.2442 46.6668 35.2442C46.5604 35.2442 46.4998 35.2908 46.4998 35.383C46.4998 35.7845 47.0606 36.7699 48.6215 36.7699C50.1824 36.7699 51.6832 35.7995 51.6832 34.5962C51.6832 34.3957 51.6378 34.1816 51.5466 33.9656C51.6073 33.8729 51.7595 33.8113 51.8956 33.8113C52.1376 33.8113 52.2741 34.0898 52.5013 34.0898C52.7443 34.0898 52.9261 33.904 52.9261 33.6578C52.9261 33.4564 52.8202 33.3185 52.6388 33.2249C52.76 33.1331 52.8507 32.9788 52.8507 32.8094C52.8507 32.5463 52.6684 32.3011 52.3648 32.3011C52.2283 32.3011 52.1381 32.3482 52.0321 32.4536C52.0025 32.1778 51.8502 31.9157 51.5619 31.9157C51.3347 31.9157 51.1672 32.0847 51.1672 32.3477C51.1672 32.5924 51.3342 32.7938 51.3342 33.0555Z" fill="#191C1F"/>
<path d="M43.0308 30.1897C44.2432 30.496 44.8494 31.1591 44.9702 31.9455C45.0915 32.7003 45.2428 33.3177 45.5306 33.625C45.9096 34.0575 46.6523 34.4405 47.3044 34.4405C47.85 34.4405 48.2887 34.2575 48.2887 33.7483C48.2887 33.193 47.5464 31.945 46.4552 31.945C46.3492 31.945 46.2127 31.961 46.0609 31.961C45.9244 31.961 45.7273 31.9304 45.6065 31.8222C45.3645 31.6057 45.2881 30.4499 44.8337 29.7567C44.3339 28.9859 43.7883 28.7699 43.046 28.7699C42.5162 28.7699 41.9243 29.0621 41.9243 29.4941C41.9243 29.7577 42.0608 29.9421 43.0308 30.1897ZM47.259 33.641C46.8037 33.641 46.122 33.1469 46.122 32.8692C46.122 32.6377 46.3344 32.5144 46.5001 32.5144C46.8796 32.5144 47.5607 32.9935 47.5607 33.3939C47.5612 33.5017 47.4853 33.641 47.259 33.641Z" fill="#191C1F"/>
<path d="M45.8642 21.6363C45.8642 20.6499 48.1683 20.1261 48.1683 18.9083C48.1683 18.7078 48.0924 18.3539 47.9559 18.0918C48.7583 18.5384 49.3497 19.2941 49.3497 19.9101C49.3497 20.9737 48.259 21.4669 48.259 22.1299C48.259 22.9003 49.4256 23.0236 49.4256 23.9789C49.4256 24.7643 48.3191 25.6739 48.3191 26.6909C48.3191 27.4767 48.8652 28.1233 49.6977 28.2316C49.4251 28.2932 49.1831 28.3393 48.9254 28.3393C47.3941 28.3393 45.8184 27.0607 45.8184 25.5346C45.8184 24.7798 46.1368 24.1181 46.6208 23.64C47.0461 24.0099 47.47 24.256 47.743 24.256C47.985 24.256 48.0919 24.1332 48.0919 23.9483C48.0924 23.3774 45.8642 22.8541 45.8642 21.6363ZM50.6987 29.4189C50.179 29.6607 49.9717 29.6193 49.9717 30.1591C49.9717 30.3591 49.9259 30.6198 49.9259 30.7591C49.9259 30.944 49.9559 31.0523 50.1679 31.0523C50.7139 31.0523 51.5779 30.1125 51.5779 29.3106C51.5779 29.0941 51.4562 29.0033 51.3197 29.0033C51.1984 29.0033 51.0629 29.249 50.6987 29.4189ZM50.638 28.3087C50.638 27.6156 49.2285 27.6 49.2285 26.552C49.2285 26.2894 49.3946 25.8433 49.7287 25.3647C49.8657 26.1661 50.1827 26.5826 50.8657 26.8452C52.2137 27.353 52.3961 28.1233 52.3961 28.9412C52.3961 30.3285 51.4414 32.0541 48.9864 32.0541C47.016 32.0541 45.6064 30.2659 45.6064 28.7558C45.6064 28.3393 45.7124 27.8777 45.9702 27.8777C46.1979 27.8777 46.2733 28.0621 46.4551 28.2466C47.1377 28.9412 47.88 29.1252 48.9559 29.1252C49.9259 29.1257 50.638 28.7252 50.638 28.3087Z" fill="#191C1F"/>
<path d="M39.9086 28.6428C39.9456 28.9647 39.7193 29.2551 39.4033 29.2927C39.0867 29.3304 38.7998 29.0998 38.7637 28.7784C38.7267 28.456 38.953 28.1647 39.2695 28.1271C39.5861 28.0894 39.8721 28.3205 39.9086 28.6428ZM37.0765 29.249C37.1408 29.7751 37.6235 30.1741 38.1682 30.1125C38.3648 30.0904 38.5472 30.0358 38.6689 29.9586C38.7901 30.4513 39.1969 30.7685 39.7466 30.6951C40.3047 30.6212 40.6842 30.1741 40.624 29.6038C40.6083 29.4504 40.5782 29.3567 40.5333 29.249C40.5333 29.249 40.6069 29.241 40.6624 29.2306C41.2099 29.1252 41.5787 28.6786 41.5329 28.1393C41.4727 27.5845 40.9831 27.1727 40.4736 27.2367C40.276 27.2612 40.0937 27.3379 39.972 27.4457C39.835 26.984 39.4079 26.5826 38.8248 26.6805C38.2977 26.7694 37.9493 27.224 38.002 27.8005C38.0108 27.8941 38.0321 28.001 38.0779 28.1082C38.0779 28.1082 37.9886 28.1219 37.9271 28.1308C37.4847 28.1977 37.0048 28.6504 37.0765 29.249Z" fill="#191C1F"/>
</g>
</g>
<defs>
<clipPath id="clip0">
<rect width="106" height="56" fill="white"/>
</clipPath>
<clipPath id="clip1">
<rect width="49.7778" height="56" fill="white" transform="translate(28.9998)"/>
</clipPath>
</defs>
</svg>
