<svg width="223" height="256" viewBox="0 0 223 256" fill="none" xmlns="http://www.w3.org/2000/svg">
<path d="M149.837 71.3321C149.855 69.8252 149.929 68.4063 151.1 67.2897C151.656 66.7597 152.353 66.418 153.1 66.2495C154.763 65.8745 160.941 66.0122 162.946 66.0909C164.337 66.1455 165.65 66.4952 166.602 67.5706C168.318 69.5075 167.554 72.8521 167.814 75.2207C169.71 75.9459 171.489 76.5912 173.309 77.5056L173.472 77.3986C175.431 76.0981 177.479 73.0356 180.152 73.5303C183.506 74.1508 188.357 80.5843 190.194 83.3382C190.931 84.4432 191.586 85.8625 191.264 87.2199C190.803 89.1664 188.154 90.1748 186.825 91.4617C187.619 93.1984 188.202 95.1952 189.217 96.7981C189.24 96.8343 189.262 96.8713 189.285 96.9075C189.299 96.9292 189.314 96.9503 189.328 96.9718C191.392 96.9703 194.053 96.6565 195.634 98.2696C196.231 98.8786 196.542 99.8612 196.697 100.677C197.151 103.07 196.995 108.739 196.864 111.348C196.796 112.703 196.466 114.579 195.367 115.515C193.724 116.915 191.105 116.48 189.123 116.502C188.439 118.431 187.707 120.258 186.768 122.077C188.487 123.411 191.192 124.728 191.482 127.1C191.733 129.158 190.698 130.891 189.45 132.43C187.591 134.723 183.32 139.325 180.303 139.627C178.793 139.778 177.287 139.024 176.163 138.085C175.323 137.383 174.499 136.665 173.651 135.97C173.606 135.982 173.56 135.994 173.515 136.007C172.434 136.312 171.533 136.999 170.484 137.371C169.803 137.612 169.005 137.62 168.36 137.905C168.13 138.006 168.051 138.075 167.936 138.292C166.652 140.701 169.444 144.999 165.196 146.445C163.335 147.078 156.282 147.058 154.153 146.798C153.408 146.707 152.682 146.532 152.012 146.186C151.112 145.721 150.441 145.014 150.132 144.042C149.552 142.223 150.536 139.697 149.483 138.187C147.69 137.355 145.903 136.834 144.155 135.853L144.012 135.951C142.021 137.332 140.486 139.962 137.701 139.451C137.58 139.429 137.46 139.4 137.341 139.368C139.384 146.993 140.273 155.093 141.307 162.908C141.748 166.239 142.534 169.917 142.348 173.268C142.288 174.347 141.943 175.357 141.399 176.289C140.448 177.914 138.863 179.196 137.013 179.661C134.661 180.252 129.713 179.892 127.129 179.886L108.524 179.884L69.5109 179.887L56.6358 179.892C54.2506 179.892 51.8375 179.965 49.4565 179.853C48.3305 179.8 47.2774 179.507 46.3153 178.909C46.2139 178.844 46.1141 178.778 46.0159 178.708C45.9176 178.639 45.8211 178.567 45.7265 178.493C45.6318 178.419 45.539 178.343 45.448 178.265C45.3571 178.186 45.2681 178.105 45.1812 178.023C45.0942 177.94 45.0093 177.855 44.9266 177.768C44.8438 177.681 44.7631 177.592 44.6846 177.501C44.6062 177.41 44.53 177.318 44.4561 177.223C44.3823 177.128 44.3108 177.032 44.2416 176.934C44.1725 176.836 44.1058 176.736 44.0414 176.635C43.9772 176.534 43.9155 176.431 43.8564 176.327C43.7972 176.223 43.7406 176.117 43.6866 176.01C43.6325 175.903 43.5812 175.794 43.5324 175.685C43.4838 175.575 43.4378 175.465 43.3946 175.353C43.3513 175.241 43.3108 175.128 43.2731 175.015C43.2353 174.901 43.2004 174.786 43.1683 174.671C43.1362 174.555 43.1069 174.439 43.0806 174.322C42.4502 171.515 45.6962 145.292 46.6325 141.238C47.006 139.622 47.5255 138.166 48.4427 136.77C52.9518 129.909 65.2661 124.004 73.0761 122.376C74.8732 122.002 75.9053 122.274 77.4175 123.272C83.2806 127.146 88.6962 129.843 95.9341 128.401C99.6126 127.668 102.837 125.986 105.93 123.931C106.973 123.238 108.173 122.292 109.465 122.179C111.539 121.998 119.729 124.979 122.14 125.961C124.187 126.794 126.179 127.83 128.254 128.58C128.193 126.677 128.06 125.091 129.458 123.596C130.03 122.984 130.747 122.395 131.423 121.901C130.653 120.119 129.925 118.321 129.238 116.506C127.11 116.51 124.392 116.91 122.756 115.258C122.263 114.76 121.835 114.125 121.644 113.447C121.048 111.327 121.323 104.938 121.37 102.427C121.401 100.726 121.644 99.2565 122.922 98.0403C123.62 97.376 124.425 96.9744 125.411 96.9898C126.674 97.0096 127.962 97.5053 128.999 96.4763C130.043 95.4387 130.865 92.8977 131.304 91.4863C129.293 90.2419 127.049 89.5383 126.462 86.9791C126.145 85.6015 126.651 84.4873 127.396 83.3479C129.231 80.5417 134.215 74.2195 137.55 73.5391C138.618 73.321 139.686 73.7062 140.568 74.2962C141.958 75.226 142.995 76.6102 144.401 77.5318L147.244 76.0713C148.091 75.8314 148.908 75.5315 149.732 75.226C149.835 73.9229 149.852 72.6386 149.837 71.3321ZM115.922 174.648L128.019 174.66C130.174 174.661 132.434 174.807 134.572 174.578C135.131 174.519 135.956 174.423 136.379 174.027C137.04 173.411 137.28 172.739 137.27 171.85C137.241 169.176 136.731 166.382 136.409 163.725C135.886 159.144 135.237 154.582 134.462 150.037C133.944 146.939 133.446 143.71 132.424 140.732C131.831 139.003 130.945 137.263 129.62 135.974C126.221 132.666 114.895 128.684 109.935 127.476C103.681 131.976 96.3574 135.086 88.5086 133.839C88.0273 133.759 87.5482 133.667 87.0714 133.563C86.5946 133.459 86.1208 133.343 85.6498 133.215C85.179 133.088 84.7116 132.949 84.2476 132.798C83.7837 132.647 83.3238 132.485 82.8681 132.311C82.4122 132.137 81.961 131.953 81.5146 131.756C81.068 131.56 80.6266 131.353 80.1905 131.135C79.7544 130.917 79.3241 130.689 78.8996 130.449C78.475 130.21 78.0567 129.96 77.6445 129.7C76.6974 129.09 75.1687 127.781 74.2234 127.369C67.5243 129.189 56.4036 133.414 52.7292 139.784C51.9539 141.128 51.4577 142.668 51.1439 144.182C50.5662 146.969 47.5489 170.888 48.0395 172.903C48.1673 173.428 48.4667 173.971 48.9545 174.238C49.5882 174.585 50.4193 174.647 51.127 174.676C53.704 174.781 56.3247 174.671 58.9061 174.657L71.6428 174.652L115.922 174.648ZM131.504 86.0894C133.403 87.2465 135.721 88.0294 136.311 90.3914C136.44 90.9102 136.452 91.4259 136.345 91.949C136.022 93.5269 133.926 98.7221 133.058 100.091C132.43 101.082 131.726 101.601 130.572 101.849C129.474 102.085 127.08 101.685 126.431 102.712C126.066 103.289 126.091 109.769 126.34 110.575C126.412 110.809 126.506 110.945 126.73 111.042C128.957 112.011 132.039 110.252 133.555 113.784C134.074 114.992 136.297 120.484 136.444 121.364C136.577 122.153 136.54 122.957 136.224 123.702C135.306 125.867 131.852 127.168 132.957 130.029C133.591 131.673 136.065 133.545 137.582 134.329C140.042 132.909 141.765 129.642 145.048 130.487C146.689 130.909 147.78 132.149 149.287 132.806C150.378 133.281 151.663 133.287 152.717 133.848C153.262 134.137 153.704 134.492 154.018 135.033C155.05 136.81 153.98 140.055 154.938 141.23C156.373 141.653 161.536 141.6 163.013 141.275C163.029 139.266 162.56 135.967 164.065 134.403C165.224 133.2 166.998 133.319 168.431 132.689C169.614 132.168 170.545 131.158 171.74 130.671C172.322 130.433 172.928 130.334 173.556 130.344C178.041 130.417 178.254 136.44 182.51 132.423C183.847 131.16 185.387 129.654 186.176 127.986L186.049 127.871C184.455 126.44 181.745 125.513 181.555 123.065C181.503 122.401 181.662 121.689 181.859 121.059C182.271 119.747 183.001 118.539 183.524 117.27C183.997 116.123 184.323 114.885 184.88 113.777C185.013 113.509 185.164 113.25 185.331 113.001C185.498 112.753 185.681 112.516 185.879 112.29C186.547 111.534 187.43 111.371 188.398 111.316C189.125 111.275 191.395 111.508 191.866 110.976C192.431 110.338 192.319 104.316 192.162 103.275C192.094 102.822 192.032 102.564 191.671 102.272C189.119 101.688 186.751 102.788 185.07 100.153C184.568 99.3661 182.023 93.4389 181.798 92.6211C181.579 91.8287 181.458 90.8709 181.644 90.0602C182.041 88.3401 184.561 86.9161 185.964 86.0364C184.427 83.5946 182.165 80.7727 179.748 79.1561L179.58 79.2375C177.225 80.4008 175.381 83.9426 172.316 82.9326C171.106 82.5335 170.241 81.5267 169.135 80.9474C167.021 79.8406 164.779 80.1784 163.569 77.7423C162.614 75.8224 163.139 73.1361 162.992 71.0339C160.318 70.9418 157.577 70.8964 154.906 71.0408C154.893 71.0762 154.88 71.1114 154.867 71.1472C153.941 73.8548 155.821 77.9305 152.55 79.578C151.468 80.1227 150.233 80.1978 149.124 80.6477C147.132 81.4568 145.805 83.7726 143.34 82.9492C141.748 82.4179 139.227 78.7161 137.67 79.4435C135.724 80.3527 132.651 84.2427 131.504 86.0894Z" fill="url(#paint0_linear_490_15)"/>
<path d="M157.388 87.114C161.362 86.625 165.565 87.7305 168.842 90.0101C168.969 90.0998 169.094 90.1909 169.219 90.2836C169.344 90.3762 169.467 90.4704 169.589 90.566C169.712 90.6616 169.833 90.7587 169.953 90.8574C170.073 90.956 170.192 91.0561 170.309 91.1577C170.427 91.2592 170.543 91.3621 170.658 91.4664C170.773 91.5708 170.887 91.6765 171 91.7837C171.112 91.8908 171.223 91.9992 171.333 92.109C171.443 92.2188 171.552 92.33 171.659 92.4425C171.766 92.5549 171.872 92.6687 171.976 92.7838C172.081 92.8988 172.184 93.0151 172.285 93.1327C172.387 93.2501 172.487 93.3689 172.586 93.489C172.684 93.6089 172.782 93.7301 172.877 93.8525C172.973 93.9749 173.067 94.0984 173.16 94.223C173.253 94.3476 173.344 94.4733 173.434 94.6003C173.523 94.7271 173.612 94.855 173.698 94.9841C173.785 95.1131 173.87 95.2432 173.953 95.3743C174.037 95.5052 174.118 95.6373 174.199 95.7705C174.279 95.9036 174.357 96.0376 174.434 96.1726C174.511 96.3076 174.587 96.4435 174.66 96.5803C174.734 96.7171 174.806 96.8548 174.876 96.9933C174.947 97.132 175.015 97.2714 175.082 97.4116C175.149 97.5518 175.214 97.6928 175.278 97.8347C175.341 97.9765 175.403 98.119 175.463 98.2623C175.523 98.4058 175.581 98.5499 175.638 98.6946C175.694 98.8394 175.749 98.9848 175.802 99.1308C175.855 99.2769 175.906 99.4236 175.956 99.5709C176.005 99.7183 176.053 99.8662 176.099 100.015C176.144 100.163 176.188 100.312 176.231 100.462C176.273 100.611 176.313 100.761 176.352 100.912C176.39 101.063 176.427 101.214 176.462 101.365C176.497 101.516 176.53 101.668 176.561 101.821C176.592 101.973 176.622 102.125 176.649 102.278C177.548 107.343 176.767 113.112 173.764 117.37C170.837 121.519 166.689 124.018 161.712 124.875C157.183 125.404 152.838 124.25 149.167 121.517C149.051 121.431 148.936 121.344 148.822 121.255C148.708 121.166 148.595 121.076 148.483 120.984C148.371 120.893 148.261 120.8 148.151 120.705C148.042 120.611 147.934 120.515 147.827 120.418C147.72 120.321 147.614 120.222 147.51 120.123C147.405 120.023 147.302 119.922 147.2 119.819C147.098 119.717 146.997 119.613 146.897 119.508C146.798 119.404 146.7 119.297 146.603 119.19C146.506 119.083 146.411 118.974 146.317 118.865C146.222 118.755 146.13 118.644 146.038 118.532C145.947 118.42 145.857 118.307 145.769 118.193C145.68 118.078 145.593 117.963 145.507 117.847C145.422 117.73 145.337 117.613 145.255 117.494C145.172 117.376 145.091 117.256 145.011 117.136C144.931 117.015 144.853 116.894 144.776 116.771C144.7 116.648 144.624 116.525 144.551 116.401C144.477 116.276 144.405 116.151 144.334 116.025C144.264 115.899 144.195 115.771 144.128 115.643C144.06 115.516 143.994 115.387 143.93 115.257C143.866 115.128 143.804 114.998 143.743 114.866C143.682 114.735 143.622 114.603 143.565 114.471C143.507 114.338 143.451 114.205 143.397 114.071C143.343 113.937 143.29 113.802 143.239 113.667C143.188 113.532 143.139 113.396 143.091 113.259C143.044 113.123 142.998 112.986 142.954 112.848C142.91 112.71 142.867 112.572 142.826 112.433C142.786 112.295 142.747 112.155 142.71 112.016C142.672 111.876 142.637 111.736 142.603 111.595C142.569 111.455 142.537 111.314 142.507 111.172C142.477 111.031 142.448 110.889 142.422 110.747C142.395 110.605 142.37 110.462 142.347 110.32C142.324 110.177 142.302 110.034 142.283 109.891C141.492 104.361 142.274 98.5019 145.707 93.9612C148.613 90.1189 152.601 87.7681 157.388 87.114ZM161.036 119.5C164.64 118.833 167.748 117.204 169.85 114.108C171.969 110.986 172.502 107.071 171.794 103.41C171.062 99.6245 168.987 96.3303 165.763 94.1846C163.409 92.6177 160.849 92.0888 158.063 92.2207C154.544 92.7799 151.612 94.3553 149.496 97.2941C147.089 100.637 146.433 105.217 147.127 109.23C147.162 109.434 147.202 109.637 147.246 109.84C147.291 110.042 147.341 110.243 147.395 110.443C147.45 110.643 147.509 110.841 147.573 111.038C147.638 111.235 147.707 111.43 147.781 111.623C147.855 111.817 147.933 112.008 148.017 112.198C148.1 112.387 148.188 112.575 148.28 112.76C148.373 112.945 148.47 113.128 148.572 113.309C148.673 113.489 148.779 113.667 148.89 113.842C149 114.017 149.115 114.19 149.233 114.359C149.352 114.529 149.475 114.695 149.602 114.859C149.729 115.022 149.86 115.183 149.995 115.34C150.13 115.497 150.269 115.65 150.411 115.801C150.554 115.951 150.7 116.097 150.85 116.24C150.999 116.383 151.153 116.522 151.309 116.658C151.466 116.793 151.626 116.925 151.789 117.052C151.952 117.18 152.118 117.303 152.287 117.423C154.915 119.261 157.885 119.819 161.036 119.5Z" fill="#30A3FD"/>
<path d="M71.1278 80.6916C71.5541 79.8955 72.017 79.1217 72.5166 78.3701C73.0161 77.6187 73.55 76.8929 74.1183 76.1927C78.1547 71.2546 84.2284 67.7133 90.5823 67.102C96.9072 66.4934 103.036 68.6404 107.896 72.686L108.605 73.3045C109.398 74.1523 110.184 75.0063 110.964 75.8662C112.088 77.6276 113.294 79.306 114.2 81.2031C117.278 87.6579 117.634 95.6544 116.162 102.577C116.119 102.79 116.073 103.002 116.025 103.213C115.976 103.424 115.925 103.635 115.871 103.845C115.818 104.055 115.761 104.265 115.702 104.473C115.644 104.682 115.582 104.89 115.519 105.097C115.455 105.304 115.388 105.511 115.319 105.716C115.25 105.922 115.179 106.126 115.105 106.33C115.031 106.534 114.954 106.737 114.876 106.939C114.797 107.14 114.715 107.341 114.631 107.541C114.547 107.741 114.461 107.939 114.373 108.137C114.284 108.335 114.193 108.531 114.099 108.727C114.006 108.922 113.91 109.116 113.811 109.309C113.713 109.502 113.612 109.694 113.51 109.885C113.407 110.075 113.301 110.264 113.194 110.452C113.086 110.64 112.976 110.826 112.864 111.011C112.752 111.197 112.637 111.38 112.521 111.563C112.404 111.745 112.285 111.926 112.164 112.105C112.043 112.284 111.92 112.462 111.794 112.638C111.669 112.815 111.541 112.989 111.411 113.162C111.282 113.335 111.15 113.507 111.016 113.677C110.882 113.846 110.746 114.014 110.608 114.181C110.47 114.347 110.33 114.512 110.187 114.675C110.045 114.838 109.901 114.999 109.755 115.158C109.609 115.317 109.461 115.475 109.311 115.63C109.161 115.786 109.01 115.94 108.856 116.092C108.702 116.244 108.547 116.393 108.39 116.541C108.232 116.689 108.073 116.835 107.912 116.979C107.751 117.123 107.589 117.265 107.424 117.405C107.26 117.545 107.094 117.683 106.926 117.819C106.758 117.955 106.589 118.088 106.418 118.22C106.247 118.352 106.074 118.481 105.9 118.608C105.726 118.736 105.55 118.861 105.373 118.984C105.196 119.107 105.017 119.227 104.837 119.346C104.681 119.447 104.525 119.547 104.367 119.645C104.209 119.743 104.05 119.839 103.89 119.932C103.73 120.026 103.568 120.118 103.406 120.208C103.243 120.298 103.08 120.386 102.915 120.471C102.751 120.557 102.585 120.641 102.419 120.722C102.252 120.804 102.084 120.884 101.916 120.961C101.747 121.038 101.578 121.114 101.407 121.187C101.237 121.26 101.066 121.331 100.893 121.4C100.721 121.469 100.548 121.536 100.374 121.601C100.201 121.665 100.026 121.728 99.8507 121.788C99.6754 121.848 99.4993 121.906 99.3225 121.962C99.1458 122.018 98.9684 122.072 98.7902 122.123C98.6122 122.175 98.4336 122.224 98.2542 122.271C98.0751 122.318 97.8952 122.363 97.7147 122.405C97.5344 122.448 97.3536 122.488 97.1723 122.526C96.9909 122.564 96.8091 122.6 96.6269 122.633C96.4446 122.667 96.2619 122.698 96.0789 122.727C95.896 122.756 95.7126 122.782 95.5289 122.807C95.3452 122.831 95.1613 122.853 94.9772 122.873C94.7929 122.893 94.6085 122.91 94.424 122.925C94.2393 122.94 94.0545 122.953 93.8696 122.964C93.6846 122.974 93.4996 122.983 93.3144 122.989C93.1293 122.994 92.9441 122.998 92.7588 122.999C92.5736 123.001 92.3884 123 92.2032 122.996C92.018 122.993 91.8329 122.988 91.6478 122.98C91.4628 122.972 91.2778 122.962 91.0928 122.949C90.908 122.937 90.7234 122.922 90.539 122.905C90.3545 122.887 90.1703 122.868 89.9864 122.846C89.8024 122.825 89.6187 122.801 89.4353 122.774C89.2519 122.748 89.0689 122.719 88.8862 122.689C88.7035 122.658 88.5212 122.625 88.3392 122.589C88.1574 122.554 87.976 122.516 87.795 122.476C81.3988 121.068 75.9884 116.905 72.5001 111.373C68.1778 104.518 67.0392 95.2374 68.7833 87.3816C68.9093 86.8024 69.053 86.2277 69.2145 85.6574C69.3758 85.0872 69.5544 84.5225 69.7503 83.9635C69.9462 83.4043 70.159 82.8518 70.3889 82.3061C70.6188 81.7602 70.8651 81.2221 71.1278 80.6916ZM92.8364 117.713C97.8897 117.519 102.428 115.483 105.885 111.738C110.324 106.929 112.395 100.297 112.144 93.78C111.913 87.8004 109.679 81.5535 105.252 77.4329C101.746 74.1695 97.3756 72.3216 92.5833 72.3572C87.2275 72.571 82.3576 74.7903 78.6971 78.7743C74.3806 83.4724 72.6927 89.6148 72.9587 95.9242C73.2203 102.128 75.4967 108.453 80.1198 112.698C83.6969 115.983 87.9901 117.695 92.8364 117.713Z" fill="url(#paint1_linear_490_15)"/>
<path d="M193.901 139.013C194.274 138.989 194.672 138.993 195.04 139.064C195.717 139.194 196.295 139.534 196.651 140.128C196.878 140.507 196.991 140.925 196.999 141.365C197.046 143.96 195.579 149.87 194.916 152.573C189.367 175.196 175.702 195.249 155.479 207.428C154.907 207.769 154.33 208.103 153.749 208.43C153.168 208.757 152.583 209.077 151.994 209.39C151.405 209.703 150.813 210.008 150.216 210.306C149.62 210.604 149.02 210.896 148.416 211.18C147.813 211.463 147.206 211.739 146.595 212.009C145.985 212.278 145.371 212.539 144.754 212.794C144.137 213.048 143.517 213.294 142.894 213.533C142.271 213.773 141.645 214.004 141.017 214.227C140.388 214.452 139.756 214.668 139.122 214.877C138.488 215.085 137.852 215.286 137.213 215.479C136.574 215.672 135.932 215.857 135.289 216.035C134.645 216.212 133.999 216.381 133.351 216.543C132.704 216.705 132.054 216.859 131.402 217.005C130.751 217.151 130.097 217.289 129.442 217.419C128.787 217.55 128.131 217.672 127.473 217.785C126.815 217.9 126.155 218.006 125.494 218.104C124.834 218.203 124.172 218.293 123.509 218.374C122.846 218.456 122.182 218.53 121.517 218.597C120.853 218.663 120.187 218.721 119.521 218.771C118.855 218.821 118.188 218.862 117.521 218.896C116.854 218.93 116.186 218.956 115.518 218.972C114.851 218.989 114.183 218.999 113.514 219C112.846 219.001 112.178 218.995 111.51 218.98C110.843 218.965 110.175 218.941 109.508 218.91C108.84 218.879 108.174 218.839 107.507 218.793C106.841 218.744 106.175 218.689 105.51 218.626C104.845 218.562 104.181 218.491 103.518 218.411C102.855 218.33 102.192 218.242 101.531 218.147C100.87 218.051 100.211 217.947 99.5522 217.836C98.8937 217.724 98.2367 217.604 97.5811 217.476C96.9257 217.348 96.2719 217.213 95.6197 217.069C94.9676 216.925 94.3173 216.773 93.6688 216.614C92.586 216.351 91.5093 216.067 90.4388 215.759C89.3682 215.451 88.3048 215.121 87.2484 214.767C86.1919 214.415 85.1435 214.041 84.1032 213.644C83.063 213.247 82.0317 212.828 81.0093 212.389C79.987 211.948 78.9746 211.486 77.972 211.004C76.9696 210.52 75.978 210.016 74.9971 209.492C74.0163 208.966 73.0471 208.421 72.0897 207.855C71.1322 207.289 70.1874 206.703 69.255 206.098C68.1573 205.4 66.2837 204.44 65.5996 203.321C65.9508 205.332 67.9556 209.312 66.931 211.145C66.6473 211.653 66.1625 211.941 65.6079 212.084C64.9617 212.252 64.2955 212.179 63.7253 211.827C63.1925 211.499 62.8015 210.973 62.5306 210.421C61.5575 208.436 60.5856 203.53 60.0904 201.216C59.4683 200.137 58.7895 197.007 59.0618 195.814C59.1603 195.382 59.3371 194.928 59.7445 194.701C60.3593 194.359 61.3158 194.249 62.0101 194.192C63.9612 194.036 75.2404 193.942 76.7328 194.325C77.2803 194.466 77.7037 194.903 77.9701 195.38C78.3144 195.998 78.3801 196.763 78.1763 197.437C78.0496 197.858 77.7412 198.386 77.3322 198.589C76.0833 199.211 69.681 199.266 68.2656 198.85C68.2291 198.84 68.1932 198.826 68.1571 198.814C68.2046 198.9 68.2007 198.9 68.2723 198.992C69.2124 200.195 71.1904 201.224 72.4865 202.057C73.0723 202.429 73.6632 202.792 74.2592 203.147C74.8552 203.503 75.4561 203.85 76.062 204.189C76.6678 204.527 77.2783 204.857 77.8933 205.179C78.5084 205.501 79.1279 205.814 79.7519 206.118C80.3758 206.423 81.0039 206.719 81.6361 207.006C82.2684 207.294 82.9046 207.573 83.5446 207.841C84.1847 208.111 84.8284 208.372 85.4758 208.624C86.1234 208.875 86.7743 209.118 87.4285 209.353C88.0828 209.586 88.7402 209.811 89.4008 210.026C90.0615 210.242 90.725 210.449 91.3913 210.646C92.0578 210.843 92.727 211.031 93.3987 211.209C94.0705 211.388 94.7446 211.557 95.4211 211.718C96.0975 211.878 96.7761 212.029 97.4568 212.17C98.1375 212.312 98.8201 212.444 99.5046 212.567C100.189 212.689 100.875 212.802 101.563 212.905C102.25 213.008 102.939 213.102 103.63 213.187C104.251 213.268 104.873 213.34 105.496 213.404C106.119 213.469 106.743 213.526 107.368 213.576C107.993 213.626 108.618 213.668 109.243 213.703C109.869 213.737 110.495 213.763 111.121 213.781C111.748 213.801 112.374 213.813 113 213.817C113.627 213.819 114.254 213.815 114.88 213.803C115.507 213.791 116.133 213.772 116.759 213.744C117.385 213.717 118.01 213.682 118.635 213.639C119.261 213.597 119.885 213.547 120.509 213.488C121.133 213.431 121.756 213.365 122.378 213.29C123 213.217 123.621 213.137 124.242 213.048C124.862 212.959 125.481 212.863 126.099 212.76C126.716 212.656 127.333 212.545 127.948 212.426C128.563 212.306 129.176 212.179 129.788 212.046C130.4 211.912 131.01 211.77 131.618 211.62C132.226 211.471 132.833 211.315 133.437 211.151C134.041 210.988 134.643 210.816 135.244 210.636C135.844 210.458 136.441 210.272 137.037 210.079C137.632 209.886 138.225 209.685 138.815 209.476C139.406 209.269 139.994 209.054 140.579 208.831C141.164 208.608 141.746 208.378 142.325 208.142C142.904 207.905 143.48 207.661 144.053 207.411C144.627 207.159 145.197 206.901 145.763 206.636C146.33 206.372 146.893 206.1 147.453 205.821C148.013 205.542 148.569 205.256 149.122 204.964C149.675 204.671 150.224 204.371 150.769 204.066C151.314 203.76 151.856 203.447 152.393 203.127C152.93 202.808 153.464 202.482 153.993 202.149C154.522 201.818 155.047 201.48 155.568 201.134C156.089 200.789 156.605 200.437 157.117 200.078C157.629 199.721 158.137 199.357 158.64 198.987C159.142 198.616 159.641 198.239 160.134 197.856C160.688 197.419 161.237 196.975 161.78 196.524C162.323 196.073 162.86 195.616 163.392 195.153C163.923 194.689 164.449 194.218 164.969 193.741C165.489 193.265 166.003 192.782 166.511 192.293C167.019 191.804 167.521 191.309 168.017 190.807C168.513 190.306 169.002 189.799 169.485 189.285C169.968 188.771 170.445 188.252 170.916 187.728C171.386 187.203 171.85 186.672 172.307 186.136C172.764 185.6 173.214 185.058 173.658 184.511C174.102 183.964 174.539 183.412 174.969 182.854C175.399 182.296 175.822 181.733 176.238 181.166C176.654 180.597 177.063 180.024 177.465 179.446C177.867 178.868 178.261 178.285 178.649 177.697C179.036 177.109 179.416 176.517 179.789 175.92C180.162 175.323 180.527 174.722 180.885 174.116C181.243 173.51 181.593 172.9 181.936 172.286C182.278 171.672 182.614 171.053 182.941 170.431C183.268 169.808 183.588 169.182 183.9 168.552C184.212 167.921 184.516 167.287 184.812 166.65C185.108 166.012 185.396 165.371 185.676 164.726C185.957 164.081 186.229 163.433 186.493 162.782C186.757 162.131 187.013 161.476 187.261 160.819C187.509 160.161 187.749 159.501 187.981 158.837C188.212 158.174 188.435 157.508 188.651 156.839C188.866 156.17 189.072 155.499 189.271 154.825C189.469 154.151 189.659 153.475 189.841 152.796C190.023 152.118 190.196 151.437 190.361 150.754C190.525 150.072 190.682 149.387 190.83 148.701C190.977 148.014 191.117 147.326 191.248 146.636C191.378 145.946 191.5 145.255 191.614 144.562C191.728 143.869 191.833 143.175 191.929 142.479C192.026 141.784 192.113 141.087 192.193 140.39C192.671 139.7 193.151 139.351 193.901 139.013Z" fill="#6174FE"/>
<path d="M123.435 40.1389C123.35 39.2636 123.353 38.6606 123.944 37.9326C124.368 37.4088 124.915 37.0497 125.604 37.0045C126.384 36.9534 127.179 37.3433 127.731 37.87C129.417 39.4819 130.843 41.4989 132.341 43.2855C133.392 44.5389 134.862 45.9288 135.665 47.3363C135.877 47.7079 135.988 48.0901 135.999 48.5175C136.018 49.2136 135.765 49.7538 135.272 50.2403C134 51.4968 131.721 52.0922 130.155 53.0045C128.324 53.8801 125.681 55.1744 124.215 56.5232C123.552 56.8516 122.953 57.1589 122.215 57.2751C121.276 57.0349 120.514 56.7799 119.995 55.8897C119.66 55.3148 119.49 54.7265 119.692 54.0681C120.331 51.9946 124.175 50.5605 126.001 49.6306C125.421 49.492 124.84 49.3604 124.258 49.2357C123.675 49.1112 123.091 48.9938 122.505 48.8834C121.92 48.773 121.333 48.6697 120.745 48.5736C120.157 48.4775 119.567 48.3885 118.977 48.3066C118.387 48.2249 117.795 48.1502 117.203 48.0827C116.611 48.0153 116.018 47.955 115.425 47.9019C114.831 47.8489 114.237 47.803 113.642 47.7644C113.047 47.7257 112.452 47.6942 111.856 47.67C111.261 47.6458 110.665 47.6289 110.069 47.6191C109.473 47.6093 108.877 47.6069 108.281 47.6117C107.685 47.6164 107.089 47.6283 106.493 47.6475C105.897 47.6666 105.302 47.693 104.707 47.7267C104.112 47.7603 103.517 47.8012 102.923 47.8493C102.329 47.8974 101.736 47.9527 101.143 48.0152C100.55 48.0777 99.9581 48.1473 99.3671 48.2243C98.7761 48.3011 98.1861 48.3851 97.5973 48.4762C97.0084 48.5675 96.4207 48.6658 95.8341 48.7712C95.2476 48.8767 94.6625 48.9892 94.0787 49.1088C93.4951 49.2285 92.913 49.3552 92.3324 49.489C91.7518 49.6228 91.1729 49.7636 90.5957 49.9113C90.0186 50.0592 89.4435 50.214 88.8703 50.3758C88.2969 50.5377 87.7257 50.7064 87.1567 50.882C86.5875 51.0577 86.0207 51.2402 85.4561 51.4297C84.8916 51.6191 84.3294 51.8153 83.7696 52.0185C83.2099 52.2215 82.6528 52.4313 82.0982 52.6479C81.5437 52.8645 80.9919 53.0878 80.4429 53.3178C79.8938 53.5477 79.3477 53.7843 78.8045 54.0276C78.2614 54.2708 77.7213 54.5206 77.1842 54.777C76.6472 55.0333 76.1134 55.2961 75.5829 55.5654C75.0525 55.8348 74.5254 56.1105 74.0018 56.3926C73.478 56.6748 72.9579 56.9632 72.4413 57.2579C71.9248 57.5526 71.412 57.8535 70.9028 58.1608C70.3116 58.5135 69.7247 58.8732 69.1423 59.2399C68.5597 59.6067 67.9817 59.9803 67.4083 60.3608C66.835 60.7415 66.2663 61.1288 65.7023 61.5229C65.1384 61.9171 64.5793 62.3178 64.025 62.7252C63.4708 63.1327 62.9217 63.5468 62.3775 63.9674C61.8334 64.388 61.2944 64.815 60.7606 65.2484C60.2269 65.6818 59.6984 66.1216 59.1753 66.5677C58.6522 67.0138 58.1346 67.4661 57.6226 67.9245C57.1105 68.383 56.6041 68.8475 56.1034 69.318C55.6025 69.7886 55.1075 70.265 54.6183 70.7474C54.1292 71.2297 53.6459 71.7179 53.1686 72.2118C52.6913 72.7056 52.2201 73.2051 51.755 73.7103C51.2898 74.2154 50.8308 74.7261 50.3781 75.2422C49.9254 75.7583 49.479 76.2798 49.0389 76.8066C48.5988 77.3334 48.1652 77.8653 47.7382 78.4024C47.311 78.9395 46.8904 79.4817 46.4765 80.0288C46.0538 80.5929 45.5683 81.1607 45.2162 81.7688L43.6755 83.9583C35.2904 97.1848 31.2265 110.494 30.9605 126.1C30.925 128.18 31.0949 130.261 31.151 132.339C31.1758 133.268 31.1734 134.557 30.4553 135.251C29.9572 135.731 29.2673 136.019 28.5691 135.999C27.8941 135.98 27.2848 135.729 26.8454 135.212C26.4482 134.745 26.239 134.146 26.1389 133.551C25.9062 132.168 26.0324 130.614 26.0494 129.211C26.0971 125.275 26.2271 121.363 26.6644 117.448C26.7362 116.759 26.8167 116.07 26.9058 115.383C26.995 114.696 27.0927 114.01 27.1991 113.325C27.3055 112.64 27.4206 111.957 27.5442 111.275C27.6678 110.593 27.8 109.913 27.9407 109.234C28.0815 108.555 28.2307 107.879 28.3885 107.204C28.5463 106.529 28.7126 105.856 28.8874 105.185C29.0621 104.514 29.2452 103.845 29.4368 103.179C29.6283 102.513 29.8283 101.849 30.0367 101.187C30.245 100.526 30.4615 99.8674 30.6864 99.2113C30.9112 98.5552 31.1444 97.9019 31.3858 97.2516C31.6271 96.6015 31.8765 95.9543 32.1341 95.3102C32.3918 94.666 32.6574 94.0252 32.9312 93.3876C33.205 92.7501 33.4868 92.1161 33.7765 91.4855C34.0662 90.8549 34.3639 90.228 34.6695 89.6048C34.975 88.9815 35.2882 88.3621 35.6093 87.7467C35.9304 87.1312 36.2593 86.5198 36.5958 85.9125C36.9324 85.3052 37.2765 84.7021 37.6282 84.1033C37.9798 83.5044 38.339 82.9099 38.7057 82.32C39.0724 81.7301 39.4464 81.1448 39.8278 80.564C40.2092 79.9833 40.5979 79.4074 40.9937 78.8363C41.3898 78.2653 41.7928 77.6992 42.2029 77.1381C42.6131 76.5769 43.0303 76.0208 43.4545 75.4701C43.8787 74.9193 44.3097 74.3738 44.7475 73.8337C45.1855 73.2935 45.6301 72.7588 46.0814 72.2296C46.5328 71.7005 46.9908 71.177 47.4554 70.6592C47.9199 70.1414 48.3909 69.6294 48.8684 69.1232C49.3458 68.617 49.8296 68.1167 50.3197 67.6223C50.8096 67.1281 51.3058 66.6401 51.8083 66.1581C52.3106 65.6762 52.8189 65.2005 53.3332 64.731C53.8475 64.2616 54.3676 63.7986 54.8936 63.3421C55.4196 62.8856 55.9513 62.4357 56.4886 61.9923C57.0258 61.5488 57.5686 61.1121 58.1169 60.6822C70.8643 50.5814 86.8449 43.7578 103.205 42.5252C108.362 42.1365 113.599 42.3769 118.734 42.9422C121.248 43.4118 123.817 43.7099 126.343 44.149C125.256 42.8773 124.27 41.5877 123.435 40.1389Z" fill="url(#paint2_linear_490_15)"/>
<defs>
<linearGradient id="paint0_linear_490_15" x1="123.356" y1="180.439" x2="114.332" y2="69.6165" gradientUnits="userSpaceOnUse">
<stop stop-color="#5C77FF"/>
<stop offset="1" stop-color="#0CBAFF"/>
</linearGradient>
<linearGradient id="paint1_linear_490_15" x1="94.1691" y1="122.526" x2="90.6692" y2="67.3646" gradientUnits="userSpaceOnUse">
<stop stop-color="#299DFF"/>
<stop offset="1" stop-color="#0FBDFF"/>
</linearGradient>
<linearGradient id="paint2_linear_490_15" x1="87.4899" y1="124.366" x2="72.8102" y2="47.3964" gradientUnits="userSpaceOnUse">
<stop stop-color="#24A5FF"/>
<stop offset="1" stop-color="#0DC0FF"/>
</linearGradient>
</defs>
</svg>
