<svg width="178" height="220" viewBox="0 0 178 220" fill="none" xmlns="http://www.w3.org/2000/svg">
<g filter="url(#filter0_f_65_179)">
<path d="M133.47 84.6638C117.274 73.9171 95.4319 78.335 84.6851 94.5314C73.9384 110.728 78.3563 132.57 94.5527 143.316" stroke="url(#paint0_linear_65_179)" stroke-width="20"/>
</g>
<g opacity="0.25" filter="url(#filter1_f_65_179)">
<path d="M141.29 89.8528C125.094 79.1061 103.252 83.5239 92.5055 99.7204C81.7587 115.917 86.1766 137.759 102.373 148.505" stroke="url(#paint1_linear_65_179)" stroke-width="20"/>
</g>
<path d="M133.47 84.6638C117.274 73.9171 95.4319 78.335 84.6851 94.5314C73.9384 110.728 78.3563 132.57 94.5527 143.316" stroke="url(#paint2_linear_65_179)" stroke-width="20"/>
<defs>
<filter id="filter0_f_65_179" x="0.811523" y="0.790527" width="206.188" height="218.858" filterUnits="userSpaceOnUse" color-interpolation-filters="sRGB">
<feFlood flood-opacity="0" result="BackgroundImageFix"/>
<feBlend mode="normal" in="SourceGraphic" in2="BackgroundImageFix" result="shape"/>
<feGaussianBlur stdDeviation="34" result="effect1_foregroundBlur_65_179"/>
</filter>
<filter id="filter1_f_65_179" x="20.6318" y="17.9795" width="182.188" height="194.858" filterUnits="userSpaceOnUse" color-interpolation-filters="sRGB">
<feFlood flood-opacity="0" result="BackgroundImageFix"/>
<feBlend mode="normal" in="SourceGraphic" in2="BackgroundImageFix" result="shape"/>
<feGaussianBlur stdDeviation="28" result="effect1_foregroundBlur_65_179"/>
</filter>
<linearGradient id="paint0_linear_65_179" x1="-2808.75" y1="-1783.09" x2="1082.99" y2="-7648.35" gradientUnits="userSpaceOnUse">
<stop stop-color="#0476D9"/>
<stop offset="1" stop-color="#EE05F2"/>
</linearGradient>
<linearGradient id="paint1_linear_65_179" x1="-2800.93" y1="-1777.9" x2="1090.81" y2="-7643.16" gradientUnits="userSpaceOnUse">
<stop stop-color="#0476D9"/>
<stop offset="1" stop-color="#EE05F2"/>
</linearGradient>
<linearGradient id="paint2_linear_65_179" x1="88.9307" y1="150.191" x2="137.645" y2="75.9877" gradientUnits="userSpaceOnUse">
<stop stop-color="#0476D9"/>
<stop offset="1" stop-color="#EE05F2"/>
</linearGradient>
</defs>
</svg>
