<svg width="1281" height="986" viewBox="0 0 1281 986" fill="none" xmlns="http://www.w3.org/2000/svg">
<g opacity="0.6">
<mask id="mask0_512_113" style="mask-type:luminance" maskUnits="userSpaceOnUse" x="0" y="1" width="1281" height="985">
<path d="M1281 986H0V1H1281V986Z" fill="white"/>
</mask>
<g mask="url(#mask0_512_113)">
<g opacity="0.5">
<path fill-rule="evenodd" clip-rule="evenodd" d="M1875 986H-594L210.829 582.312H1070.17L1875 986ZM791.181 984.224L693.145 582.502H587.855L489.819 984.224H791.181ZM639.818 627.927C639.913 627.97 640.009 628.012 640.105 628.054C640.225 628.054 640.356 628.054 640.5 628.054C640.62 628.054 640.739 628.054 640.859 628.054C640.979 628.012 641.075 627.97 641.146 627.927C641.242 627.927 641.314 627.906 641.362 627.864C641.41 627.822 641.434 627.779 641.434 627.737V624.692C641.434 624.649 641.41 624.607 641.362 624.565C641.314 624.523 641.242 624.48 641.146 624.438C641.051 624.438 640.955 624.417 640.859 624.375C640.739 624.375 640.62 624.375 640.5 624.375C640.356 624.375 640.237 624.375 640.141 624.375C640.021 624.417 639.913 624.438 639.818 624.438C639.746 624.48 639.686 624.523 639.638 624.565C639.59 624.607 639.566 624.649 639.566 624.692L639.53 627.737C639.53 627.779 639.554 627.822 639.602 627.864C639.65 627.906 639.722 627.927 639.818 627.927ZM639.782 640.997C639.877 641.039 639.985 641.06 640.105 641.06C640.225 641.06 640.356 641.06 640.5 641.06C640.62 641.06 640.739 641.06 640.859 641.06C640.979 641.06 641.087 641.039 641.182 640.997C641.278 640.954 641.35 640.912 641.398 640.87C641.446 640.827 641.469 640.785 641.469 640.743V637.38C641.469 637.338 641.446 637.296 641.398 637.253C641.35 637.211 641.278 637.169 641.182 637.127C641.087 637.084 640.979 637.063 640.859 637.063C640.739 637.063 640.62 637.063 640.5 637.063C640.356 637.063 640.225 637.063 640.105 637.063C639.985 637.063 639.877 637.084 639.782 637.127C639.71 637.169 639.638 637.211 639.566 637.253C639.518 637.296 639.494 637.338 639.494 637.38V640.743C639.494 640.785 639.518 640.827 639.566 640.87C639.614 640.912 639.686 640.954 639.782 640.997ZM639.71 671.386C639.806 671.386 639.925 671.407 640.069 671.449C640.189 671.492 640.332 671.513 640.5 671.513C640.644 671.513 640.787 671.492 640.931 671.449C641.051 671.407 641.158 671.386 641.254 671.386C641.374 671.344 641.458 671.28 641.505 671.196C641.553 671.153 641.577 671.111 641.577 671.069V666.881C641.577 666.839 641.541 666.797 641.469 666.755C641.422 666.712 641.35 666.67 641.254 666.628C641.158 666.585 641.039 666.543 640.895 666.501C640.775 666.501 640.644 666.501 640.5 666.501C640.332 666.501 640.189 666.501 640.069 666.501C639.925 666.543 639.806 666.585 639.71 666.628C639.614 666.67 639.542 666.712 639.494 666.755C639.423 666.797 639.387 666.839 639.387 666.881V671.069C639.387 671.111 639.411 671.153 639.458 671.196C639.53 671.28 639.614 671.344 639.71 671.386ZM639.351 709.135C639.399 709.177 639.482 709.24 639.602 709.325C639.722 709.367 639.853 709.388 639.997 709.388C640.141 709.431 640.308 709.452 640.5 709.452C640.668 709.452 640.823 709.431 640.967 709.388C641.11 709.388 641.242 709.367 641.362 709.325C641.482 709.24 641.565 709.177 641.613 709.135C641.685 709.05 641.721 708.986 641.721 708.944V703.678C641.721 703.594 641.685 703.53 641.613 703.488C641.541 703.404 641.458 703.34 641.362 703.298C641.242 703.255 641.11 703.234 640.967 703.234C640.823 703.192 640.668 703.171 640.5 703.171C640.332 703.171 640.165 703.192 639.997 703.234C639.853 703.234 639.734 703.255 639.638 703.298C639.518 703.34 639.423 703.404 639.351 703.488C639.303 703.53 639.279 703.594 639.279 703.678L639.243 708.944C639.243 708.986 639.279 709.05 639.351 709.135ZM639.315 822.951C639.458 823.036 639.638 823.121 639.854 823.205C640.045 823.248 640.261 823.269 640.5 823.269C640.715 823.269 640.931 823.248 641.146 823.205C641.338 823.121 641.505 823.036 641.649 822.951C641.793 822.867 641.912 822.782 642.008 822.698C642.104 822.571 642.152 822.444 642.152 822.317L642.116 813.054C642.116 812.927 642.068 812.801 641.972 812.674C641.9 812.589 641.781 812.505 641.613 812.42C641.469 812.335 641.302 812.272 641.11 812.23C640.919 812.187 640.715 812.166 640.5 812.166C640.261 812.166 640.045 812.187 639.854 812.23C639.662 812.272 639.494 812.335 639.351 812.42C639.207 812.505 639.087 812.589 638.992 812.674C638.92 812.801 638.884 812.927 638.884 813.054L638.848 822.317C638.848 822.444 638.884 822.571 638.956 822.698C639.052 822.782 639.171 822.867 639.315 822.951ZM639.207 864.253C639.375 864.338 639.566 864.422 639.782 864.507C639.997 864.549 640.237 864.57 640.5 864.57C640.739 864.57 640.967 864.549 641.182 864.507C641.398 864.422 641.589 864.338 641.757 864.253C641.924 864.126 642.056 863.999 642.152 863.872C642.248 863.745 642.295 863.597 642.295 863.428L642.26 852.453C642.26 852.326 642.212 852.199 642.116 852.072C642.02 851.945 641.889 851.818 641.721 851.691C641.553 851.607 641.374 851.543 641.182 851.501C640.967 851.416 640.739 851.374 640.5 851.374C640.237 851.374 640.009 851.416 639.818 851.501C639.602 851.543 639.411 851.607 639.243 851.691C639.075 851.818 638.956 851.945 638.884 852.072C638.788 852.199 638.74 852.326 638.74 852.453L638.704 863.428C638.704 863.597 638.74 863.745 638.812 863.872C638.908 863.999 639.04 864.126 639.207 864.253ZM639.099 913.739C639.267 913.865 639.471 913.95 639.71 913.992C639.949 914.077 640.213 914.119 640.5 914.119C640.763 914.119 641.015 914.077 641.254 913.992C641.493 913.95 641.709 913.865 641.9 913.739C642.068 913.612 642.2 913.464 642.295 913.294C642.415 913.125 642.475 912.956 642.475 912.787L642.403 899.527C642.403 899.358 642.355 899.189 642.26 899.02C642.164 898.851 642.032 898.724 641.865 898.639C641.673 898.512 641.458 898.406 641.218 898.322C641.003 898.28 640.763 898.258 640.5 898.258C640.213 898.258 639.961 898.28 639.746 898.322C639.506 898.406 639.303 898.512 639.135 898.639C638.944 898.724 638.8 898.851 638.704 899.02C638.609 899.189 638.561 899.358 638.561 899.527L638.525 912.787C638.525 912.956 638.573 913.125 638.669 913.294C638.764 913.464 638.908 913.612 639.099 913.739ZM642.439 956.055C642.343 955.886 642.2 955.717 642.008 955.548C641.793 955.421 641.565 955.315 641.326 955.23C641.063 955.146 640.787 955.103 640.5 955.103C640.189 955.103 639.913 955.146 639.674 955.23C639.411 955.315 639.183 955.421 638.992 955.548C638.776 955.717 638.621 955.886 638.525 956.055C638.405 956.267 638.345 956.478 638.345 956.69L638.309 964.747C638.309 965.001 638.369 965.212 638.489 965.381C638.609 965.593 638.764 965.783 638.956 965.952C639.147 966.079 639.375 966.185 639.638 966.269C639.901 966.354 640.189 966.396 640.5 966.396C640.787 966.396 641.063 966.354 641.326 966.269C641.589 966.185 641.817 966.079 642.008 965.952C642.224 965.783 642.379 965.593 642.475 965.381C642.595 965.212 642.655 965.001 642.655 964.747L642.619 956.69C642.619 956.478 642.559 956.267 642.439 956.055ZM639.674 605.215C639.65 605.172 639.638 605.13 639.638 605.088V602.55C639.638 602.508 639.662 602.487 639.71 602.487C639.758 602.444 639.818 602.402 639.889 602.36C639.961 602.36 640.045 602.339 640.141 602.296C640.261 602.296 640.38 602.296 640.5 602.296C640.62 602.296 640.727 602.296 640.823 602.296C640.919 602.339 641.003 602.36 641.074 602.36C641.17 602.402 641.242 602.444 641.29 602.487C641.314 602.487 641.326 602.508 641.326 602.55L641.362 605.088C641.362 605.13 641.338 605.172 641.29 605.215C641.242 605.257 641.182 605.278 641.11 605.278C641.015 605.32 640.919 605.342 640.823 605.342C640.727 605.384 640.62 605.405 640.5 605.405C640.38 605.405 640.261 605.384 640.141 605.342C640.045 605.342 639.961 605.32 639.889 605.278C639.794 605.278 639.722 605.257 639.674 605.215ZM1686.36 892.422H1628.51L1706.44 933.85H1768.85L1686.36 892.422ZM1049.95 709.959L1031.28 694.352H995.225L1012.18 709.959H1049.95ZM1012.79 710.53L1031.46 727.787H1071.21L1050.6 710.53H1012.79ZM1030.7 693.845L1013.72 679.634H979.317L994.722 693.845H1030.7ZM1013.18 679.126L997.667 666.12H964.701L978.778 679.126H1013.18ZM997.164 665.739L982.944 653.812H951.342L964.27 665.739H997.164ZM982.477 653.368L969.37 642.392H939.025L950.912 653.368H982.477ZM938.02 642.392H907.675L918.34 653.368H949.87L938.02 642.392ZM918.736 653.812L930.299 665.739H963.193L950.301 653.812H918.736ZM930.73 666.184L943.334 679.126H977.701L963.66 666.184H930.73ZM943.801 679.634L957.555 693.845H993.573L978.204 679.634H943.801ZM958.094 694.352L973.248 709.959H1011.03L994.148 694.352H958.094ZM973.786 710.53L990.521 727.787H1030.24L1011.6 710.53H973.786ZM991.131 728.421L1009.7 747.581H1051.6L1030.92 728.421H991.131ZM1053.01 747.581H1094.91L1072.07 728.421H1032.29L1053.01 747.581ZM1096.35 747.581H1138.26L1113.23 728.421H1073.44L1096.35 747.581ZM1112.4 727.85L1089.85 710.594H1052.04L1072.68 727.85H1112.4ZM1089.1 710.023L1068.66 694.352H1032.64L1051.35 710.023H1089.1ZM1067.98 693.845L1049.41 679.634H1014.98L1032 693.845H1067.98ZM1048.77 679.189L1031.78 666.184H998.852L1014.4 679.189H1048.77ZM1031.24 665.739L1015.62 653.812H984.057L998.349 665.739H1031.24ZM1015.12 653.431L1000.76 642.456H970.447L983.59 653.431H1015.12ZM1000.29 642.075L987.038 631.924H957.842L970.016 642.075H1000.29ZM956.837 631.924H927.677L938.666 642.075H968.939L956.837 631.924ZM926.672 631.924H897.512L907.352 642.075H937.625L926.672 631.924ZM896.507 631.924H867.347L876.002 642.075H906.31L896.507 631.924ZM876.325 642.456L885.734 653.431H917.263L906.67 642.456H876.325ZM886.057 653.812L896.255 665.739H929.15L917.622 653.812H886.057ZM896.615 666.184L907.747 679.189H942.113L929.581 666.184H896.615ZM908.142 679.634L920.316 693.845H956.298L942.544 679.634H908.142ZM920.747 694.352L934.141 710.023H971.883L956.801 694.352H920.747ZM934.608 710.53L949.367 727.787H989.084L972.422 710.53H934.608ZM949.906 728.421L966.281 747.581H1008.19L989.695 728.421H949.906ZM966.892 748.279L985.17 769.659H1029.52L1008.87 748.279H966.892ZM1031.03 769.659H1075.34L1052.29 748.279H1010.31L1031.03 769.659ZM1076.85 769.659H1121.2L1095.7 748.279H1053.72L1076.85 769.659ZM1122.71 769.659H1167.02L1139.08 748.279H1097.1L1122.71 769.659ZM1168.57 769.659H1212.88L1182.53 748.279H1140.56L1168.57 769.659ZM1181.57 747.645L1154.35 728.485H1114.56L1139.66 747.645H1181.57ZM1153.48 727.85L1128.96 710.594H1091.14L1113.77 727.85H1153.48ZM1128.17 710.023L1105.94 694.416H1069.92L1090.39 710.023H1128.17ZM1105.26 693.908L1085.04 679.697H1050.6L1069.27 693.908H1105.26ZM1084.36 679.189L1065.9 666.247H1032.97L1049.99 679.189H1084.36ZM1065.29 665.803L1048.34 653.876H1016.74L1032.39 665.803H1065.29ZM1047.8 653.495L1032.18 642.456H1001.83L1016.23 653.495H1047.8ZM1031.67 642.139L1017.27 631.988H988.115L1001.4 642.139H1031.67ZM1016.77 631.671L1003.41 622.218H975.331L987.648 631.671H1016.77ZM974.361 622.218H946.243L957.519 631.671H986.643L974.361 622.218ZM945.309 622.218H917.191L927.39 631.607H956.514L945.309 622.218ZM916.258 622.218H888.14L897.261 631.607H926.384L916.258 622.218ZM887.206 622.218H859.088L867.132 631.607H896.291L887.206 622.218ZM858.118 622.218H830.036L837.003 631.607H866.126L858.118 622.218ZM837.254 631.988L844.76 642.139H875.068L866.414 631.988H837.254ZM845.047 642.456L853.199 653.495H884.728L875.391 642.456H845.047ZM853.486 653.876L862.32 665.803H895.214L885.051 653.876H853.486ZM862.643 666.184L872.303 679.189H906.67L895.609 666.184H862.643ZM872.626 679.697L883.148 693.908H919.167L907.029 679.697H872.626ZM883.543 694.416L895.142 710.023H932.92L919.597 694.416H883.543ZM895.573 710.594L908.357 727.85H948.075L933.387 710.594H895.573ZM908.824 728.485L923.045 747.645H964.917L948.613 728.485H908.824ZM923.548 748.342L939.384 769.659H983.698L965.527 748.342H923.548ZM939.959 770.484L957.77 794.466H1004.81L984.38 770.484H939.959ZM1006.43 794.466H1053.47L1030.31 770.484H985.888L1006.43 794.466ZM1055.09 794.466H1102.17L1076.24 770.421H1031.82L1055.09 794.466ZM1103.75 794.466H1150.83L1122.21 770.484H1077.78L1103.75 794.466ZM1152.41 794.466H1199.45L1168.1 770.484H1123.68L1152.41 794.466ZM1201.07 794.466H1248.11L1214.03 770.484H1169.61L1201.07 794.466ZM1249.72 794.466H1296.8L1259.96 770.421H1215.54L1249.72 794.466ZM1258.77 769.723L1225.99 748.342H1184.01L1214.46 769.723H1258.77ZM1224.91 747.645L1195.53 728.548H1155.75L1183.04 747.645H1224.91ZM1194.57 727.914L1168.1 710.657H1130.25L1154.85 727.914H1194.57ZM1167.2 710.086L1143.21 694.479H1107.19L1129.46 710.086H1167.2ZM1142.42 693.972L1120.59 679.697H1086.19L1106.44 693.972H1142.42ZM1119.87 679.253L1099.94 666.247H1066.97L1085.5 679.253H1119.87ZM1099.26 665.803L1080.94 653.876H1049.38L1066.36 665.803H1099.26ZM1080.37 653.495L1063.49 642.519H1033.18L1048.84 653.495H1080.37ZM1062.95 642.139L1047.37 631.988H1018.21L1032.64 642.139H1062.95ZM1046.86 631.671L1032.46 622.281H1004.35L1017.74 631.671H1046.86ZM1031.96 621.964L1018.57 613.209H991.455L1003.88 621.964H1031.96ZM990.557 613.209H963.444L974.9 621.964H1002.95L990.557 613.209ZM962.547 613.209H935.434L945.884 621.964H973.966L962.547 613.209ZM934.5 613.209H907.388L916.832 621.9H944.914L934.5 613.209ZM906.49 613.209H879.377L887.816 621.964H915.899L906.49 613.209ZM878.48 613.209H851.367L858.837 621.964H886.883L878.48 613.209ZM850.469 613.209H823.357L829.821 621.964H857.903L850.469 613.209ZM822.423 613.209H795.311L800.805 621.9H828.887L822.423 613.209ZM800.985 622.281L806.874 631.671H836.033L829.067 622.281H800.985ZM807.125 631.988L813.481 642.139H843.79L836.285 631.988H807.125ZM813.733 642.519L820.628 653.495H852.157L844.041 642.519H813.733ZM820.879 653.876L828.384 665.803H861.279L852.48 653.876H820.879ZM828.636 666.247L836.787 679.253H871.154L861.566 666.247H828.636ZM837.075 679.697L846.017 693.908H881.999L871.513 679.697H837.075ZM846.34 694.479L856.143 710.086H893.885L882.358 694.479H846.34ZM856.502 710.657L867.347 727.914H907.065L894.352 710.657H856.502ZM867.707 728.485L879.737 747.645H921.644L907.496 728.485H867.707ZM880.168 748.342L893.598 769.723H937.912L922.147 748.342H880.168ZM894.065 770.484L909.147 794.466H956.19L938.486 770.484H894.065ZM909.686 795.354L926.708 822.507H976.839L956.837 795.354H909.686ZM978.563 822.507H1028.69L1005.57 795.354H958.417L978.563 822.507ZM1030.45 822.507H1080.58L1054.37 795.354H1007.22L1030.45 822.507ZM1082.31 822.507H1132.44L1103.14 795.354H1055.99L1082.31 822.507ZM1134.16 822.507H1184.29L1151.9 795.417H1104.75L1134.16 822.507ZM1186.02 822.507H1236.15L1200.71 795.354H1153.56L1186.02 822.507ZM1237.84 822.507H1288L1249.44 795.354H1202.29L1237.84 822.507ZM1289.69 822.507H1339.82L1298.17 795.354H1251.02L1289.69 822.507ZM1341.55 822.507H1391.68L1346.93 795.354H1299.78L1341.55 822.507ZM1345.5 794.466L1305.92 770.484H1261.5L1298.42 794.466H1345.5ZM1304.67 769.723L1269.47 748.342H1227.5L1260.35 769.723H1304.67ZM1268.33 747.645L1236.76 728.548H1196.97L1226.42 747.645H1268.33ZM1235.75 727.914L1207.28 710.657H1169.46L1196 727.914H1235.75ZM1206.38 710.086L1180.63 694.479H1144.58L1168.64 710.086H1206.38ZM1179.77 693.972L1156.32 679.697H1121.92L1143.79 693.972H1179.77ZM1155.57 679.253L1134.13 666.247H1101.2L1121.2 679.253H1155.57ZM1133.41 665.803L1113.73 653.876H1082.16L1100.52 665.803H1133.41ZM1113.12 653.495L1094.98 642.519H1064.68L1081.55 653.495H1113.12ZM1094.45 642.139L1077.71 631.988H1048.52L1064.14 642.139H1094.45ZM1077.17 631.671L1061.66 622.281H1033.58L1048.05 631.671H1077.17ZM1061.16 621.964L1046.76 613.209H1019.64L1033.07 621.964H1061.16ZM1046.29 612.955L1032.9 604.834H1006.72L1019.21 612.955H1046.29ZM1005.82 604.834H979.64L991.239 612.955H1018.32L1005.82 604.834ZM978.742 604.834H952.563L963.229 612.955H990.305L978.742 604.834ZM951.666 604.834H925.487L935.218 612.955H962.295L951.666 604.834ZM924.589 604.834H898.41L907.208 613.018H934.285L924.589 604.834ZM897.548 604.834H871.334L879.234 612.955H906.31L897.548 604.834ZM870.472 604.834H844.293L851.259 612.955H878.336L870.472 604.834ZM843.395 604.834H817.216L823.249 613.018H850.326L843.395 604.834ZM816.318 604.834H790.14L795.239 612.955H822.315L816.318 604.834ZM815.313 984.351L701.763 582.692H694.258L793.802 984.351H815.313ZM767.408 613.272L771.897 621.964H799.979L794.521 613.272H767.408ZM772.041 622.281L776.889 631.671H806.012L800.159 622.281H772.041ZM777.032 632.051L782.275 642.202H812.548L806.228 632.051H777.032ZM782.419 642.519L788.057 653.558H819.586L812.763 642.519H782.419ZM788.236 653.939L794.377 665.866H827.271L819.838 653.939H788.236ZM794.592 666.247L801.272 679.253H835.638L827.523 666.247H794.592ZM801.523 679.76L808.813 693.972H844.831L835.926 679.76H801.523ZM809.1 694.479L817.144 710.086H854.922L845.155 694.479H809.1ZM817.432 710.657L826.302 727.914H866.019L855.246 710.657H817.432ZM826.625 728.548L836.464 747.708H878.372L866.414 728.548H826.625ZM836.823 748.406L847.812 769.723H892.126L878.803 748.406H836.823ZM848.207 770.547L860.524 794.529H907.567L892.593 770.547H848.207ZM860.991 795.417L874.961 822.507H925.092L908.142 795.417H860.991ZM875.463 823.522L891.372 854.483H945.022L925.702 823.522H875.463ZM946.854 854.483H1000.5L977.665 823.522H927.426L946.854 854.483ZM1002.34 854.483H1055.99L1029.63 823.522H979.389L1002.34 854.483ZM1057.85 854.483H1111.5L1081.59 823.522H1031.35L1057.85 854.483ZM1113.34 854.483H1166.99L1133.59 823.522H1083.35L1113.34 854.483ZM1168.82 854.483H1222.47L1185.52 823.522H1135.28L1168.82 854.483ZM1224.3 854.483H1277.95L1237.51 823.522H1187.28L1224.3 854.483ZM1279.78 854.483H1333.43L1289.44 823.586H1239.2L1279.78 854.483ZM1335.26 854.483H1388.91L1341.4 823.522H1291.16L1335.26 854.483ZM1390.74 854.483H1444.4L1393.37 823.522H1343.13L1390.74 854.483ZM1446.23 854.483H1499.91L1445.37 823.522H1395.09L1446.23 854.483ZM1443.61 822.507L1395.77 795.354H1348.62L1393.44 822.507H1443.61ZM1394.23 794.529L1351.96 770.484H1307.5L1347.15 794.529H1394.23ZM1350.6 769.723L1312.93 748.342H1270.95L1306.25 769.723H1350.6ZM1311.74 747.708L1277.99 728.548H1238.16L1269.8 747.708H1311.74ZM1276.91 727.914L1246.53 710.657H1208.68L1237.19 727.914H1276.91ZM1245.49 710.086L1217.94 694.479H1181.89L1207.71 710.086H1245.49ZM1217.05 693.972L1191.98 679.76H1157.54L1181.06 693.972H1217.05ZM1191.15 679.253L1168.24 666.247H1135.28L1156.75 679.253H1191.15ZM1167.49 665.866L1146.48 653.876H1114.88L1134.59 665.866H1167.49ZM1145.76 653.495L1126.41 642.519H1096.06L1114.23 653.495H1145.76ZM1125.76 642.202L1107.88 632.051H1078.68L1095.45 642.202H1125.76ZM1107.3 631.671L1090.75 622.281H1062.63L1078.14 631.671H1107.3ZM1090.21 621.964L1074.8 613.272H1047.69L1062.13 621.964H1090.21ZM1074.3 612.955L1059.97 604.834H1033.76L1047.22 612.955H1074.3ZM1059.47 604.517L1046.07 596.967H1020.76L1033.33 604.517H1059.47ZM1019.86 596.967H994.579L1006.25 604.517H1032.39L1019.86 596.967ZM993.681 596.967H968.364L979.209 604.58H1005.35L993.681 596.967ZM967.502 596.967H942.185L952.168 604.58H978.311L967.502 596.967ZM941.323 596.967H916.006L925.092 604.58H951.271L941.323 596.967ZM915.144 596.967H889.827L898.051 604.58H924.194L915.144 596.967ZM888.966 596.967H863.649L871.01 604.58H897.189L888.966 596.967ZM862.787 596.967H837.47L843.97 604.517H870.113L862.787 596.967ZM836.608 596.967H811.291L816.929 604.58H843.072L836.608 596.967ZM810.429 596.967H785.112L789.888 604.58H816.031L810.429 596.967ZM784.25 596.967H758.933L762.847 604.58H788.99L784.25 596.967ZM758.071 596.967H732.754L735.807 604.58H761.95L758.071 596.967ZM735.914 604.834L739.182 612.955H766.259L762.093 604.834H735.914ZM739.29 613.209L742.773 621.964H770.856L766.403 613.209H739.29ZM742.917 622.281L746.688 631.671H775.811L770.999 622.281H742.917ZM746.831 631.988L750.889 642.139H781.198L775.991 631.988H746.831ZM751.069 642.519L755.45 653.495H786.979L781.377 642.519H751.069ZM755.629 653.876L760.406 665.803H793.3L787.231 653.876H755.629ZM760.549 666.247L765.756 679.253H800.123L793.515 666.247H760.549ZM765.936 679.697L771.61 693.972H807.628L800.338 679.697H765.936ZM771.861 694.479L778.109 710.086H815.888L807.879 694.479H771.861ZM778.361 710.657L785.256 727.914H825.009L816.175 710.657H778.361ZM785.543 728.548L793.192 747.645H835.1L825.332 728.548H785.543ZM793.479 748.342L802.026 769.723H846.376L835.459 748.342H793.479ZM802.349 770.484L811.937 794.466H859.016L846.771 770.484H802.349ZM812.296 795.354L823.141 822.507H873.309L859.447 795.354H812.296ZM823.572 823.522L835.962 854.483H889.612L873.811 823.522H823.572ZM836.392 855.561L850.685 891.216H908.357L890.187 855.561H836.392ZM910.332 891.216H968.041L945.812 855.561H892.018L910.332 891.216ZM970.016 891.216H1027.69L1001.4 855.625H947.644L970.016 891.216ZM1029.66 891.216H1087.37L1057.03 855.561H1003.23L1029.66 891.216ZM1089.38 891.216H1147.06L1112.65 855.625H1058.89L1089.38 891.216ZM1149.03 891.216H1206.74L1168.28 855.561H1114.52L1149.03 891.216ZM1208.68 891.216H1266.39L1223.87 855.625H1170.11L1208.68 891.216ZM1268.33 891.216H1326.03L1279.46 855.561H1225.7L1268.33 891.216ZM1328.01 891.216H1385.68L1335.08 855.561H1281.29L1328.01 891.216ZM1387.69 891.216H1445.37L1390.71 855.625H1336.91L1387.69 891.216ZM1447.38 891.216H1505.08L1446.33 855.561H1392.58L1447.38 891.216ZM1507.02 891.216H1564.77L1501.96 855.625H1448.17L1507.02 891.216ZM1566.71 891.216H1624.42L1557.59 855.561H1503.79L1566.71 891.216ZM1555.43 854.483L1497.36 823.522H1447.12L1501.78 854.483H1555.43ZM1495.5 822.507L1444.57 795.354H1397.42L1445.37 822.507H1495.5ZM1442.92 794.466L1397.93 770.484H1353.51L1395.88 794.466H1442.92ZM1396.45 769.723L1356.34 748.342H1314.36L1352.11 769.723H1396.45ZM1355.09 747.645L1319.17 728.548H1279.35L1313.18 747.645H1355.09ZM1317.99 727.914L1285.63 710.657H1247.78L1278.27 727.914H1317.99ZM1284.56 710.086L1255.25 694.479H1219.2L1246.78 710.086H1284.56ZM1254.28 693.972L1227.6 679.697H1193.2L1218.3 693.972H1254.28ZM1226.74 679.253L1202.32 666.247H1169.39L1192.34 679.253H1226.74ZM1201.57 665.803L1179.2 653.876H1147.59L1168.67 665.803H1201.57ZM1178.44 653.495L1157.83 642.519H1127.52L1146.91 653.495H1178.44ZM1157.15 642.139L1138.11 631.988H1108.92L1126.87 642.139H1157.15ZM1137.47 631.671L1119.84 622.281H1091.72L1108.34 631.671H1137.47ZM1119.22 621.964L1102.85 613.209H1075.74L1091.14 621.964H1119.22ZM1102.31 612.955L1087.05 604.834H1060.87L1075.23 612.955H1102.31ZM1086.55 604.517L1072.29 596.967H1046.97L1060.4 604.517H1086.55ZM1071.79 596.713L1058.46 589.544H1033.94L1046.51 596.713H1071.79ZM1033.11 589.544H1008.58L1020.33 596.713H1045.64L1033.11 589.544ZM1007.76 589.544H983.267L994.184 596.65H1019.5L1007.76 589.544ZM982.405 589.544H957.914L968.041 596.65H993.322L982.405 589.544ZM957.052 589.544H932.561L941.898 596.65H967.179L957.052 589.544ZM931.699 589.544H907.208L915.719 596.65H941L931.699 589.544ZM906.382 589.544H881.855L889.576 596.65H914.857L906.382 589.544ZM881.029 589.544H856.538L863.433 596.65H888.714L881.029 589.544ZM855.712 589.544H831.185L837.29 596.713H862.571L855.712 589.544ZM830.359 589.544H805.868L811.147 596.65H836.428L830.359 589.544ZM805.006 589.544H780.516L784.968 596.65H810.249L805.006 589.544ZM779.689 589.544H755.163L758.825 596.65H784.107L779.689 589.544ZM754.372 589.544H729.846L732.718 596.65H758L754.372 589.544ZM729.02 589.544H704.529L706.575 596.65H731.857L729.02 589.544ZM706.611 596.904L708.802 604.517H734.945L731.928 596.904H706.611ZM708.874 604.771L711.208 612.955H738.285L735.053 604.771H708.874ZM711.28 613.209L713.793 621.964H741.876L738.392 613.209H711.28ZM713.865 622.281L716.559 631.671H745.718L741.983 622.281H713.865ZM716.666 631.988L719.575 642.139H749.848L745.826 631.988H716.666ZM719.683 642.519L722.807 653.495H754.372L750.027 642.519H719.683ZM722.915 653.876L726.326 665.803H759.256L754.516 653.876H722.915ZM726.434 666.247L730.169 679.253H764.535L759.4 666.247H726.434ZM730.277 679.697L734.37 693.972H770.353L764.715 679.697H730.277ZM734.478 694.479L738.967 710.086H776.745L770.532 694.479H734.478ZM739.11 710.657L744.066 727.914H783.783L776.96 710.657H739.11ZM744.21 728.485L749.704 747.645H791.612L784.035 728.485H744.21ZM749.884 748.342L755.988 769.723H800.338L791.863 748.342H749.884ZM756.24 770.484L763.099 794.466H810.142L800.626 770.484H756.24ZM763.386 795.354L771.143 822.507H821.31L810.537 795.354H763.386ZM771.43 823.522L780.3 854.483H833.951L821.705 823.522H771.43ZM780.623 855.561L790.822 891.216H848.53L834.382 855.561H780.623ZM791.217 892.549L803.067 933.977H865.48L849.069 892.549H791.217ZM867.599 933.977H930.011L908.86 892.549H851.008L867.599 933.977ZM932.166 933.977H994.579L968.687 892.485H910.835L932.166 933.977ZM996.734 933.977H1059.11L1028.51 892.549H970.698L996.734 933.977ZM1061.26 933.977H1123.68L1088.34 892.485H1030.53L1061.26 933.977ZM1125.8 933.977H1188.21L1148.2 892.549H1090.35L1125.8 933.977ZM1190.33 933.977H1252.74L1208 892.549H1150.14L1190.33 933.977ZM1254.86 933.977H1317.27L1267.82 892.485H1209.97L1254.86 933.977ZM1319.39 933.977H1381.8L1327.61 892.549H1269.8L1319.39 933.977ZM1383.92 933.977H1446.3L1387.41 892.549H1329.59L1383.92 933.977ZM1448.45 933.977H1510.83L1447.23 892.485H1389.38L1448.45 933.977ZM1512.98 933.977H1575.4L1507.06 892.549H1449.24L1512.98 933.977ZM1577.52 933.977H1639.93L1566.89 892.485H1509.03L1577.52 933.977ZM1642.05 933.977H1704.46L1626.71 892.549H1568.86L1642.05 933.977ZM1613 855.561H1559.24L1626.21 891.216H1683.92L1613 855.561ZM1549.15 823.459H1498.91L1557.08 854.419H1610.73L1549.15 823.459ZM1493.16 795.354H1446.01L1497.04 822.507H1547.17L1493.16 795.354ZM1443.68 770.484H1399.26L1444.36 794.466H1491.4L1443.68 770.484ZM1399.65 748.342H1357.67L1397.82 769.723H1442.17L1399.65 748.342ZM1360.18 728.485H1320.36L1356.38 747.645H1398.29L1360.18 728.485ZM1324.6 710.594H1286.78L1319.21 727.85H1358.93L1324.6 710.594ZM1292.39 694.416H1256.33L1285.74 710.023H1323.48L1292.39 694.416ZM1263.08 679.697H1228.64L1255.4 693.908H1291.38L1263.08 679.697ZM1236.29 666.247H1203.36L1227.78 679.253H1262.15L1236.29 666.247ZM1211.73 653.876H1180.13L1202.57 665.803H1235.47L1211.73 653.876ZM1189.07 642.519H1158.76L1179.41 653.495H1210.94L1189.07 642.519ZM1168.17 631.988H1138.98L1158.08 642.139H1188.35L1168.17 631.988ZM1148.82 622.281H1120.7L1138.36 631.671H1167.52L1148.82 622.281ZM1130.79 613.209H1103.71L1120.12 621.964H1148.17L1130.79 613.209ZM1114.05 604.771H1087.87L1103.17 612.955H1130.25L1114.05 604.771ZM1098.36 596.904H1073.08L1087.34 604.453H1113.51L1098.36 596.904ZM1083.67 589.544H1059.18L1072.54 596.65H1097.86L1083.67 589.544ZM1046.18 582.692L1058.72 589.354H1083.21L1069.92 582.692H1046.18ZM1021.62 582.692L1033.4 589.354H1057.89L1045.36 582.692H1021.62ZM997.057 582.692L1008.08 589.354H1032.57L1020.83 582.692H997.057ZM972.494 582.692L982.764 589.354H1007.22L996.231 582.692H972.494ZM947.931 582.692L957.447 589.354H981.938L971.704 582.692H947.931ZM923.368 582.692L932.094 589.354H956.585L947.105 582.692H923.368ZM898.805 582.692L906.813 589.354H931.268L922.542 582.692H898.805ZM874.278 582.692L881.496 589.354H905.951L898.015 582.692H874.278ZM849.715 582.692L856.179 589.354H880.67L873.452 582.692H849.715ZM825.152 582.692L830.862 589.354H855.353L848.925 582.692H825.152ZM800.59 582.692L805.545 589.354H830L824.327 582.692H800.59ZM776.027 582.692L780.228 589.354H804.683L799.764 582.692H776.027ZM751.5 582.692L754.911 589.354H779.402L775.237 582.692H751.5ZM726.937 582.692L729.594 589.354H754.085L750.674 582.692H726.937ZM702.374 582.692L704.313 589.354H728.768L726.147 582.692H702.374ZM487.557 984.351L587.101 582.692H579.596L466.046 984.351H487.557ZM298.164 653.876L283.943 665.803H316.837L329.765 653.876H298.164ZM330.16 653.495L342.047 642.519H311.702L298.595 653.495H330.16ZM283.44 666.247L267.927 679.253H302.294L316.37 666.247H283.44ZM267.388 679.697L250.403 693.972H286.385L301.791 679.697H267.388ZM249.828 694.479L231.155 710.086H268.933L285.882 694.479H249.828ZM230.508 710.657L209.895 727.914H249.649L268.322 710.657H230.508ZM209.177 728.548L186.338 747.645H228.246L248.966 728.548H209.177ZM229.682 747.645H271.59L290.156 728.548H250.331L229.682 747.645ZM290.766 727.85L307.501 710.594H269.651L251.013 727.85H290.766ZM308.039 710.023L323.194 694.416H287.139L270.297 710.023H308.039ZM323.66 693.908L337.45 679.697H303.048L287.678 693.908H323.66ZM337.881 679.189L350.486 666.184H317.556L303.515 679.189H337.881ZM350.917 665.803L362.48 653.876H330.878L318.022 665.803H350.917ZM362.839 653.431L373.504 642.456H343.16L331.309 653.431H362.839ZM373.828 642.139L383.667 631.988H354.472L343.519 642.139H373.828ZM353.502 631.988H324.343L312.241 642.139H342.513L353.502 631.988ZM323.337 631.988H294.178L280.891 642.139H311.199L323.337 631.988ZM280.424 642.456L266.06 653.431H297.589L310.733 642.456H280.424ZM265.557 653.812L249.972 665.739H282.866L297.158 653.812H265.557ZM249.397 666.184L232.411 679.189H266.778L282.327 666.184H249.397ZM231.801 679.634L213.235 693.908H249.218L266.239 679.634H231.801ZM212.553 694.416L192.12 710.023H229.862L248.571 694.416H212.553ZM191.401 710.594L168.85 727.85H208.567L229.215 710.594H191.401ZM168.06 728.485L143.03 747.581H184.938L207.849 728.485H168.06ZM142.132 748.279L114.194 769.659H158.543L184.112 748.279H142.132ZM160.051 769.659H204.365L227.528 748.279H185.548L160.051 769.659ZM205.873 769.659H250.223L270.944 748.342H228.964L205.873 769.659ZM251.695 769.659H296.045L314.324 748.279H272.344L251.695 769.659ZM314.898 747.581L331.273 728.421H291.449L272.991 747.581H314.898ZM331.776 727.787L346.571 710.53H308.722L292.059 727.787H331.776ZM347.038 710.023L360.397 694.352H324.343L309.26 710.023H347.038ZM360.828 693.845L373.002 679.634H338.599L324.845 693.845H360.828ZM373.397 679.189L384.529 666.184H351.563L339.03 679.189H373.397ZM384.888 665.739L395.087 653.812H363.485L351.994 665.739H384.888ZM395.41 653.431L404.818 642.456H374.474L363.88 653.431H395.41ZM405.106 642.075L413.796 631.924H384.601L374.797 642.075H405.106ZM414.083 631.607L422.127 622.218H394.009L384.96 631.607H414.083ZM393.04 622.218H364.958L354.795 631.607H383.954L393.04 622.218ZM363.952 622.218H335.87L324.63 631.607H353.789L363.952 622.218ZM334.864 622.218H306.782L294.501 631.607H323.625L334.864 622.218ZM305.813 622.218H277.695L264.336 631.607H293.495L305.813 622.218ZM263.869 631.988L249.433 642.139H279.742L293.029 631.988H263.869ZM248.93 642.456L233.345 653.495H264.875L279.275 642.456H248.93ZM232.771 653.876L215.821 665.803H248.715L264.336 653.876H232.771ZM215.21 666.247L196.752 679.189H231.119L248.176 666.247H215.21ZM196.07 679.697L175.852 693.908H211.835L230.508 679.697H196.07ZM175.134 694.416L152.905 710.023H190.683L211.152 694.416H175.134ZM152.151 710.594L127.624 727.85H167.341L189.965 710.594H152.151ZM126.762 728.485L99.5421 747.645H141.45L166.551 728.485H126.762ZM98.5725 748.342L68.228 769.659H112.542L140.552 748.342H98.5725ZM67.1148 770.484L33.0356 794.466H80.0785L111.536 770.484H67.1148ZM81.6586 794.466H128.737L157.466 770.484H113.044L81.6586 794.466ZM130.318 794.466H177.36L203.36 770.421H158.938L130.318 794.466ZM178.976 794.466H226.055L249.289 770.484H204.868L178.976 794.466ZM227.635 794.466H274.714L295.219 770.484H250.834L227.635 794.466ZM276.294 794.466H323.337L341.149 770.484H296.727L276.294 794.466ZM341.723 769.659L357.56 748.279H315.616L297.41 769.659H341.723ZM358.063 747.645L372.283 728.485H332.494L316.155 747.645H358.063ZM372.75 727.85L385.534 710.594H347.72L332.997 727.85H372.75ZM385.965 710.023L397.564 694.416H361.546L348.223 710.023H385.965ZM397.924 693.908L408.481 679.697H374.043L361.941 693.908H397.924ZM408.805 679.189L418.464 666.184H385.534L374.438 679.189H408.805ZM418.788 665.803L427.622 653.876H396.056L385.894 665.803H418.788ZM427.909 653.431L436.061 642.456H405.716L396.379 653.431H427.909ZM436.312 642.139L443.853 631.988H414.658L406.039 642.139H436.312ZM444.069 631.607L451.035 622.218H422.953L414.945 631.607H444.069ZM451.251 621.9L457.751 613.209H430.638L423.205 621.9H451.251ZM429.669 613.209H402.592L394.153 621.9H422.199L429.669 613.209ZM401.658 613.209H374.546L365.101 621.964H393.183L401.658 613.209ZM373.612 613.209H346.5L336.085 621.964H364.168L373.612 613.209ZM345.566 613.209H318.453L307.034 621.9H335.116L345.566 613.209ZM317.52 613.209H290.443L278.018 621.964H306.064L317.52 613.209ZM289.509 613.209H262.397L249.002 621.964H277.048L289.509 613.209ZM248.535 622.218L234.099 631.671H263.259L276.617 622.218H248.535ZM233.596 631.988L218.047 642.139H248.32L262.792 631.988H233.596ZM217.473 642.519L200.595 653.495H232.16L247.781 642.519H217.473ZM200.02 653.876L181.706 665.803H214.6L231.621 653.876H200.02ZM181.059 666.247L161.093 679.253H195.459L213.989 666.247H181.059ZM160.375 679.697L138.577 693.908H174.559L194.813 679.697H160.375ZM137.751 694.416L113.763 710.023H151.541L173.805 694.416H137.751ZM112.901 710.594L86.4347 727.85H126.152L150.751 710.594H112.901ZM85.4651 728.485L56.0543 747.645H97.962L125.254 728.485H85.4651ZM55.0129 748.342L22.2265 769.723H66.5402L96.9924 748.342H55.0129ZM21.0414 770.484L-15.8029 794.466H31.276L65.4629 770.484H21.0414ZM-17.1316 795.354L-58.7879 822.507H-8.65663L30.0191 795.354H-17.1316ZM-6.96885 822.507H43.1983L78.7498 795.354H31.5992L-6.96885 822.507ZM44.8861 822.507H95.0174L127.516 795.354H80.3658L44.8861 822.507ZM96.7411 822.507H146.872L176.283 795.354H129.132L96.7411 822.507ZM148.596 822.507H198.727L225.05 795.354H177.899L148.596 822.507ZM200.415 822.507H250.582L273.781 795.354H226.63L200.415 822.507ZM252.306 822.507H302.437L322.547 795.354H275.397L252.306 822.507ZM304.161 822.507H354.292L371.35 795.417H324.199L304.161 822.507ZM371.888 794.466L386.971 770.484H342.549L324.845 794.466H371.888ZM387.438 769.723L400.868 748.342H358.889L343.124 769.723H387.438ZM401.263 747.645L413.293 728.485H373.504L359.356 747.645H401.263ZM413.688 727.85L424.533 710.594H386.684L373.971 727.85H413.688ZM424.857 710.023L434.696 694.416H398.642L387.114 710.023H424.857ZM434.983 693.908L443.925 679.697H409.487L399.001 693.908H434.983ZM444.212 679.253L452.364 666.247H419.434L409.81 679.253H444.212ZM452.651 665.803L460.157 653.876H428.555L419.757 665.803H452.651ZM460.408 653.495L467.303 642.519H436.958L428.843 653.495H460.408ZM467.554 642.139L473.911 631.988H444.751L437.246 642.139H467.554ZM474.162 631.671L480.051 622.218H451.933L445.002 631.671H474.162ZM480.267 621.964L485.761 613.209H458.648L452.185 621.964H480.267ZM485.941 612.891L491.04 604.771H464.861L458.864 612.891H485.941ZM463.999 604.771H437.82L430.89 612.891H457.966L463.999 604.771ZM436.887 604.771H410.708L402.879 612.955H429.956L436.887 604.771ZM409.81 604.771H383.631L374.833 612.891H401.91L409.81 604.771ZM382.733 604.771H356.555L346.859 612.891H373.935L382.733 604.771ZM355.657 604.771H329.478L318.812 612.891H345.889L355.657 604.771ZM328.58 604.771H302.401L290.838 612.955H317.915L328.58 604.771ZM301.504 604.771H275.325L262.864 612.891H289.94L301.504 604.771ZM274.427 604.771H248.248L234.817 612.891H261.894L274.427 604.771ZM234.351 613.209L219.95 621.964H248.033L261.463 613.209H234.351ZM219.448 622.281L203.934 631.671H233.094L247.53 622.281H219.448ZM203.432 631.988L186.697 642.139H216.97L232.591 631.988H203.432ZM186.123 642.519L167.988 653.495H199.553L216.431 642.519H186.123ZM167.377 653.876L147.698 665.803H180.592L198.943 653.876H167.377ZM147.016 666.247L125.577 679.253H159.98L179.946 666.247H147.016ZM124.823 679.697L101.374 693.908H137.392L159.262 679.697H124.823ZM100.548 694.416L74.7638 710.086H112.542L136.566 694.416H100.548ZM73.866 710.657L45.4248 727.914H85.1419L111.68 710.657H73.866ZM44.4193 728.485L12.8538 747.645H54.7615L84.2083 728.485H44.4193ZM11.7406 748.342L-23.4877 769.723H20.826L53.6842 748.342H11.7406ZM-24.7446 770.484L-64.2822 794.466H-17.2393L19.6768 770.484H-24.7446ZM-65.7545 795.354L-110.499 822.507H-60.3679L-18.6039 795.354H-65.7545ZM-112.115 823.459L-163.144 854.419H-109.494L-61.8762 823.459H-112.115ZM-107.662 854.419H-54.0118L-9.9135 823.459H-60.1525L-107.662 854.419ZM-52.1803 854.419H1.47015L42.0492 823.522H-8.18982L-52.1803 854.419ZM3.30159 854.419H56.9521L93.9759 823.459H43.737L3.30159 854.419ZM58.7835 854.419H112.47L145.975 823.459H95.7356L58.7835 854.419ZM114.265 854.419H167.916L197.937 823.459H147.662L114.265 854.419ZM169.747 854.419H223.434L249.9 823.459H199.661L169.747 854.419ZM225.229 854.419H278.88L301.863 823.459H251.588L225.229 854.419ZM280.747 854.419H334.398L353.825 823.459H303.586L280.747 854.419ZM336.229 854.419H389.88L405.788 823.459H355.549L336.229 854.419ZM406.291 822.507L420.224 795.354H373.109L356.159 822.507H406.291ZM420.691 794.466L433.008 770.484H388.623L373.648 794.466H420.691ZM433.403 769.723L444.392 748.342H402.412L389.09 769.723H433.403ZM444.751 747.645L454.591 728.485H414.802L402.843 747.645H444.751ZM454.914 727.85L463.784 710.594H425.934L415.197 727.85H454.914ZM464.071 710.023L472.079 694.416H436.061L426.293 710.023H464.071ZM472.366 693.908L479.692 679.697H445.254L436.384 693.908H472.366ZM479.908 679.253L486.587 666.247H453.657L445.541 679.253H479.908ZM486.802 665.803L492.943 653.876H461.378L453.908 665.803H486.802ZM493.159 653.495L498.797 642.519H468.452L461.593 653.495H493.159ZM499.012 642.139L504.219 631.988H475.06L468.703 642.139H499.012ZM504.399 631.671L509.247 622.218H481.129L475.275 631.671H504.399ZM509.39 621.964L513.879 613.209H486.766L481.308 621.964H509.39ZM514.059 612.891L518.224 604.771H492.045L486.982 612.891H514.059ZM518.368 604.517L522.282 596.904H496.965L492.225 604.517H518.368ZM496.103 596.904H470.786L465.184 604.517H491.327L496.103 596.904ZM469.924 596.904H444.607L438.143 604.517H464.286L469.924 596.904ZM443.746 596.904H418.429L411.067 604.453H437.246L443.746 596.904ZM417.567 596.904H392.25L384.026 604.517H410.205L417.567 596.904ZM391.388 596.904H366.071L356.985 604.517H383.128L391.388 596.904ZM365.209 596.904H339.892L329.981 604.517H356.124L365.209 596.904ZM339.03 596.904H313.713L302.904 604.517H329.083L339.03 596.904ZM312.851 596.904H287.534L275.863 604.453H302.006L312.851 596.904ZM286.672 596.904H261.355L248.823 604.517H275.001L286.672 596.904ZM260.494 596.904H235.141L221.746 604.517H247.925L260.494 596.904ZM221.315 604.771L206.951 612.891H234.027L247.494 604.771H221.315ZM206.448 613.209L191.078 621.964H219.16L233.561 613.209H206.448ZM190.54 622.281L173.949 631.671H203.108L218.622 622.281H190.54ZM173.41 631.988L155.527 642.139H185.835L202.57 631.988H173.41ZM154.916 642.519L135.56 653.495H167.09L185.261 642.519H154.916ZM134.878 653.876L113.835 665.803H146.765L166.444 653.876H134.878ZM113.116 666.247L90.2053 679.253H124.572L146.082 666.247H113.116ZM89.3794 679.697L64.3138 693.908H100.296L123.818 679.697H89.3794ZM63.416 694.416L35.8726 710.086H73.6505L99.4703 694.416H63.416ZM34.867 710.594L4.45075 727.85H44.2038L72.7169 710.594H34.867ZM3.37343 728.485L-30.3826 747.645H11.561L43.1983 728.485H3.37343ZM-31.6035 748.342L-69.2379 769.723H-24.9242L10.4119 748.342H-31.6035ZM-70.6384 770.484L-112.941 794.466H-65.8623L-26.2169 770.484H-70.6384ZM-114.449 795.354L-162.282 822.507H-112.151L-67.2987 795.354H-114.449ZM-164.006 823.459L-218.554 854.419H-164.904L-113.767 823.459H-164.006ZM-220.529 855.561L-283.337 891.216H-225.593L-166.735 855.561H-220.529ZM-223.618 891.216H-165.945L-111.11 855.561H-164.904L-223.618 891.216ZM-163.934 891.216H-106.262L-55.4841 855.561H-109.278L-163.934 891.216ZM-104.251 891.216H-46.5783L0.141476 855.625H-53.6527L-104.251 891.216ZM-44.5673 891.216H13.1411L55.767 855.561H2.00881L-44.5673 891.216ZM15.0803 891.216H72.7887L111.393 855.625H57.5985L15.0803 891.216ZM74.7638 891.216H132.436L166.982 855.561H113.188L74.7638 891.216ZM134.447 891.216H192.156L222.644 855.625H168.85L134.447 891.216ZM194.131 891.216H251.839L278.269 855.561H224.475L194.131 891.216ZM253.814 891.216H311.487L333.859 855.561H280.101L253.814 891.216ZM313.462 891.216H371.17L389.485 855.625H335.726L313.462 891.216ZM373.109 891.216H430.818L445.074 855.561H391.28L373.109 891.216ZM445.541 854.483L457.93 823.522H407.691L391.891 854.483H445.541ZM458.325 822.507L469.17 795.354H422.02L408.194 822.507H458.325ZM469.529 794.529L479.118 770.484H434.696L422.451 794.529H469.529ZM479.441 769.723L488.023 748.342H446.008L435.127 769.723H479.441ZM488.275 747.708L495.924 728.548H456.135L446.367 747.708H488.275ZM496.175 727.914L503.07 710.657H465.256L456.458 727.914H496.175ZM503.285 710.086L509.534 694.479H473.515L465.507 710.086H503.285ZM509.749 693.972L515.459 679.76H481.021L473.767 693.972H509.749ZM515.639 679.253L520.846 666.247H487.88L481.236 679.253H515.639ZM521.025 665.866L525.801 653.876H494.236L488.131 665.866H521.025ZM525.945 653.495L530.362 642.519H500.018L494.415 653.495H525.945ZM530.47 642.202L534.564 632.051H505.368L500.197 642.202H530.47ZM534.671 631.671L538.406 622.281H510.324L505.512 631.671H534.671ZM538.55 621.964L542.069 613.272H514.956L510.503 621.964H538.55ZM542.141 612.955L545.409 604.834H519.23L515.064 612.955H542.141ZM545.516 604.517L548.569 596.967H523.252L519.373 604.517H545.516ZM548.64 596.713L551.513 589.608H526.986L523.359 596.713H548.64ZM526.16 589.608H501.634L497.216 596.713H522.498L526.16 589.608ZM500.808 589.608H476.317L471.074 596.713H496.355L500.808 589.608ZM475.455 589.608H450.964L444.895 596.713H470.176L475.455 589.608ZM450.102 589.608H425.611L418.752 596.713H444.033L450.102 589.608ZM424.749 589.608H400.258L392.573 596.713H417.854L424.749 589.608ZM399.432 589.608H374.905L366.43 596.713H391.711L399.432 589.608ZM374.079 589.608H349.588L340.287 596.777H365.568L374.079 589.608ZM348.762 589.608H324.235L314.144 596.713H339.425L348.762 589.608ZM323.409 589.608H298.918L288.001 596.713H313.282L323.409 589.608ZM298.056 589.608H273.565L261.858 596.713H287.139L298.056 589.608ZM272.703 589.608H248.176L235.643 596.713H260.96L272.703 589.608ZM247.35 589.608H222.859L209.5 596.713H234.782L247.35 589.608ZM209.034 596.967L194.777 604.58H220.92L234.351 596.967H209.034ZM194.238 604.834L178.976 613.018H206.053L220.417 604.834H194.238ZM178.438 613.272L162.062 622.027H190.109L205.55 613.272H178.438ZM161.452 622.344L143.82 631.734H172.979L189.57 622.344H161.452ZM143.173 632.051L124.141 642.202H154.449L172.369 632.051H143.173ZM123.459 642.583L102.846 653.558H134.375L153.767 642.583H123.459ZM102.128 653.939L79.7553 665.866H112.649L133.729 653.939H102.128ZM78.9294 666.31L54.5461 679.316H88.9126L111.859 666.31H78.9294ZM53.6842 679.76L27.0026 694.035H62.9851L88.0866 679.76H53.6842ZM26.0689 694.543L-3.27003 710.15H34.5079L62.0873 694.543H26.0689ZM-4.31145 710.721L-36.6669 727.977H3.05023L33.5384 710.721H-4.31145ZM-37.852 728.548L-73.7626 747.708H-31.8908L1.93701 728.548H-37.852ZM-75.0554 748.406L-115.132 769.786H-70.818L-33.0759 748.406H-75.0554ZM-116.604 770.547L-161.636 794.529H-114.557L-72.1826 770.547H-116.604ZM-163.288 795.417L-214.209 822.571H-164.078L-116.137 795.417H-163.288ZM-216.041 823.586L-274.144 854.546H-220.493L-165.802 823.586H-216.041ZM-276.263 855.625L-343.092 891.28H-285.384L-222.469 855.625H-276.263ZM-345.57 892.612L-423.317 934.04H-360.904L-287.718 892.612H-345.57ZM-358.785 934.04H-296.373L-227.891 892.612H-285.743L-358.785 934.04ZM-294.218 934.04H-231.841L-168.064 892.549H-225.916L-294.218 934.04ZM-229.687 934.04H-167.274L-108.237 892.612H-166.053L-229.687 934.04ZM-165.155 934.04H-102.742L-48.4097 892.549H-106.262L-165.155 934.04ZM-100.624 934.04H-38.2111L11.3815 892.612H-46.4346L-100.624 934.04ZM-36.0924 934.04H26.3203L71.2086 892.612H13.3566L-36.0924 934.04ZM28.439 934.04H90.8517L131.036 892.549H73.1837L28.439 934.04ZM92.9705 934.04H155.383L190.827 892.612H133.011L92.9705 934.04ZM157.502 934.04H219.915L250.654 892.612H192.802L157.502 934.04ZM222.069 934.04H284.446L310.481 892.549H252.629L222.069 934.04ZM286.601 934.04H349.013L370.308 892.612H312.492L286.601 934.04ZM351.132 934.04H413.545L430.135 892.549H372.283L351.132 934.04ZM415.663 934.04H478.076L489.927 892.612H432.11L415.663 934.04ZM490.322 891.28L500.52 855.625H446.726L432.613 891.28H490.322ZM500.843 854.546L509.713 823.586H459.439L447.193 854.546H500.843ZM509.965 822.571L517.757 795.417H470.607L459.833 822.571H509.965ZM517.973 794.529L524.868 770.547H480.446L470.93 794.529H517.973ZM525.083 769.786L531.188 748.406H489.208L480.734 769.786H525.083ZM531.403 747.708L536.898 728.612H497.073L489.496 747.708H531.403ZM537.077 727.977L541.997 710.721H504.183L497.324 727.977H537.077ZM542.177 710.15L546.665 694.543H510.611L504.435 710.15H542.177ZM546.773 694.035L550.867 679.76H516.429L510.791 694.035H546.773ZM550.975 679.316L554.709 666.31H521.779L516.608 679.316H550.975ZM554.817 665.866L558.229 653.939H526.663L521.923 665.866H554.817ZM558.336 653.558L561.497 642.583H531.152L526.807 653.558H558.336ZM561.568 642.202L564.477 632.051H535.318L531.296 642.202H561.568ZM564.549 631.734L567.242 622.344H539.16L535.425 631.734H564.549ZM567.314 622.027L569.828 613.272H542.715L539.268 622.027H567.314ZM569.9 613.018L572.234 604.898H546.019L542.823 613.018H569.9ZM572.306 604.58L574.46 597.031H549.143L546.127 604.58H572.306ZM574.568 596.777L576.615 589.608H552.088L549.287 596.777H574.568ZM530.29 582.756L526.879 589.417H551.37L554.027 582.756H530.29ZM505.727 582.756L501.562 589.417H526.053L529.464 582.756H505.727ZM481.2 582.756L476.281 589.417H500.736L504.937 582.756H481.2ZM456.637 582.756L450.964 589.417H475.419L480.374 582.756H456.637ZM432.075 582.756L425.647 589.417H450.102L455.812 582.756H432.075ZM407.548 582.756L400.33 589.417H424.821L431.285 582.756H407.548ZM382.985 582.756L375.013 589.417H399.504L406.722 582.756H382.985ZM358.458 582.756L349.732 589.417H374.187L382.195 582.756H358.458ZM333.895 582.756L324.415 589.417H348.906L357.632 582.756H333.895ZM309.332 582.756L299.098 589.417H323.589L333.105 582.756H309.332ZM284.769 582.756L273.781 589.417H298.236L308.506 582.756H284.769ZM260.206 582.756L248.464 589.417H272.919L283.943 582.756H260.206ZM235.679 582.756L223.147 589.417H247.638L259.416 582.756H235.679ZM197.83 589.417H222.321L234.853 582.756H211.116L197.83 589.417ZM183.214 596.713H208.495L221.854 589.608H197.363L183.214 596.713ZM167.593 604.58H193.736L208.028 596.967H182.711L167.593 604.58ZM150.858 613.018H177.935L193.233 604.834H167.054L150.858 613.018ZM132.903 622.091H160.985L177.396 613.335H150.284L132.903 622.091ZM113.583 631.797H142.707L160.411 622.408H132.293L113.583 631.797ZM92.7191 642.266H123.028L142.096 632.115H112.937L92.7191 642.266ZM70.1313 653.622H101.661L122.309 642.646H92.0009L70.1313 653.622ZM45.6043 665.93H78.4985L100.943 654.002H69.3413L45.6043 665.93ZM18.8868 679.38H53.2533L77.7084 666.374H44.7425L18.8868 679.38ZM-10.3445 694.035H25.6739L52.3915 679.824H17.989L-10.3445 694.035ZM-42.4845 710.15H-4.70646L24.6684 694.543H-11.3859L-42.4845 710.15ZM-77.9283 727.977H-38.2111L-5.74788 710.721H-43.5977L-77.9283 727.977ZM-117.25 747.708H-75.3427L-39.3602 728.612H-79.1492L-117.25 747.708ZM-161.133 769.723H-116.819L-76.6355 748.342H-118.615L-161.133 769.723ZM-210.403 794.529H-163.36L-118.256 770.547H-162.677L-210.403 794.529ZM-266.136 822.507H-216.005L-164.976 795.354H-212.126L-266.136 822.507ZM-329.698 854.483H-276.047L-217.872 823.522H-268.111L-329.698 854.483ZM-402.848 891.216H-345.139L-278.166 855.625H-331.96L-402.848 891.216ZM-487.92 933.977H-425.507L-347.617 892.485H-405.433L-487.92 933.977ZM-520.168 984.351L-428.38 935.5H-490.972L-588.111 984.351H-520.168ZM-449.891 984.351L-363.669 935.5H-426.261L-517.834 984.351H-449.891ZM-379.614 984.351L-298.958 935.5H-361.55L-447.592 984.351H-379.614ZM-309.336 984.351L-234.247 935.5H-296.804L-377.279 984.351H-309.336ZM-239.059 984.351L-169.536 935.5H-232.093L-307.002 984.351H-239.059ZM-168.818 984.351L-104.825 935.5H-167.382L-236.761 984.351H-168.818ZM-98.541 984.351L-40.1144 935.5H-102.671L-166.484 984.351H-98.541ZM-28.2639 984.351L24.5966 935.5H-37.9597L-96.2068 984.351H-28.2639ZM41.9774 984.351L89.3076 935.5H26.7153L-25.9656 984.351H41.9774ZM112.254 984.351L154.019 935.5H91.4263L44.2756 984.351H112.254ZM182.568 984.351L218.765 935.5H156.173L114.625 984.351H182.568ZM252.809 984.351L283.476 935.5H220.884L184.866 984.351H252.809ZM323.086 984.351L348.187 935.5H285.595L255.143 984.351H323.086ZM393.363 984.351L412.898 935.5H350.306L325.42 984.351H393.363ZM463.604 984.351L477.609 935.5H415.017L395.661 984.351H463.604ZM554.889 582.692L552.268 589.354H576.723L578.626 582.692H554.889ZM639.782 616.254C639.877 616.296 639.973 616.317 640.069 616.317C640.189 616.36 640.308 616.381 640.428 616.381C640.548 616.381 640.668 616.36 640.787 616.317C640.907 616.317 641.003 616.296 641.074 616.254C641.146 616.254 641.206 616.233 641.254 616.19C641.302 616.148 641.326 616.106 641.326 616.064V613.272C641.326 613.23 641.302 613.187 641.254 613.145C641.206 613.145 641.146 613.124 641.074 613.082C640.979 613.039 640.883 613.018 640.787 613.018C640.668 613.018 640.548 613.018 640.428 613.018C640.308 613.018 640.201 613.018 640.105 613.018C639.985 613.018 639.889 613.039 639.818 613.082C639.722 613.124 639.65 613.145 639.602 613.145C639.554 613.187 639.53 613.23 639.53 613.272V616.064C639.53 616.106 639.554 616.148 639.602 616.19C639.65 616.233 639.71 616.254 639.782 616.254ZM788.919 604.834H762.74L766.905 612.955H793.982L788.919 604.834ZM885.231 984.351L865.875 935.563H803.319L817.288 984.351H885.231ZM955.508 984.351L930.586 935.563H867.994L887.529 984.351H955.508ZM1025.79 984.351L995.333 935.563H932.741L957.842 984.351H1025.79ZM1096.06 984.351L1060.04 935.563H997.452L1028.12 984.351H1096.06ZM1166.3 984.351L1124.72 935.563H1062.16L1098.36 984.351H1166.3ZM1236.62 984.351L1189.47 935.563H1126.91L1168.67 984.351H1236.62ZM1306.86 984.351L1254.18 935.563H1191.58L1238.91 984.351H1306.86ZM1377.13 984.351L1318.89 935.563H1256.3L1309.16 984.351H1377.13ZM1447.41 984.351L1383.6 935.563H1321.04L1379.47 984.351H1447.41ZM1517.69 984.351L1448.31 935.563H1385.75L1449.75 984.351H1517.69ZM1587.93 984.351L1513.02 935.563H1450.46L1519.99 984.351H1587.93ZM1658.21 984.351L1577.73 935.563H1515.18L1590.26 984.351H1658.21ZM1728.52 984.351L1642.48 935.563H1579.89L1660.54 984.351H1728.52ZM1798.76 984.351L1707.19 935.563H1644.6L1730.82 984.351H1798.76ZM1801.1 984.351H1869.04L1771.86 935.563H1709.31L1801.1 984.351ZM639.925 586.372C639.997 586.414 640.081 586.436 640.177 586.436C640.272 586.436 640.38 586.436 640.5 586.436C640.596 586.436 640.691 586.436 640.787 586.436C640.883 586.436 640.967 586.414 641.039 586.372C641.134 586.372 641.194 586.351 641.218 586.309C641.266 586.309 641.29 586.288 641.29 586.245V585.167C641.29 585.124 641.266 585.082 641.218 585.04C641.17 585.04 641.11 585.019 641.039 584.976C640.967 584.976 640.883 584.976 640.787 584.976C640.691 584.934 640.596 584.913 640.5 584.913C640.38 584.913 640.272 584.934 640.177 584.976C640.081 584.976 639.997 584.976 639.925 584.976C639.854 585.019 639.806 585.04 639.782 585.04C639.734 585.082 639.71 585.124 639.71 585.167V586.245C639.71 586.288 639.722 586.309 639.746 586.309C639.794 586.351 639.854 586.372 639.925 586.372ZM639.925 595.508C639.997 595.55 640.081 595.571 640.177 595.571C640.272 595.571 640.38 595.571 640.5 595.571C640.62 595.571 640.727 595.571 640.823 595.571C640.919 595.571 641.003 595.55 641.074 595.508C641.146 595.508 641.206 595.487 641.254 595.444C641.302 595.402 641.326 595.381 641.326 595.381V593.034C641.326 592.991 641.302 592.949 641.254 592.907C641.206 592.864 641.146 592.843 641.074 592.843C641.003 592.801 640.919 592.78 640.823 592.78C640.727 592.78 640.62 592.78 640.5 592.78C640.38 592.78 640.272 592.78 640.177 592.78C640.081 592.78 639.997 592.801 639.925 592.843C639.854 592.843 639.794 592.864 639.746 592.907C639.698 592.949 639.674 592.991 639.674 593.034V595.381C639.674 595.381 639.698 595.402 639.746 595.444C639.77 595.487 639.83 595.508 639.925 595.508ZM639.746 655.525C639.842 655.567 639.961 655.589 640.105 655.589C640.225 655.631 640.356 655.652 640.5 655.652C640.644 655.652 640.775 655.631 640.895 655.589C641.015 655.589 641.122 655.567 641.218 655.525C641.314 655.483 641.398 655.441 641.469 655.398C641.517 655.356 641.541 655.314 641.541 655.271V651.528C641.541 651.486 641.505 651.444 641.434 651.401C641.386 651.317 641.314 651.274 641.218 651.274C641.122 651.232 641.015 651.19 640.895 651.148C640.775 651.148 640.644 651.148 640.5 651.148C640.356 651.148 640.225 651.148 640.105 651.148C639.985 651.19 639.877 651.232 639.782 651.274C639.686 651.274 639.602 651.317 639.53 651.401C639.482 651.444 639.458 651.486 639.458 651.528V655.271C639.458 655.314 639.482 655.356 639.53 655.398C639.578 655.441 639.65 655.483 639.746 655.525ZM639.423 689.213C639.47 689.256 639.554 689.298 639.674 689.34C639.77 689.383 639.889 689.425 640.033 689.467C640.177 689.509 640.332 689.531 640.5 689.531C640.668 689.531 640.823 689.509 640.967 689.467C641.086 689.425 641.206 689.383 641.326 689.34C641.422 689.298 641.505 689.256 641.577 689.213C641.625 689.171 641.649 689.108 641.649 689.023V684.392C641.649 684.307 641.613 684.244 641.541 684.201C641.494 684.159 641.41 684.117 641.29 684.075C641.194 684.032 641.074 683.99 640.931 683.948C640.811 683.905 640.668 683.884 640.5 683.884C640.332 683.884 640.177 683.905 640.033 683.948C639.913 683.99 639.794 684.032 639.674 684.075C639.578 684.117 639.494 684.159 639.423 684.201C639.375 684.244 639.351 684.307 639.351 684.392L639.315 689.023C639.315 689.108 639.351 689.171 639.423 689.213ZM639.279 731.974C639.351 732.059 639.447 732.143 639.566 732.228C639.686 732.27 639.83 732.312 639.997 732.355C640.141 732.355 640.308 732.355 640.5 732.355C640.691 732.355 640.859 732.355 641.003 732.355C641.17 732.312 641.314 732.27 641.434 732.228C641.553 732.143 641.649 732.059 641.721 731.974C641.793 731.932 641.829 731.868 641.829 731.784L641.793 725.82C641.793 725.736 641.757 725.651 641.685 725.566C641.613 725.524 641.517 725.461 641.398 725.376C641.278 725.334 641.146 725.291 641.003 725.249C640.835 725.249 640.668 725.249 640.5 725.249C640.308 725.249 640.141 725.249 639.997 725.249C639.83 725.291 639.686 725.334 639.566 725.376C639.447 725.461 639.363 725.524 639.315 725.566C639.243 725.651 639.207 725.736 639.207 725.82L639.171 731.784C639.171 731.868 639.207 731.932 639.279 731.974ZM639.207 757.986C639.279 758.07 639.375 758.134 639.494 758.176C639.614 758.261 639.758 758.324 639.925 758.366C640.117 758.366 640.308 758.366 640.5 758.366C640.691 758.366 640.871 758.366 641.039 758.366C641.206 758.324 641.362 758.261 641.505 758.176C641.625 758.134 641.721 758.07 641.793 757.986C641.864 757.901 641.9 757.795 641.9 757.669V750.88C641.9 750.796 641.864 750.711 641.793 750.626C641.697 750.542 641.589 750.457 641.469 750.373C641.35 750.33 641.206 750.288 641.039 750.246C640.871 750.203 640.691 750.182 640.5 750.182C640.308 750.182 640.129 750.203 639.961 750.246C639.794 750.288 639.65 750.33 639.53 750.373C639.387 750.457 639.279 750.542 639.207 750.626C639.135 750.711 639.099 750.796 639.099 750.88L639.063 757.669C639.063 757.795 639.111 757.901 639.207 757.986ZM639.099 787.931C639.171 788.015 639.279 788.1 639.423 788.185C639.566 788.227 639.722 788.269 639.889 788.312C640.081 788.354 640.284 788.375 640.5 788.375C640.715 788.375 640.907 788.354 641.074 788.312C641.266 788.269 641.434 788.227 641.577 788.185C641.721 788.1 641.829 788.015 641.9 787.931C641.972 787.804 642.008 787.698 642.008 787.614L641.972 779.683C641.972 779.599 641.936 779.493 641.865 779.366C641.793 779.281 641.685 779.218 641.541 779.176C641.422 779.091 641.266 779.028 641.074 778.985C640.907 778.943 640.715 778.922 640.5 778.922C640.284 778.922 640.093 778.943 639.925 778.985C639.734 779.028 639.566 779.091 639.423 779.176C639.303 779.218 639.207 779.281 639.135 779.366C639.04 779.493 638.992 779.599 638.992 779.683L638.956 787.614C638.956 787.698 639.004 787.804 639.099 787.931Z" fill="url(#paint0_linear_512_113)" style="mix-blend-mode:overlay"/>
</g>
</g>
<g opacity="0.2">
<path d="M0 1H1281M0 13.4746H1281M0 25.9493H1281M0 40.7629H1281M0 57.9155H1281M0 77.4071H1281M0 100.017H1281M0 126.526H1281M0 156.933H1281M0 189.679H1281M0 226.323H1281M0 266.865H1281M0 310.527H1281M0 357.307H1281M0 406.425H1281M0 457.104H1281M0 508.561H1281M0 562.358H1281" stroke="url(#paint1_linear_512_113)" stroke-width="2" style="mix-blend-mode:overlay"/>
</g>
</g>
<defs>
<linearGradient id="paint0_linear_512_113" x1="629.929" y1="986.026" x2="629.929" y2="526.184" gradientUnits="userSpaceOnUse">
<stop offset="0.019" stop-color="#F7F4FA" stop-opacity="0"/>
<stop offset="0.672558" stop-color="#A386F4"/>
</linearGradient>
<linearGradient id="paint1_linear_512_113" x1="640" y1="582.032" x2="637.856" y2="0.989534" gradientUnits="userSpaceOnUse">
<stop stop-color="#F7F4FA" stop-opacity="0"/>
<stop offset="0.3125" stop-color="#A386F4"/>
</linearGradient>
</defs>
</svg>
