<svg width="223" height="256" viewBox="0 0 223 256" fill="none" xmlns="http://www.w3.org/2000/svg">
<path d="M30.1397 90.3469C30.1258 90.2618 30.1216 90.2464 30.1151 90.1476C29.8818 86.6011 30.1013 82.7112 30.0993 79.1323C30.097 75.1742 29.7047 67.0353 30.4957 63.5048C30.559 63.2335 30.6309 62.9645 30.7113 62.6976C30.7918 62.4307 30.8806 62.1667 30.9778 61.9055C31.075 61.6442 31.1804 61.3862 31.294 61.1316C31.4076 60.8769 31.5292 60.6261 31.6587 60.3789C31.7882 60.1319 31.9254 59.8892 32.0704 59.6507C32.2153 59.4122 32.3676 59.1786 32.5274 58.9497C32.6872 58.7208 32.854 58.4972 33.028 58.2787C33.202 58.0602 33.3827 57.8473 33.5702 57.6402C37.4787 53.2544 42.8684 52.9026 48.2592 51.9678C50.8032 51.5247 53.3208 50.9646 55.812 50.2876C64.1748 47.967 72.13 44.7186 79.869 40.8235C83.4478 38.9789 86.956 37.0104 90.3938 34.918C95.976 31.5034 104.022 25.338 110.611 25.0138C118.287 24.6359 127.667 32.1163 134.123 36.0341C137.547 38.0683 141.046 39.9688 144.618 41.7355C146.229 42.522 147.856 43.2751 149.498 43.9946C151.141 44.7142 152.798 45.3998 154.469 46.0512C156.14 46.7026 157.824 47.3194 159.521 47.9016C161.218 48.4838 162.926 49.0309 164.646 49.543C167.488 50.391 170.365 51.0948 173.279 51.6543C178.66 52.702 184.404 53.0171 188.662 56.8718C191.858 59.7651 192.791 63.4293 192.982 67.5605C192.603 72.9316 193.081 78.3976 192.857 83.7855C193.078 86.6042 192.899 89.5524 192.9 92.3867L192.902 109.233C192.903 117.35 193.309 126.455 192.462 134.452C191.937 139.408 190.81 144.354 189.444 149.144C184.75 165.613 176.563 179.562 165.405 192.504C164.667 193.344 163.921 194.177 163.167 195.002C162.413 195.828 161.651 196.646 160.881 197.456C160.111 198.267 159.333 199.07 158.548 199.866C157.762 200.661 156.969 201.45 156.168 202.231C155.367 203.01 154.558 203.783 153.742 204.548C152.926 205.313 152.103 206.07 151.272 206.818C150.441 207.569 149.603 208.31 148.757 209.043C147.912 209.776 147.06 210.501 146.2 211.217C145.341 211.933 144.474 212.641 143.601 213.342C142.728 214.041 141.848 214.732 140.961 215.415C140.074 216.098 139.18 216.772 138.28 217.437C137.381 218.104 136.474 218.761 135.561 219.41C134.648 220.058 133.729 220.697 132.804 221.327C131.879 221.958 130.948 222.58 130.01 223.193C129.073 223.805 128.129 224.408 127.18 225.003C126.231 225.597 125.276 226.183 124.316 226.759C121.112 228.702 116.579 231.709 112.822 231.983C103.722 232.642 79.9387 213.612 72.8003 207.374C56.1298 192.806 42.5395 175.128 35.2528 154.146C32.584 146.46 30.8048 138.628 30.2787 130.502C29.9808 125.9 30.1114 121.247 30.1117 116.636L30.1035 93.4273C30.1054 92.4004 30.1174 91.3736 30.1397 90.3469ZM34.7845 98.9066C34.6621 104.288 34.7639 109.689 34.762 115.072C34.7603 120.109 34.6696 125.189 35.0252 130.217C36.051 144.722 40.6584 157.991 47.8946 170.545C48.8969 169.023 49.9547 167.539 51.0678 166.095C52.1495 164.676 53.7061 163.09 54.3712 161.44C55.2579 159.24 55.1431 156.31 55.2761 153.966C55.5095 149.775 55.6973 145.582 55.8395 141.387C56.087 135.032 55.8176 128.269 58.669 122.409C58.843 122.057 59.0245 121.71 59.2136 121.367C59.4025 121.023 59.5988 120.684 59.8025 120.349C60.0061 120.013 60.2169 119.683 60.4348 119.356C60.6527 119.03 60.8775 118.709 61.1093 118.392C61.3412 118.076 61.5797 117.764 61.8249 117.458C62.0701 117.151 62.3218 116.85 62.58 116.554C62.8383 116.258 63.1028 115.968 63.3735 115.684C63.6442 115.399 63.921 115.121 64.2039 114.848C67.3189 111.783 71.0011 109.127 74.4968 106.495C75.9599 105.393 77.6777 104.32 78.9699 103.026C79.2402 102.755 79.341 102.448 79.4545 102.091C79.143 100.449 79.4674 97.0068 79.4737 95.1774C79.6937 90.266 79.559 85.2904 79.5624 80.3711C79.5639 78.1392 79.4089 75.7784 79.7163 73.5693C80.4572 68.2441 83.8968 63.2222 88.1611 60.0144C90.107 58.5505 92.3748 57.4586 94.8104 57.1326C98.0632 56.6971 101.651 56.9751 104.944 56.9795L123.548 56.9912L142.869 56.9864C146.305 56.9827 150.007 56.6893 153.403 57.1703C157.696 57.7784 160.148 60.1583 160.689 64.4775C160.922 66.3356 160.871 68.2232 161.139 70.0797C161.587 73.1921 162.552 76.3047 164.044 79.0821C166.375 83.4232 169.989 85.9544 174.756 87.1187C175.861 87.3885 177.066 87.439 178.14 87.7675C178.716 87.9439 179.261 88.2851 179.608 88.7828C179.993 89.3339 180.11 90.1089 179.939 90.757C179.428 92.6909 174.795 92.9454 173.131 93.4295C172.485 93.6172 171.853 93.8427 171.234 94.1061C170.616 94.3694 170.016 94.6686 169.434 95.0037C165.017 97.537 162.738 101.975 161.953 106.832C161.742 108.142 161.805 109.618 161.445 110.883C161.278 111.471 160.96 111.919 160.406 112.205C159.789 112.525 159.008 112.552 158.362 112.301C156.522 111.583 156.857 108.507 156.517 106.91C156.229 105.556 155.757 104.201 155.197 102.935C152.859 97.6476 148.733 94.3034 143.111 93.0133C141.885 92.7318 140.241 92.74 139.118 92.2595C138.521 92.0043 138.016 91.5846 137.776 90.9711C137.547 90.3852 137.588 89.761 137.862 89.1966C138.208 88.4811 138.753 88.1672 139.472 87.9137L139.632 87.858C141.747 87.5834 143.769 87.2179 145.783 86.5156C146.321 86.2996 146.861 86.081 147.382 85.8286C151.154 84.0039 153.647 81.2403 155.003 77.3122C156.051 74.2746 156.825 66.5352 155.374 63.699C154.974 62.9189 154.237 62.1111 153.363 61.8663C152.502 61.625 151.387 61.8021 150.613 62.2357C146.331 64.6335 145.849 73.6024 146.187 77.9105C146.318 79.5925 147.125 81.9928 146.588 83.5866C146.384 84.1943 145.875 84.5206 145.33 84.7932L145.191 84.8616C144.926 84.9223 144.654 84.9855 144.381 85.0014C143.706 85.0408 143.008 84.8951 142.509 84.4147C141.227 83.182 141.64 79.8326 141.62 78.1881C141.53 72.6534 141.516 66.5989 145.072 61.9857C140.657 62.2392 136.163 62.0758 131.737 62.0739L107.96 62.0614C104.748 62.0601 97.7509 61.743 94.8957 62.2718C93.003 62.6223 91.3412 63.6431 89.8799 64.8477C90.7275 68.3533 90.6583 71.7694 90.7189 75.3502C90.7694 78.7047 90.8489 82.0586 90.9574 85.4117L91.0628 92.4726C91.0863 93.6314 91.2324 94.9237 91.1101 96.0713C91.2121 97.2068 91.2243 98.342 91.2441 99.4812C91.0431 101.811 91.2983 104.291 91.3434 106.631L91.5413 120.1L97.8852 115.064C99.5451 113.746 101.205 112.282 103.104 111.315C104.146 110.785 105.274 110.436 106.447 110.37C108.776 110.24 111.053 111.126 112.764 112.682C114.665 114.412 115.695 116.861 115.8 119.403C115.811 119.657 115.814 119.911 115.808 120.165C115.802 120.42 115.787 120.673 115.764 120.927C115.741 121.18 115.709 121.432 115.669 121.684C115.628 121.935 115.58 122.185 115.522 122.433C115.465 122.68 115.399 122.926 115.325 123.17C115.251 123.413 115.169 123.654 115.078 123.892C114.988 124.13 114.889 124.365 114.782 124.596C114.676 124.828 114.562 125.055 114.44 125.279C112.865 128.154 110.041 130.58 107.777 132.919C105.43 135.341 103.107 137.785 100.807 140.249C105.909 140.359 111.029 140.28 116.133 140.277L143.472 140.252C143.536 129.817 142.904 119.352 142.548 108.924C142.46 106.575 142.356 104.228 142.237 101.88C142.182 100.747 142.025 99.5183 142.087 98.3885C142.121 97.7694 142.329 97.1767 142.744 96.7049C143.216 96.1688 143.939 95.8152 144.66 95.8111C145.208 95.8081 145.726 96.0052 146.108 96.4014C146.601 96.9139 146.761 97.5042 146.835 98.189C147.041 100.103 146.88 102.09 146.901 104.015C146.928 106.645 147.071 109.276 147.14 111.906C147.315 118.595 147.809 125.282 147.835 131.974C147.848 135.248 148.097 143.564 147.317 146.258C146.91 147.663 145.983 149.121 144.941 150.147C143.935 151.137 142.566 151.983 141.192 152.348C139.046 152.918 136.25 152.599 134.03 152.599L124.697 152.628C124.315 154.737 123.874 156.73 122.927 158.669C118.544 167.638 105.525 176.568 98.0712 183.519C96.473 185.009 94.8449 186.556 93.4774 188.262C92.6712 189.269 91.9875 190.366 91.1983 191.384C91.4606 192.293 92.0437 193.159 91.94 194.138C91.8667 194.83 91.2357 195.711 90.8668 196.294C89.1725 198.97 87.188 201.511 85.3581 204.1C84.4485 205.386 83.0864 207.786 82.0194 208.726C82.0945 208.838 82.1576 208.93 82.2545 209.026C83.6416 210.392 85.5447 211.573 87.1164 212.731C92.2211 216.495 106.677 227.016 112.447 227.112C117.536 227.196 137.787 212.019 142.313 208.379C145.887 205.469 149.34 202.423 152.67 199.24C171.711 180.778 185.689 157.884 187.981 131.095C188.459 125.511 188.365 119.896 188.365 114.297C188.366 105.896 188.288 97.4879 188.388 89.0879C188.18 84.0957 188.362 79.0312 188.361 74.0316C188.361 71.3208 188.534 68.4066 187.952 65.7461C187.608 64.1714 186.924 62.6706 185.796 61.4969C184.669 60.3251 183.22 59.4999 181.701 58.9375C179.512 58.1273 177.095 57.8286 174.811 57.3676C171.335 56.666 167.859 55.9124 164.462 54.89C162.623 54.3564 160.797 53.7847 158.982 53.1748C157.167 52.565 155.366 51.9176 153.579 51.2328C151.792 50.5479 150.02 49.8261 148.263 49.0673C146.506 48.3086 144.766 47.5136 143.043 46.6823C139.196 44.8127 135.433 42.6827 131.761 40.4952C126.863 37.5773 117.095 30.3158 111.691 30.2333C106.545 30.1547 93.8832 38.8785 88.881 41.8362C85.7035 43.7109 82.4611 45.4674 79.1538 47.1057C77.6154 47.8685 76.0611 48.5979 74.4909 49.2939C72.9207 49.9898 71.336 50.6517 69.737 51.2796C68.138 51.9073 66.526 52.5005 64.901 53.0591C63.2762 53.6177 61.6399 54.141 59.9922 54.6292C56.4399 55.6733 52.8448 56.5431 49.207 57.2386C46.689 57.7081 43.9842 57.9 41.5562 58.7236C40.1064 59.2151 38.7375 59.9711 37.6329 61.0341C36.2598 62.3556 35.4993 64.0959 35.107 65.9327C34.5325 68.6213 34.7511 71.5479 34.7538 74.2855C34.7584 78.8441 34.8433 83.4163 34.7407 87.9735C34.7884 91.6065 34.6232 95.2816 34.7845 98.9066ZM79.6026 130.214C79.3226 124.811 79.5348 119.3 79.5139 113.885C79.5082 112.384 79.7317 109.937 79.4144 108.584C78.2155 109.639 76.8808 110.563 75.6067 111.526C67.7908 117.431 61.1821 121.626 60.5287 132.213C60.0835 139.428 59.9007 146.67 59.5081 153.891C59.3593 156.631 59.4921 160.274 58.7337 162.835C58.2699 164.401 57.1655 165.668 56.1646 166.926C57.7252 168.637 59.5052 170.208 61.2093 171.777C62.8735 173.341 64.5815 174.855 66.3332 176.322C68.0847 177.788 69.8771 179.202 71.7102 180.565C73.5434 181.93 75.4143 183.241 77.3229 184.5C79.2317 185.757 81.1751 186.959 83.1531 188.107C84.1975 188.708 86.0921 190.03 87.2897 190.128C89.9852 184.261 95.4731 180.168 100.352 176.165C106.124 171.43 115.582 163.718 119.013 157.205C119.786 155.737 120.187 154.242 120.501 152.631C117.305 152.667 114.092 152.773 110.897 152.707C110.112 155.967 106.733 164.121 103.838 165.829C103.221 166.193 102.447 166.343 101.75 166.135C101.215 165.976 100.762 165.629 100.501 165.136C100.249 164.657 100.214 164.104 100.38 163.591C100.475 163.294 100.661 163.019 100.828 162.756C101.14 162.385 101.444 162.007 101.739 161.623C102.034 161.238 102.321 160.847 102.598 160.45C102.876 160.053 103.145 159.65 103.404 159.241C103.664 158.832 103.914 158.417 104.155 157.997C104.397 157.577 104.628 157.152 104.85 156.721C105.072 156.291 105.284 155.856 105.487 155.416C105.689 154.976 105.882 154.532 106.064 154.084C106.247 153.636 106.419 153.184 106.582 152.728C102.868 152.767 99.1552 152.776 95.4418 152.752C94.0274 157.41 89.46 168.162 84.992 170.47C84.4103 170.771 83.7541 170.896 83.1203 170.684C82.523 170.483 81.9911 170.02 81.7154 169.456C81.4994 169.016 81.4096 168.43 81.5749 167.956C81.8068 167.291 83.7053 165.736 84.2732 165.115C85.636 163.624 86.8621 161.903 87.8551 160.151C89.9243 156.501 91.4127 152.454 92.4398 148.397C93.0023 146.176 93.2013 143.733 94.271 141.682C95.8148 138.722 98.65 135.956 100.94 133.532C103.486 130.836 110.345 124.496 111.236 121.209C111.557 120.025 111.556 118.76 111.075 117.617C111.046 117.549 111.016 117.482 110.984 117.416C110.952 117.35 110.919 117.285 110.884 117.22C110.849 117.155 110.812 117.092 110.774 117.029C110.735 116.966 110.696 116.904 110.654 116.843C110.613 116.783 110.57 116.723 110.526 116.664C110.481 116.606 110.436 116.548 110.388 116.491C110.341 116.435 110.293 116.38 110.243 116.326C110.193 116.272 110.141 116.219 110.089 116.167C110.036 116.116 109.982 116.065 109.927 116.017C109.872 115.968 109.816 115.92 109.758 115.874C109.701 115.828 109.642 115.783 109.583 115.74C109.523 115.697 109.462 115.655 109.401 115.615C109.339 115.574 109.276 115.536 109.212 115.498C109.149 115.461 109.084 115.426 109.018 115.392C108.953 115.358 108.887 115.325 108.82 115.294C108.753 115.264 108.685 115.235 108.616 115.207C107.414 114.729 106.182 114.862 105.019 115.385C102.752 116.405 97.9305 120.809 95.8159 122.566L82.2374 133.847C80.5522 135.251 78.4605 137.376 76.5624 138.341C75.9277 138.664 75.1562 138.839 74.4722 138.559C73.9111 138.329 73.5107 137.788 73.3248 137.228C73.1237 136.623 73.2419 135.974 73.5452 135.424C74.4726 133.744 78.0369 131.541 79.6026 130.214ZM159.046 76.8995C157.946 81.6823 155.377 85.9065 151.126 88.5414C150.174 89.1316 149.208 89.6407 148.095 89.8408C153.162 91.9932 156.851 95.6412 158.91 100.736C158.983 100.918 159.055 101.101 159.126 101.284C160.716 96.3635 163.62 92.8545 168.266 90.4972C168.777 90.2375 169.31 90.0134 169.84 89.7914C165.477 88.1004 162.177 84.3664 160.328 80.1505C159.967 79.3275 159.6 77.5104 159.046 76.8995ZM96.5913 149.094L99.6371 149.064C108.905 148.985 118.173 148.857 127.44 148.679C130.74 148.618 136.597 148.835 139.608 148.31C140.449 148.164 141.181 147.778 141.776 147.169C142.565 146.36 142.903 145.401 143.169 144.331C142.057 144.311 140.944 144.314 139.832 144.339L97.9868 144.404C97.4374 145.943 96.9723 147.506 96.5913 149.094ZM50.1204 174.65C51.0075 175.967 51.9161 177.269 52.8463 178.558C53.7766 179.846 54.728 181.118 55.7004 182.375C56.6729 183.631 57.6659 184.871 58.6794 186.095C59.6931 187.32 60.7267 188.528 61.7804 189.719C62.834 190.908 63.9071 192.081 64.9998 193.237C66.0923 194.391 67.2037 195.528 68.3339 196.647C69.4642 197.766 70.6127 198.866 71.7795 199.947C72.9463 201.029 74.1307 202.091 75.3326 203.134C76.1809 203.867 77.9942 205.825 79.058 206.03C79.0912 206.036 79.1251 206.038 79.1586 206.041C79.8305 205.399 80.5546 204.194 80.9545 203.35C81.7886 202.669 86.6171 195.457 86.9383 194.538C85.683 194.551 83.5986 193.109 82.5163 192.517C81.3613 191.885 80.2177 191.234 79.0856 190.563C77.9533 189.891 76.8333 189.201 75.7254 188.492C74.6173 187.782 73.5221 187.054 72.4396 186.306C71.3572 185.558 70.2881 184.792 69.2325 184.008C68.1768 183.224 67.1352 182.422 66.1077 181.602C65.0802 180.781 64.0673 179.943 63.069 179.087C62.0709 178.232 61.088 177.36 60.1203 176.47C59.1528 175.581 58.2011 174.675 57.2652 173.753C55.9845 172.509 54.7269 171.25 53.5584 169.9L50.1204 174.65ZM83.9207 96.7681C83.883 104.399 83.6656 112.027 83.7262 119.659C83.7457 122.115 83.7001 124.585 83.8253 127.036C84.986 126.143 86.1145 125.132 87.3296 124.321C87.0427 121.539 87.1844 118.654 87.128 115.853C87.0492 111.941 86.8163 107.957 86.9184 104.052C86.7384 101.457 86.7995 98.8011 86.7349 96.1975L86.295 77.1608C86.2169 74.4559 86.4021 71.6297 86.0627 68.9546C85.3584 70.3072 84.7676 71.5838 84.4654 73.0931C83.8612 76.11 84.0656 79.3818 84.0373 82.4434L83.9207 96.7681Z" fill="url(#paint0_linear_490_11)"/>
<path d="M79.1546 94.8886C79.3753 90.0287 79.2402 85.1051 79.2436 80.2373C79.2451 78.0288 79.0896 75.6926 79.3979 73.5067C80.1411 68.2372 83.5911 63.2679 87.8682 60.0936C89.8201 58.6451 92.0947 57.5646 94.5376 57.242C97.8002 56.8111 101.398 57.0861 104.702 57.0905L123.362 57.1021L142.741 57.0973C146.187 57.0936 149.901 56.8034 153.307 57.2793C157.613 57.8811 160.072 60.2361 160.615 64.5101C160.849 66.3486 160.798 68.2165 161.066 70.0536C161.516 73.1334 162.484 76.2134 163.98 78.9618C166.318 83.2574 169.943 85.7622 174.724 86.9142C175.833 87.1812 177.041 87.2312 178.118 87.5563C178.697 87.7308 179.243 88.0685 179.591 88.5609C179.977 89.1062 180.095 89.8732 179.923 90.5145C179.41 92.4282 174.763 92.68 173.094 93.159C172.446 93.3447 171.812 93.5679 171.192 93.8285C170.572 94.089 169.97 94.3851 169.386 94.7167C164.956 97.2235 162.67 101.615 161.883 106.421C161.671 107.718 161.734 109.178 161.373 110.43C161.206 111.012 160.886 111.455 160.331 111.738C159.712 112.055 158.929 112.082 158.281 111.833C156.436 111.123 156.771 108.079 156.43 106.499C156.141 105.159 155.668 103.818 155.107 102.565C152.762 97.333 148.622 94.0237 142.984 92.7472C141.754 92.4686 140.105 92.4767 138.979 92.0013C138.38 91.7488 137.874 91.3334 137.633 90.7264C137.403 90.1466 137.445 89.5289 137.719 88.9704C138.066 88.2624 138.613 87.9518 139.334 87.7009L139.495 87.6458C141.616 87.3741 143.644 87.0124 145.664 86.3174C146.203 86.1037 146.745 85.8874 147.268 85.6377C151.051 83.832 153.552 81.0974 154.911 77.2104C155.963 74.2046 156.739 66.5462 155.283 63.7396C154.883 62.9678 154.144 62.1684 153.267 61.9261C152.403 61.6873 151.285 61.8626 150.508 62.2917C146.213 64.6644 145.73 73.5394 146.069 77.8024C146.201 79.4669 147.01 81.842 146.472 83.4191C146.266 84.0205 145.756 84.3433 145.21 84.6131L145.071 84.6808C144.805 84.7409 144.531 84.8033 144.258 84.8191C143.58 84.8581 142.881 84.714 142.38 84.2386C141.094 83.0188 141.508 79.7044 141.488 78.0771C141.398 72.6004 141.385 66.6092 144.95 62.0443C140.522 62.2951 136.015 62.1334 131.576 62.1316L107.727 62.1192C104.505 62.1179 97.487 61.8042 94.6232 62.3274C92.7248 62.6742 91.0579 63.6843 89.5923 64.8763C90.4423 68.3453 90.373 71.7256 90.4338 75.2689C90.4845 78.5883 90.5642 81.9071 90.6729 85.2251L90.7787 92.2121C90.8023 93.3588 90.9488 94.6376 90.8262 95.7731L90.8103 95.9332C90.6006 98.1558 90.8723 100.406 90.7161 102.639C90.6477 101.718 90.9951 98.7495 90.4291 98.2023C90.0946 98.1025 89.5043 98.197 89.1935 98.3699C89.1199 98.4107 89.0638 98.4656 88.9999 98.52C88.4314 98.5453 87.5049 98.0639 87.0757 98.4796C86.2763 99.254 86.971 102.47 86.6218 103.67C86.4413 101.103 86.5026 98.4744 86.4377 95.898L85.9965 77.0606C85.9182 74.384 86.104 71.5873 85.7635 68.9402C85.0571 70.2787 84.4646 71.5419 84.1614 73.0355C83.5554 76.0208 83.7604 79.2583 83.732 82.2879L83.615 96.4626C83.6023 96.4871 83.5889 96.5111 83.5773 96.536C83.2992 97.1314 83.3628 98.0023 83.336 98.6568C82.8812 98.0767 82.0216 98.1384 81.2893 98.0432C80.6414 97.9589 80.1241 97.8963 79.5239 98.2248C78.8583 99.1784 79.8976 100.77 79.1354 101.73C78.8229 100.106 79.1483 96.6988 79.1546 94.8886ZM147.983 89.6078C153.066 91.7378 156.765 95.3476 158.83 100.389C158.904 100.569 158.976 100.75 159.047 100.931C160.642 96.0623 163.555 92.59 168.215 90.2574C168.728 90.0005 169.262 89.7787 169.793 89.5589C165.417 87.8857 162.107 84.1908 160.253 80.019C159.891 79.2046 159.522 77.4065 158.967 76.802C157.864 81.5347 155.287 85.7148 151.023 88.3221C150.068 88.9061 149.1 89.4099 147.983 89.6078Z" fill="url(#paint1_linear_490_11)"/>
<path d="M30.1397 90.3748C30.1258 90.2897 30.1217 90.2743 30.1152 90.1754C29.8818 86.6274 30.1013 82.7359 30.0993 79.1554C30.097 75.1956 29.7046 67.0532 30.4957 63.5213C30.5591 63.2499 30.631 62.9807 30.7114 62.7137C30.7919 62.4467 30.8807 62.1826 30.9779 61.9213C31.0751 61.6599 31.1805 61.4018 31.2941 61.147C31.4078 60.8923 31.5293 60.6413 31.6588 60.3941C31.7884 60.147 31.9256 59.9041 32.0706 59.6655C32.2155 59.4269 32.3679 59.1932 32.5277 58.9642C32.6875 58.7352 32.8544 58.5115 33.0283 58.2929C33.2023 58.0743 33.3831 57.8614 33.5706 57.6541C37.4795 53.2665 42.8698 52.9145 48.2612 51.9794C50.8055 51.536 53.3233 50.9757 55.8148 50.2984C64.1785 47.9768 72.1346 44.727 79.8745 40.8303C83.4536 38.9849 86.9623 37.0156 90.4004 34.9222C95.9832 31.5062 104.03 25.3382 110.62 25.0138C118.296 24.6357 127.678 32.1194 134.134 36.0388C137.559 38.0739 141.058 39.9752 144.63 41.7427C146.242 42.5295 147.869 43.2829 149.511 44.0027C151.154 44.7227 152.811 45.4085 154.482 46.0602C156.154 46.7119 157.838 47.329 159.535 47.9114C161.232 48.4939 162.941 49.0412 164.66 49.5534C167.503 50.4019 170.381 51.106 173.295 51.6657C178.677 52.7138 184.421 53.0291 188.68 56.8854C191.876 59.7799 192.809 63.4458 193 67.5787C192.621 72.9521 193.099 78.4204 192.875 83.8106C192.858 83.848 192.839 83.8849 192.823 83.9226C192.592 84.4597 192.7 85.655 192.687 86.2541C192.619 89.3675 192.629 92.4814 192.552 95.5955C192.527 96.6204 192.649 97.7846 192.444 98.7877C192.369 99.1574 192.282 99.3296 191.972 99.5447C191.952 99.519 191.934 99.4929 191.914 99.4674C191.704 99.1974 191.251 98.7347 190.896 98.6949C190.311 98.629 189.375 99.2515 188.88 99.5242C188.236 98.4952 188.881 91.058 188.405 89.1153C188.197 84.1209 188.38 79.0543 188.379 74.0525C188.378 71.3406 188.551 68.4251 187.97 65.7635C187.626 64.1882 186.941 62.6867 185.813 61.5125C184.686 60.3402 183.237 59.5146 181.717 58.952C179.528 58.1414 177.111 57.8426 174.827 57.3814C171.351 56.6796 167.874 55.9257 164.477 54.9027C162.638 54.3689 160.811 53.797 158.996 53.1869C157.181 52.5767 155.38 51.9291 153.593 51.244C151.805 50.5588 150.033 49.8367 148.276 49.0776C146.519 48.3185 144.779 47.5232 143.056 46.6915C139.208 44.8212 135.445 42.6902 131.772 40.5018C126.873 37.5827 117.105 30.3181 111.7 30.2355C106.553 30.1569 93.8902 38.8844 88.8874 41.8434C85.7097 43.7189 82.4669 45.4761 79.1592 47.1151C77.6206 47.8783 76.0661 48.608 74.4958 49.3042C72.9254 50.0005 71.3406 50.6627 69.7414 51.2908C68.1422 51.9188 66.53 52.5123 64.9049 53.0711C63.2798 53.6299 61.6434 54.1535 59.9955 54.6419C56.4428 55.6865 52.8473 56.5566 49.2091 57.2524C46.6908 57.7221 43.9857 57.9141 41.5575 58.738C40.1075 59.2297 38.7385 59.986 37.6338 61.0495C36.2605 62.3716 35.4999 64.1126 35.1075 65.9502C34.533 68.6399 34.7516 71.5678 34.7544 74.3066C34.7589 78.8672 34.8439 83.4413 34.7412 88.0004C34.7325 88.0383 34.7232 88.0763 34.7151 88.1146C34.4415 89.4084 34.4894 90.8473 34.438 92.1694C34.3153 94.7782 34.2577 97.3884 34.2652 100C34.2901 99.7154 34.3161 99.5123 34.1959 99.2417C33.832 99.0562 33.6336 98.9706 33.2344 99.1004C32.8706 99.2187 32.694 99.3418 32.301 99.2652C31.9119 98.8419 31.4976 98.2969 31.0016 98.0045C30.8165 98.0788 30.7938 98.0945 30.6749 98.2536C29.7592 97.2349 30.7067 92.1398 30.1397 90.3748Z" fill="url(#paint2_linear_490_11)"/>
<defs>
<linearGradient id="paint0_linear_490_11" x1="113.019" y1="231.573" x2="111.153" y2="96.6927" gradientUnits="userSpaceOnUse">
<stop stop-color="#7F31FF"/>
<stop offset="1" stop-color="#2699FF"/>
</linearGradient>
<linearGradient id="paint1_linear_490_11" x1="130.575" y1="113.222" x2="127.306" y2="55.5051" gradientUnits="userSpaceOnUse">
<stop stop-color="#2B93FF"/>
<stop offset="1" stop-color="#00C6FF"/>
</linearGradient>
<linearGradient id="paint2_linear_490_11" x1="111.408" y1="99.9441" x2="111.466" y2="25.1784" gradientUnits="userSpaceOnUse">
<stop stop-color="#11ADFF"/>
<stop offset="1" stop-color="#00C9FF"/>
</linearGradient>
</defs>
</svg>
