<svg width="222" height="256" viewBox="0 0 222 256" fill="none" xmlns="http://www.w3.org/2000/svg">
<path d="M26.7053 88.9492C28.8132 84.4374 30.9835 80.0108 33.6311 75.7845C33.9122 75.3424 34.1971 74.9026 34.4857 74.4653C34.7743 74.028 35.0666 73.5932 35.3626 73.1608C35.6585 72.7285 35.958 72.2987 36.2613 71.8713C36.5645 71.4441 36.8712 71.0194 37.1816 70.5973C37.492 70.1753 37.8059 69.7559 38.1233 69.3391C38.4409 68.9224 38.7618 68.5083 39.0861 68.0971C39.4106 67.6858 39.7385 67.2773 40.0699 66.8715C40.4012 66.4659 40.7359 66.0631 41.0741 65.663C41.4122 65.2629 41.7537 64.8657 42.0985 64.4716C42.4434 64.0773 42.7915 63.6859 43.143 63.2976C43.4944 62.9093 43.8491 62.524 44.2071 62.1416C44.5651 61.7593 44.9263 61.3801 45.2906 61.0039C45.6548 60.6277 46.0223 60.2547 46.393 59.8847C46.7636 59.5148 47.1374 59.148 47.5143 58.7844C47.8911 58.4209 48.271 58.0605 48.654 57.7033C49.0369 57.3462 49.4228 56.9924 49.8117 56.6417C50.2006 56.291 50.5925 55.9438 50.9872 55.5999C51.3819 55.2559 51.7795 54.9153 52.18 54.5781C52.5806 54.2409 52.984 53.9071 53.3902 53.5768C53.7963 53.2465 54.2052 52.9197 54.6168 52.5963C55.0284 52.2729 55.4428 51.9529 55.8599 51.6365C56.277 51.3202 56.6967 51.0073 57.1191 50.698C57.5414 50.3888 57.9663 50.0832 58.3938 49.7812C58.8213 49.4791 59.2514 49.1807 59.684 48.886C60.1164 48.5913 60.5514 48.3003 60.9889 48.0129C61.4264 47.7255 61.8663 47.4418 62.3085 47.1621C62.7508 46.8821 63.1954 46.606 63.6423 46.3336C64.0892 46.0613 64.5383 45.7929 64.9897 45.5282C65.4412 45.2635 65.8949 45.0026 66.3507 44.7456C66.8066 44.4885 67.2645 44.2354 67.7245 43.986C68.1847 43.7368 68.6469 43.4915 69.1112 43.2502C69.5754 43.0088 70.0417 42.7713 70.51 42.5378C71.1757 42.208 71.8453 41.8863 72.5188 41.5728C73.1923 41.2592 73.8695 40.9539 74.5504 40.6569C75.2313 40.3599 75.9157 40.0711 76.6037 39.7906C77.2915 39.5101 77.9827 39.238 78.6771 38.9743C79.3715 38.7107 80.069 38.4556 80.7696 38.2089C81.4702 37.9621 82.1737 37.7239 82.8802 37.4943C83.5865 37.2647 84.2955 37.0436 85.0072 36.8311C85.7188 36.6187 86.433 36.4151 87.1495 36.2201C87.8663 36.025 88.5852 35.8386 89.3062 35.661C90.0275 35.4834 90.7506 35.3146 91.4757 35.1546C92.201 34.9945 92.9281 34.8433 93.6569 34.701C94.3856 34.5586 95.1161 34.4251 95.8483 34.3005C96.5804 34.1759 97.3138 34.0602 98.0486 33.9534C98.7835 33.8466 99.5196 33.7487 100.257 33.6598C100.994 33.5708 101.732 33.4909 102.471 33.42C103.211 33.349 103.951 33.2869 104.691 33.2339C105.432 33.181 106.173 33.137 106.915 33.1019C107.657 33.0669 108.399 33.041 109.141 33.024C109.883 33.0069 110.626 32.999 111.368 33.0001C112.111 33.0011 112.853 33.0112 113.596 33.0303C114.338 33.0495 115.08 33.0776 115.822 33.1147C116.563 33.1518 117.304 33.1979 118.045 33.253C118.785 33.3081 119.525 33.3722 120.264 33.4452C121.003 33.5184 121.741 33.6005 122.478 33.6914C123.215 33.7824 123.951 33.8824 124.685 33.9912C125.42 34.1003 126.153 34.2181 126.885 34.3448C127.616 34.4715 128.347 34.607 129.075 34.7514C129.803 34.896 130.53 35.0493 131.255 35.2113C131.98 35.3734 132.702 35.5443 133.423 35.7239C134.143 35.9035 134.862 36.0919 135.578 36.289C136.294 36.4862 137.007 36.6919 137.718 36.9063C138.43 37.1207 139.138 37.3438 139.844 37.5754C140.388 37.7594 140.931 37.9484 141.471 38.1423C142.012 38.3364 142.551 38.5355 143.088 38.7396C143.625 38.9438 144.16 39.1529 144.693 39.367C145.226 39.5811 145.757 39.8002 146.286 40.0243C146.815 40.2484 147.342 40.4775 147.867 40.7115C148.392 40.9453 148.914 41.1841 149.435 41.428C149.955 41.6716 150.473 41.9202 150.989 42.1736C151.505 42.427 152.018 42.6852 152.529 42.9481C153.04 43.2112 153.548 43.4791 154.054 43.7516C154.56 44.0241 155.063 44.3014 155.564 44.5833C156.065 44.8653 156.563 45.1519 157.058 45.4431C157.554 45.7344 158.046 46.0302 158.536 46.3308C159.026 46.6313 159.513 46.9363 159.998 47.246C160.482 47.5556 160.963 47.8698 161.442 48.1884C161.92 48.507 162.395 48.8301 162.868 49.1576C163.34 49.4851 163.809 49.817 164.276 50.1533C164.742 50.4896 165.205 50.8303 165.665 51.1753C166.125 51.5202 166.581 51.8694 167.035 52.2229C167.488 52.5765 167.938 52.9342 168.385 53.296C168.831 53.658 169.275 54.0241 169.714 54.3944C170.154 54.7646 170.591 55.1389 171.024 55.5173C171.457 55.8958 171.886 56.2782 172.312 56.6645C172.738 57.051 173.16 57.4414 173.578 57.8357C173.997 58.23 174.412 58.6282 174.823 59.0304C175.234 59.4325 175.641 59.8384 176.045 60.2481C176.449 60.6579 176.848 61.0714 177.244 61.4886C177.64 61.9058 178.032 62.3267 178.42 62.7511C178.808 63.1757 179.192 63.6039 179.572 64.0356C179.952 64.4673 180.328 64.9025 180.7 65.3414C181.072 65.78 181.44 66.2222 181.804 66.668C182.168 67.1136 182.527 67.5626 182.883 68.0149C183.238 68.4673 183.589 68.923 183.936 69.382C185.69 71.7753 187.333 74.2426 188.866 76.7837C190.399 79.3248 191.815 81.9295 193.116 84.5979C193.468 85.3343 193.811 86.075 194.145 86.82C194.479 87.5648 194.804 88.3136 195.12 89.0664C195.436 89.8194 195.742 90.576 196.04 91.3364C196.337 92.0967 196.625 92.8606 196.904 93.6281C197.183 94.3955 197.452 95.1662 197.712 95.9402C197.972 96.7142 198.223 97.4913 198.464 98.2715C198.705 99.0517 198.937 99.8347 199.159 100.621C199.381 101.406 199.593 102.195 199.796 102.986C199.999 103.777 200.192 104.57 200.375 105.366C200.559 106.162 200.732 106.96 200.896 107.76C201.06 108.56 201.214 109.362 201.359 110.166C201.503 110.969 201.638 111.775 201.763 112.582C201.888 113.389 202.003 114.198 202.108 115.008C202.213 115.817 202.308 116.629 202.393 117.441C202.479 118.253 202.554 119.066 202.619 119.88C202.685 120.694 202.741 121.509 202.786 122.325C202.832 123.14 202.868 123.956 202.893 124.772C202.919 125.589 202.935 126.406 202.941 127.222C202.947 128.039 202.942 128.856 202.928 129.672C202.914 130.489 202.89 131.305 202.856 132.121C202.822 132.937 202.779 133.753 202.725 134.568C202.671 135.383 202.607 136.197 202.533 137.01C202.46 137.824 202.376 138.636 202.283 139.448C202.189 140.259 202.086 141.069 201.973 141.878C201.859 142.687 201.736 143.494 201.603 144.3C201.471 145.106 201.328 145.91 201.175 146.712C201.023 147.514 200.861 148.315 200.689 149.113C200.517 149.911 200.335 150.708 200.143 151.501C199.952 152.295 199.751 153.087 199.54 153.876C199.33 154.665 199.109 155.451 198.879 156.234C198.649 157.018 198.41 157.799 198.161 158.576C197.912 159.354 197.654 160.129 197.386 160.9C188.813 184.876 172.132 204.373 149.018 215.287C148.343 215.605 147.663 215.914 146.98 216.216C146.297 216.517 145.61 216.81 144.92 217.094C144.23 217.378 143.536 217.654 142.839 217.92C142.142 218.187 141.441 218.446 140.738 218.697C140.034 218.946 139.328 219.187 138.618 219.419C137.909 219.651 137.197 219.875 136.482 220.091C135.767 220.305 135.05 220.511 134.33 220.708C133.61 220.905 132.888 221.093 132.163 221.271C131.438 221.451 130.712 221.621 129.983 221.782C129.254 221.943 128.524 222.095 127.791 222.239C127.059 222.382 126.325 222.517 125.589 222.641C124.853 222.766 124.116 222.882 123.377 222.989C122.638 223.095 121.899 223.192 121.158 223.281C120.417 223.369 119.675 223.449 118.932 223.52C118.189 223.589 117.445 223.65 116.7 223.702C115.956 223.755 115.211 223.797 114.465 223.831C113.72 223.864 112.974 223.888 112.228 223.902C111.482 223.918 110.736 223.924 109.989 223.92C109.243 223.917 108.497 223.905 107.751 223.883C107.005 223.861 106.259 223.83 105.514 223.789C104.769 223.749 104.024 223.699 103.281 223.641C102.536 223.582 101.793 223.514 101.051 223.437C100.309 223.36 99.5675 223.274 98.8273 223.178C98.087 223.083 97.3481 222.978 96.6106 222.865C95.8729 222.751 95.1368 222.627 94.4023 222.496C93.6676 222.365 92.9347 222.224 92.2035 222.074C91.4723 221.924 90.7432 221.766 90.016 221.597C89.2888 221.429 88.5636 221.252 87.8407 221.067C87.1179 220.881 86.3974 220.686 85.6792 220.482C84.9612 220.279 84.2457 220.067 83.5327 219.845C82.8199 219.623 82.1099 219.393 81.4027 219.156C80.6954 218.916 79.9911 218.668 79.29 218.412C55.4263 209.744 38.5255 192.188 27.912 169.402C17.4452 146.932 16.0502 118.135 24.5115 94.7564C24.9631 93.5089 26.5631 90.0458 26.7053 88.9492ZM38.0316 176.399C40.3765 168.463 43.4958 162.865 50.9733 158.785C56.4355 155.804 63.9629 153.15 69.842 150.888C72.124 150.01 77.6953 148.358 79.3583 146.956C81.4582 145.187 82.5608 142.17 83.3255 139.593C83.6316 138.562 83.8902 137.506 84.1252 136.455C80.0434 131.299 77.4193 125.533 75.9034 119.129C72.0429 115.507 68.6917 111.357 68.5085 105.772C68.3925 102.234 69.5244 99.8219 71.845 97.2568C71.2024 86.0039 71.7927 75.2689 79.6319 66.471C79.7961 66.2833 79.9625 66.0976 80.1312 65.9141C80.3 65.7304 80.4711 65.549 80.6443 65.3698C80.8176 65.1905 80.9932 65.0134 81.1709 64.8386C81.3486 64.6636 81.5284 64.491 81.7106 64.3207C81.8925 64.1503 82.0766 63.9823 82.2627 63.8166C82.449 63.6509 82.6374 63.4875 82.8277 63.3265C83.0179 63.1654 83.2101 63.0068 83.4044 62.8507C83.5986 62.6946 83.7948 62.5408 83.993 62.3895C84.1911 62.2383 84.3911 62.0896 84.5929 61.9433C84.7946 61.7972 84.9982 61.6535 85.2036 61.5123C85.4091 61.3713 85.6163 61.2327 85.8251 61.0968C86.034 60.9609 86.2445 60.8276 86.4567 60.6969C86.6688 60.5663 86.8826 60.4383 87.098 60.3131C87.3133 60.1878 87.5302 60.0653 87.7488 59.9454C87.9672 59.8256 88.1871 59.7086 88.4085 59.5942C88.6298 59.48 88.8525 59.3685 89.0767 59.2598C89.3008 59.151 89.5263 59.0452 89.7531 58.9421C89.9798 58.839 90.2079 58.7388 90.4373 58.6416C90.6665 58.5443 90.897 58.4499 91.1286 58.3582C91.3603 58.2668 91.5931 58.1782 91.8269 58.0925C92.0608 58.0067 92.2957 57.9239 92.5315 57.8442C92.7674 57.7645 93.0043 57.6876 93.2422 57.6137C93.4801 57.5399 93.7188 57.4691 93.9583 57.4012C94.1979 57.3333 94.4383 57.2684 94.6796 57.2066C94.9208 57.1449 95.1628 57.0861 95.4056 57.0303C95.6483 56.9745 95.8916 56.9218 96.1356 56.8722C96.3795 56.8226 96.6242 56.7761 96.8694 56.7326C97.1145 56.6891 97.3603 56.6487 97.6065 56.6113C97.8527 56.574 98.0992 56.5398 98.3462 56.5086C98.5932 56.4775 98.8407 56.4494 99.0886 56.4245C99.3363 56.3995 99.5843 56.3777 99.8326 56.359C100.081 56.3403 100.329 56.3247 100.578 56.3123C108.402 55.8869 116.555 58.4389 122.406 63.7516C123.322 64.5847 124.204 65.4528 125.052 66.356C133.25 75.9191 132.932 85.99 132.596 97.9681C134.862 99.8064 136.21 102.087 136.512 105.025C136.909 108.891 135.459 112.95 132.983 115.91C132.126 116.934 130.725 117.786 130.025 118.896C129.098 120.367 128.706 122.883 128.163 124.576C126.694 129.155 124.492 132.939 121.498 136.669C122.319 140.28 123.664 144.814 126.968 146.881C129.199 148.278 132.206 149.067 134.664 150.048L146.573 154.919C158.102 159.522 163.77 162.932 166.802 175.543C168.419 182.264 168.195 189.044 167.92 195.884C169.17 195.438 170.689 193.518 171.605 192.551C172.448 191.671 173.274 190.775 174.082 189.864C174.89 188.952 175.68 188.024 176.452 187.081C177.224 186.138 177.977 185.18 178.711 184.207C179.445 183.234 180.16 182.247 180.855 181.246C181.55 180.245 182.226 179.231 182.881 178.203C183.537 177.175 184.172 176.134 184.786 175.081C185.401 174.029 185.995 172.964 186.567 171.888C187.14 170.811 187.692 169.724 188.222 168.626C190.572 163.687 192.708 158.49 194.156 153.213C198.97 135.671 198.419 114.692 192.309 97.5195C184.307 75.0297 169.02 57.2625 147.387 47.0292C146.729 46.7248 146.066 46.4285 145.4 46.1405C144.734 45.8526 144.064 45.5729 143.391 45.3016C142.718 45.0303 142.042 44.7675 141.362 44.5129C140.682 44.2585 140 44.0125 139.314 43.7751C138.628 43.5376 137.94 43.3087 137.248 43.0884C136.557 42.868 135.863 42.6563 135.166 42.4532C134.47 42.2501 133.771 42.0558 133.069 41.8702C132.368 41.6845 131.664 41.5076 130.959 41.3395C130.253 41.1713 129.545 41.012 128.835 40.8615C128.125 40.7109 127.414 40.5692 126.701 40.4364C125.987 40.3036 125.273 40.1797 124.556 40.0646C123.84 39.9496 123.122 39.8436 122.404 39.7464C121.685 39.6492 120.965 39.561 120.243 39.4818C119.522 39.4025 118.8 39.3322 118.077 39.2709C117.355 39.2097 116.631 39.1574 115.907 39.1141C115.183 39.0709 114.458 39.0367 113.733 39.0115C111.612 38.9238 109.029 38.7286 106.938 39.0684C106.222 39.1071 105.506 39.1547 104.791 39.2111C104.076 39.2675 103.361 39.3327 102.648 39.4068C101.934 39.4807 101.221 39.5635 100.51 39.6551C99.7982 39.7469 99.0878 39.8473 98.3788 39.9565C97.6697 40.0656 96.962 40.1836 96.2557 40.3103C95.5495 40.437 94.845 40.5723 94.1421 40.7163C93.4391 40.8603 92.7381 41.0131 92.039 41.1744C91.3399 41.3359 90.6428 41.5059 89.9477 41.6845C89.2528 41.8631 88.5602 42.0503 87.8697 42.246C87.1793 42.4417 86.4914 42.6459 85.8061 42.8585C85.1207 43.0714 84.4381 43.2925 83.7582 43.522C83.0783 43.7516 82.4013 43.9896 81.7272 44.2359C81.0532 44.4822 80.3822 44.7367 79.7143 44.9995C79.0466 45.2625 78.3821 45.5336 77.7208 45.8128C77.0598 46.0921 76.4021 46.3796 75.748 46.6752C75.0938 46.9706 74.4434 47.2742 73.7968 47.5859C73.1502 47.8974 72.5075 48.2169 71.8686 48.5444C71.2298 48.8719 70.5952 49.2072 69.9647 49.5503C69.3341 49.8934 68.7079 50.2443 68.086 50.603C67.464 50.9616 66.8466 51.3279 66.2336 51.7017C65.6207 52.0756 65.0124 52.457 64.4089 52.8459C63.8053 53.2349 63.2066 53.6311 62.6127 54.0347C62.0188 54.4384 61.43 54.8494 60.8462 55.2676C60.2626 55.6859 59.6841 56.1113 59.1108 56.5439C58.5376 56.9764 57.9697 57.416 57.4072 57.8625C56.8447 58.3089 56.2877 58.7624 55.7363 59.2228C55.1849 59.6831 54.6393 60.1501 54.0995 60.6238C53.5597 61.0977 53.0257 61.5781 52.4976 62.0651C51.9695 62.552 51.4474 63.0455 50.9315 63.5455C50.4155 64.0453 49.9058 64.5514 49.4024 65.0639C48.8988 65.5763 48.4017 66.095 47.9108 66.6197C47.42 67.1445 46.9358 67.6752 46.4581 68.2119C29.8573 86.8096 23.5736 110.782 24.9752 135.338C25.8656 150.942 30.4387 162.99 38.0316 176.399ZM104.072 217.757C104.93 218.275 106.549 218.168 107.534 218.201C115.363 218.451 123.385 217.39 130.974 215.507C132.067 215.235 134.191 214.87 134.995 214.115C136.78 214.524 147.047 209.666 149.063 208.631C151.103 207.581 153.092 206.444 155.031 205.217C156.659 204.191 161.252 201.418 162.105 200.024C163.244 190.302 163.882 176.183 157.421 167.993C157.158 167.658 156.881 167.335 156.591 167.024C156.3 166.713 155.997 166.415 155.682 166.129C155.366 165.843 155.04 165.571 154.702 165.313C154.364 165.055 154.015 164.812 153.657 164.583C151.49 163.192 148.961 162.234 146.585 161.258L134.77 156.456C132.618 155.588 130.291 154.816 128.243 153.727C123.805 165.875 119.552 178.092 115.015 190.202C112.574 196.585 110.082 202.948 107.539 209.292C106.939 210.819 104.837 216.942 104.072 217.757ZM90.5908 134.307C95.3972 137.545 100.663 139.391 106.5 138.222C112.112 137.097 117.189 133.417 120.321 128.659C121.986 126.13 122.94 123.387 123.788 120.499C124.231 118.991 124.61 117.418 125.329 116.013C126.606 113.521 129.214 112.137 130.36 109.398C130.863 108.196 131.125 106.579 130.832 105.294C130.727 104.837 130.545 104.432 130.142 104.168C128.369 103.007 125.547 105.551 124.75 102.236C124.401 100.78 124.504 99.0925 124.396 97.5906C124.138 93.9688 123.148 88.3356 119.893 86.2607C119.02 85.7038 118.058 85.4344 117.021 85.5131C114.755 85.9543 112.943 87.4725 110.919 88.5102C104.401 91.8513 97.0171 91.7924 90.098 89.9678C86.6843 89.0678 84.5014 89.0345 82.3048 92.271C80.7289 94.5929 80.1412 97.3299 79.8821 100.075C79.7932 101.018 79.7819 102.227 79.3418 103.072C79.0697 103.593 78.5915 103.854 78.0304 103.957C77.0154 104.144 75.0857 103.491 74.4151 104.482C73.8831 105.269 74.1214 106.691 74.3425 107.557C75.3684 111.576 78.3231 113.095 80.1284 116.223C80.9934 117.722 81.314 119.581 81.8571 121.221C83.5809 126.427 86.2763 130.895 90.5908 134.307ZM42.1694 182.683C43.2716 184.59 44.6886 186.326 46.0746 188.032C46.4631 188.51 46.8573 188.983 47.2572 189.452C47.6573 189.92 48.0628 190.384 48.4739 190.844C48.885 191.302 49.3017 191.755 49.7237 192.203C50.1457 192.652 50.5732 193.096 51.006 193.534C51.4388 193.973 51.8768 194.406 52.32 194.834C52.7632 195.26 53.2115 195.682 53.6651 196.1C54.1184 196.516 54.5768 196.927 55.04 197.332C55.5033 197.738 55.9716 198.138 56.4446 198.533C56.9175 198.927 57.3952 199.316 57.8776 199.698C58.3599 200.081 58.8468 200.458 59.3382 200.829C59.8297 201.2 60.3256 201.565 60.8259 201.923C61.3261 202.282 61.8306 202.635 62.3393 202.982C62.8482 203.328 63.3611 203.668 63.8779 204.002C64.3949 204.336 64.9159 204.664 65.4408 204.984C65.9657 205.306 66.4944 205.622 67.0269 205.93C67.5593 206.239 68.0955 206.541 68.6353 206.837C70.1093 207.659 71.7804 208.785 73.3934 209.275C73.5354 209.318 73.6507 209.323 73.7966 209.303C74.5552 210.149 76.2943 210.714 77.33 211.153C83.3075 213.689 92.6967 216.905 99.0699 217.246C99.4365 217.266 99.7637 217.207 100.117 217.116C99.2061 215.6 98.6517 213.504 98.0358 211.832C96.8311 208.54 95.608 205.255 94.3663 201.977L77.3438 155.773C77.2096 155.408 77.0962 154.761 76.716 154.618C76.6824 154.605 76.6447 154.611 76.6089 154.607C72.1689 156.522 67.586 158.177 63.0762 159.924C58.7663 161.593 53.8402 163.151 50.1998 166.088C47.4653 168.293 45.4541 171.313 44.1574 174.562C43.0988 177.214 42.7847 179.923 42.1694 182.683ZM88.6446 139.541L87.3848 143.609C89.997 147.441 95.5101 153.102 100.202 153.964C103.513 154.573 106.777 153.51 109.476 151.598C111.24 150.347 112.891 148.875 114.458 147.386C115.649 146.167 116.896 144.973 118.03 143.701C117.605 142.419 117.183 141.155 116.9 139.832C111.052 143.56 104.664 145.043 97.8277 143.514C94.5803 142.787 91.3652 141.481 88.6446 139.541ZM109.069 170.652C110.158 174.843 110.79 179.066 111.687 183.292L111.902 184.107C113.044 181.67 113.95 178.186 114.88 175.56C117.716 167.547 120.343 159.381 123.501 151.492C122.536 150.493 121.532 149.516 120.684 148.414C117.831 151.344 114.937 154.369 111.418 156.503C112.79 158.856 113.168 160.806 112.451 163.484C111.79 165.957 110.525 168.553 109.069 170.652ZM95.5862 170.499C93.8876 167.601 91.6589 163.285 92.5075 159.86C92.7707 158.799 93.3083 157.907 94.0721 157.133C90.5966 154.675 87.5094 152.076 84.8762 148.701C83.9123 149.931 82.9042 151.032 81.734 152.071C84.1012 158.839 86.6167 165.554 89.0385 172.303C89.6392 173.977 92.0192 181.474 92.7984 182.487L92.9033 182.481C92.9727 182.072 93.0566 181.665 93.155 181.262C93.7894 177.64 94.4396 174.001 95.5862 170.499ZM99.6828 166.425C100.573 167.168 101.512 167.685 102.711 167.61C103.864 167.538 104.861 166.836 105.584 165.974C106.678 164.669 107.636 162.417 107.405 160.683C107.341 160.197 107.174 159.784 106.776 159.487C106.65 159.394 106.49 159.408 106.338 159.39C104.426 159.916 102.56 159.917 100.603 159.735C99.9941 159.678 99.2629 159.527 98.6571 159.583C98.2604 159.62 97.8578 159.922 97.6742 160.269C97.1896 161.185 97.6031 162.613 97.9393 163.516C98.3361 164.583 98.895 165.598 99.6828 166.425ZM107.958 193.512C107.388 190.37 107.054 187.178 106.545 184.024C105.906 180.173 105.129 176.351 104.213 172.557C102.92 172.623 101.58 172.678 100.306 172.401C98.5446 178.898 97.6596 185.677 96.583 192.316C98.0018 195.654 99.2327 199.076 100.477 202.482C101.043 204.03 101.547 206.098 102.412 207.485C102.721 206.994 102.837 206.548 102.963 205.993C103.736 204.776 104.201 203.138 104.73 201.788L107.958 193.512ZM99.2542 62.3806C92.6748 63.1782 86.7881 66.3142 82.6818 71.5732C78.1258 77.4078 76.9484 84.3137 76.8864 91.5586C78.3929 88.3797 79.9883 85.4994 83.5119 84.2717C87.3895 82.9205 91.118 84.8797 94.9397 85.3642C98.3939 85.8019 101.769 85.531 105.12 84.6314C106.4 84.1995 107.672 83.7581 108.885 83.1584C113.075 81.0859 116.779 78.3763 121.584 80.8117C124.459 82.2686 126.277 85.038 127.46 87.9522C127.296 80.9496 124.978 74.0514 119.854 69.1295C115.071 64.537 107.836 62.0772 101.27 62.2469C100.596 62.2642 99.9239 62.2934 99.2542 62.3806Z" fill="url(#paint0_linear_490_8)"/>
<path d="M166.941 77.997C167.338 77.975 167.784 77.965 168.176 78.0426C169.189 78.2431 169.875 79.0242 170.354 79.8927C171.006 81.0765 171.314 82.5821 171.709 83.8757C172.682 87.0687 174.001 90.263 176.178 92.8324C180.057 97.4101 189.618 97.6036 191.631 100.951C191.966 101.509 192.216 102.451 192.016 103.098C191.258 105.541 183.327 107.599 180.872 108.847C173.809 112.44 172.628 118.279 170.378 125.11C169.922 126.496 169.494 127.606 168.137 128.297C167.682 128.332 167.239 128.327 166.798 128.194C164.57 127.525 163.038 120.117 162.07 117.783C161.199 115.686 160.126 113.72 158.661 111.978C154.489 107.016 144.846 106.824 143.222 103.555C142.907 102.922 142.841 102.163 143.094 101.498C144.087 98.8902 149.723 98.19 152.111 97.5064C153.293 97.1641 154.438 96.7258 155.546 96.1913C161.52 93.289 162.845 86.4814 164.804 80.8062C165.261 79.483 165.634 78.6384 166.941 77.997ZM153.451 102.532C158.521 104.032 162.468 106.954 165.013 111.639C166.068 113.58 166.691 115.726 167.436 117.796C167.575 117.608 167.652 117.466 167.72 117.242C169.591 111.565 172.474 106.916 177.975 104.157C179.361 103.462 180.849 102.96 182.322 102.486C176.691 100.707 172.564 98.3568 169.699 92.913C168.886 91.3681 168.509 89.4997 167.658 88.0298C166.112 93.1748 163.683 97.843 158.779 100.511C157.938 100.96 157.072 101.354 156.18 101.692C155.288 102.031 154.379 102.31 153.451 102.532Z" fill="url(#paint1_linear_490_8)"/>
<defs>
<linearGradient id="paint0_linear_490_8" x1="113.107" y1="223.49" x2="108.642" y2="33.2576" gradientUnits="userSpaceOnUse">
<stop stop-color="#6359FF"/>
<stop offset="1" stop-color="#00D0FF"/>
</linearGradient>
<linearGradient id="paint1_linear_490_8" x1="168.244" y1="127.87" x2="166.678" y2="78.3053" gradientUnits="userSpaceOnUse">
<stop stop-color="#279CFF"/>
<stop offset="1" stop-color="#00BFFF"/>
</linearGradient>
</defs>
</svg>
