<svg width="106" height="56" viewBox="0 0 106 56" fill="none" xmlns="http://www.w3.org/2000/svg">
<g clip-path="url(#clip0)">
<g clip-path="url(#clip1)">
<path d="M51.1304 26.9112V42.0569H54.6593V26.9112H51.1304ZM44.7783 21.1382H41.1485C40.7452 21.1382 40.8124 21.5117 40.8124 21.5117C40.8796 21.9872 40.9805 22.7682 40.9805 24.3983C40.9805 27.9979 40.5435 33.1596 36.6449 38.0837L36.376 38.4233C36.376 38.4233 34.0234 21.8513 33.9898 21.5457C33.9898 21.5457 33.9898 21.1722 33.6537 21.1722H29.9903C29.6542 21.1722 29.6542 21.5457 29.6542 21.5457C29.5534 23.4474 28.5115 39.4081 16.9836 41.989C19.4371 42.2606 22.3947 41.4796 24.9825 39.8835C28.1754 37.8799 30.3264 34.9255 31.0322 31.5296C31.0322 31.5296 32.4438 40.4269 32.6118 42.4644V42.6002L32.511 42.6681C29.2845 44.4 25.6211 45.3509 21.9577 45.3509C12.8833 45.3509 4.85073 39.9175 1.32178 31.6315C3.40554 41.3777 12.0095 48.4751 22.0586 48.4751C33.7881 48.4751 40.7788 38.5591 41.9887 31.4957C41.9887 31.4957 43.5684 41.7852 43.602 42.1248H48.4081C48.3408 41.6833 45.148 21.9193 45.1144 21.6136C45.1144 21.6136 45.1144 21.2401 44.7783 21.2401V21.1382ZM4.14494 29.7977C4.14494 18.9309 13.2194 10.1016 24.344 10.1016C31.2338 10.1016 37.6532 13.5993 41.3838 19.2705C38.6614 11.5278 31.0658 6.23024 22.5627 6.23024C11.5725 6.23024 2.63253 14.8898 2.63253 25.5189C2.63253 28.4394 3.33832 31.2919 4.64907 33.9067C4.34659 32.5823 4.14494 31.19 4.14494 29.8317V29.7977ZM88.3692 29.0846C87.0921 27.5904 85.3108 26.8093 83.1598 26.8093C80.9752 26.8093 79.1267 27.5225 77.6479 28.9487C76.2027 30.3411 75.4633 32.2088 75.4633 34.518C75.4633 36.7933 76.1691 38.627 77.5807 39.9854C78.9923 41.3437 81.0424 42.0229 83.5967 42.0229C88.5709 42.0229 89.6464 38.5591 90.0497 37.4385L88.7725 37.031C87.6298 39.1364 85.0755 39.2723 83.5631 39.1704C82.4876 39.1025 81.513 38.7289 80.74 38.1856C79.967 37.6083 79.4292 36.7933 79.1939 35.5368L79.1267 35.0613H90.2849C90.2513 32.5823 89.6128 30.5788 88.3692 29.1185V29.0846ZM79.3956 32.9219C79.2276 32.9219 79.2276 32.7521 79.2276 32.6842C79.362 31.8013 79.6981 31.1221 80.303 30.5109C80.9752 29.7977 82.0171 29.3902 83.1262 29.3902C84.1345 29.3902 84.9411 29.6958 85.6469 30.2731C86.2182 30.7825 86.6216 31.4957 86.8568 32.4805C86.8904 32.5823 86.9576 32.888 86.6888 32.888H79.3956V32.9219ZM99.5946 26.7414C95.3599 26.7414 93.8475 29.3563 93.377 30.5788C93.377 30.6127 93.2089 31.0202 93.2089 31.0202L94.6205 31.4957C94.6205 31.4957 95.5279 28.8469 99.1241 29.0167C102.754 29.1525 102.317 32.1748 102.317 32.6503C100.3 32.039 97.4437 32.1069 95.5616 32.9559C93.2089 34.0426 92.8392 36.216 92.94 37.812C93.0409 40.1891 95.1246 41.8531 97.8134 41.989C100.233 42.1248 101.309 41.5815 102.317 40.5966L102.283 41.989H105.476V38.0158V33.1257V32.2767V31.5636C105.543 29.7638 104.3 26.7075 99.5946 26.7075V26.7414ZM102.283 38.4912C102.283 38.7289 102.216 38.8987 102.014 39.0006C101.41 39.3062 100.132 39.7137 98.5528 39.6118C96.9059 39.476 96.2673 38.2874 96.1665 37.7781C96.1329 37.5743 95.7632 35.367 97.8806 34.6878C99.2586 34.2463 101.006 34.518 101.947 34.7897C102.216 34.8576 102.283 35.0274 102.283 35.367V38.5252V38.4912ZM54.4241 21.1382H51.5001C51.0632 21.1382 51.1304 21.5797 51.1304 21.5797C51.1304 22.0551 51.1304 24.2964 51.1304 24.7718H54.7266V21.5457C54.7266 21.5457 54.7602 21.1722 54.3905 21.1722L54.4241 21.1382ZM72.3713 21.1382H69.3801C69.0776 21.1382 69.0776 21.4778 69.0776 21.4778V27.6923L68.6407 27.4546C68.1702 27.2168 67.6997 27.047 67.1955 26.9452C66.6914 26.8433 66.0864 26.8093 65.4142 26.8093C63.0616 26.8093 61.1459 27.4885 59.7343 28.8808C58.3563 30.2392 57.6169 32.2088 57.6169 34.6199C57.6169 36.7593 58.2219 38.5591 59.3982 39.9854C60.5745 41.3777 62.2886 42.0908 64.5404 42.0908C67.7669 42.0908 69.044 40.1212 69.044 40.1212V42.0229H72.6738V38.4572C72.6738 34.4501 72.6738 21.5117 72.6738 21.5117C72.6738 21.5117 72.6738 21.1382 72.3713 21.1382ZM68.876 37.9139C68.5399 38.2195 68.103 38.4572 67.5652 38.661C66.9939 38.8987 66.3217 39.0006 65.5823 39.0006C64.3724 39.0006 63.3977 38.5931 62.6919 37.7781C61.9861 36.963 61.65 35.7745 61.65 34.1784C61.65 32.6163 61.9861 31.4617 62.6247 30.7486C63.2969 30.0015 64.3051 29.6279 65.6495 29.6279C66.3553 29.6279 67.0275 29.7298 67.6324 29.9675C68.1702 30.1713 68.5735 30.375 68.876 30.6467C68.9768 30.7486 69.0776 30.9184 69.0776 31.1561V37.3706C69.0776 37.6083 68.9768 37.7781 68.876 37.8799V37.9139Z" fill="#191C1F"/>
</g>
</g>
<defs>
<clipPath id="clip0">
<rect width="106" height="56" fill="white"/>
</clipPath>
<clipPath id="clip1">
<rect width="105.778" height="43.5556" fill="white" transform="translate(0 6.22226)"/>
</clipPath>
</defs>
</svg>
