<svg width="106" height="56" viewBox="0 0 106 56" fill="none" xmlns="http://www.w3.org/2000/svg">
<g clip-path="url(#clip0)">
<path d="M0.258789 36.6238V21.8784H4.16129L10.7339 30.9363V21.8784H14.6364V36.6238H10.7339L4.16129 27.5002V36.6238H0.258789Z" fill="#191C1F"/>
<path d="M19.2539 36.6238V21.8784H28.8048V25.1435H23.1564V27.6186H28.5994V30.831H23.1564V33.3588H28.8048V36.6238H19.2539Z" fill="#191C1F"/>
<path d="M39.2738 36.6238H35.2687V25.1435H31.4689V21.8784H43.0736V25.1435H39.2738V36.6238Z" fill="#191C1F"/>
<path d="M52.5956 28.4105H60.2978C60.2978 34.0619 57.4003 37.0615 52.6935 37.0615C48.1381 37.0615 44.7188 34.2082 44.7188 29.4219C44.7188 24.4822 47.8209 21.4272 52.6037 21.4272C58.0109 21.4272 59.4886 25.5561 59.4886 25.5561L55.7834 27.0682C55.7834 27.0682 54.9154 24.7408 52.4755 24.7408C50.6892 24.7408 48.7959 26.1236 48.7959 29.3562C48.7959 32.0627 50.4889 33.932 52.6678 33.932C54.6166 33.932 55.5776 32.7902 55.7278 31.3595H52.5956V28.4105Z" fill="#191C1F"/>
<path d="M80.8813 21.8819L75.618 36.6272H79.6489L80.5475 33.8888H85.7594L86.658 36.6272H90.7145L85.4 21.8819H80.8813ZM83.1406 25.6999L84.8608 30.9924H81.4589L83.1406 25.6999Z" fill="#191C1F"/>
<path d="M93.1122 21.8819V36.6272H97.0147V30.9397H97.3228L100.917 36.6272H105.744L101.212 30.5645C102.778 30.3119 104.492 29.0856 104.492 26.4503C104.492 23.8618 102.902 21.8819 99.0301 21.8819H93.1122ZM97.0147 24.8309H98.0417C100.063 24.8309 100.558 25.5871 100.558 26.6741C100.558 27.9827 99.7422 28.5173 98.0417 28.5173H97.0147V24.8309Z" fill="#191C1F"/>
<path d="M63.7396 36.6238V21.8784H73.2905V25.1435H67.6421V27.6186H73.0851V30.831H67.6421V33.3588H73.2905V36.6238H63.7396Z" fill="#191C1F"/>
</g>
<defs>
<clipPath id="clip0">
<rect width="106" height="16.1778" fill="white" transform="translate(0 21.1572)"/>
</clipPath>
</defs>
</svg>
