<svg width="106" height="56" viewBox="0 0 106 56" fill="none" xmlns="http://www.w3.org/2000/svg">
<g clip-path="url(#clip0)">
<path d="M62.2923 31.0225L69.0503 24.3736V24.0714V21.9558H55.0935V24.978H61.925L55.0935 31.6269V32.2314V34.0447H69.0503V31.0225H62.2923Z" fill="#191C1F"/>
<path d="M105.779 21.9558H101.371V34.0447H105.779V21.9558Z" fill="#191C1F"/>
<path d="M100.341 21.9558H94.3908L89.6162 26.2625V21.9558H85.2087V34.0447H89.6162V29.2847L94.2439 34.0447H100.194L93.5828 27.698L100.341 21.9558Z" fill="#191C1F"/>
<path d="M79.3341 21.9558V29.2847C79.3341 30.3425 79.0402 31.6269 76.6896 31.6269C74.339 31.6269 74.1921 30.3425 74.1921 29.2847V21.9558H69.7847V29.6625C69.7847 33.2891 70.7396 34.8003 76.5427 34.8003C82.3458 34.8003 83.7415 33.2891 83.7415 29.6625V21.9558H79.3341Z" fill="#191C1F"/>
<path d="M49.952 21.9558V29.2847C49.952 30.3425 49.6581 31.6269 47.3075 31.6269C44.9569 31.6269 44.81 30.3425 44.81 29.2847V21.9558H40.4026V29.6625C40.4026 33.2891 41.7983 34.8003 47.6014 34.8003C53.4044 34.8003 54.3594 33.2891 54.3594 29.6625V21.9558H49.952Z" fill="#191C1F"/>
<path d="M30.4833 30.2669C30.7037 31.098 31.2179 31.6269 32.687 31.6269C33.7889 31.6269 34.3031 31.4003 34.3031 31.0225C34.3031 30.0403 33.642 30.0403 29.1611 29.4358C24.7537 28.8314 24.9006 25.9603 24.9006 25.5069C24.9006 21.6536 30.1895 21.6536 32.0259 21.6536C35.3315 21.6536 38.9309 22.7114 38.9309 25.658H33.7889C33.642 25.0536 32.9074 24.4491 31.5852 24.4491C30.4833 24.4491 29.8957 24.6758 29.8957 25.1291C29.8957 25.9603 30.263 25.8847 34.5969 26.5647C39.0043 27.2447 39.4451 29.4358 39.4451 30.6447C39.4451 34.6492 34.0092 34.4225 32.1728 34.4225C27.7654 34.4225 24.9741 33.4403 24.8271 30.1914H30.4833V30.2669Z" fill="#191C1F"/>
<path d="M20.2006 24.7511C18.9519 25.8089 15.2056 27.32 12.9284 25.8089L7.63951 22.0311L6.75802 22.56L20.2006 32.1555C16.8216 33.5155 12.9284 36.2355 10.137 38.6533L0.146914 31.3244C1.61605 30.1911 5.06852 28.8311 7.34568 30.3422L12.708 34.1955L13.4426 33.6666L0 23.9955C2.86481 22.9378 8.08025 19.6133 10.0636 17.4222L20.2006 24.7511Z" fill="#191C1F"/>
</g>
<defs>
<clipPath id="clip0">
<rect width="105.778" height="21.1556" fill="white" transform="translate(0 17.4222)"/>
</clipPath>
</defs>
</svg>
