<svg width="187" height="207" viewBox="0 0 187 207" fill="none" xmlns="http://www.w3.org/2000/svg">
<g filter="url(#filter0_f_587_3)">
<path d="M126.773 61.4911L59.5222 122.975L135.61 152.182L126.773 61.4911Z" stroke="url(#paint0_linear_587_3)" stroke-width="22.1481"/>
<path d="M126.773 61.4911L59.5222 122.975L135.61 152.182L126.773 61.4911Z" stroke="url(#paint1_linear_587_3)" stroke-width="22.1481"/>
<path d="M126.773 61.4911L59.5222 122.975L135.61 152.182L126.773 61.4911Z" stroke="url(#paint2_linear_587_3)" stroke-width="22.1481"/>
</g>
<g opacity="0.25" filter="url(#filter1_f_587_3)">
<path d="M134.294 64.3785L67.0427 125.862L143.13 155.07L134.294 64.3785Z" stroke="url(#paint3_linear_587_3)" stroke-width="22.1481"/>
<path d="M134.294 64.3785L67.0427 125.862L143.13 155.07L134.294 64.3785Z" stroke="url(#paint4_linear_587_3)" stroke-width="22.1481"/>
<path d="M134.294 64.3785L67.0427 125.862L143.13 155.07L134.294 64.3785Z" stroke="url(#paint5_linear_587_3)" stroke-width="22.1481"/>
<path d="M134.294 64.3785L67.0427 125.862L143.13 155.07L134.294 64.3785Z" stroke="url(#paint6_linear_587_3)" stroke-width="22.1481"/>
</g>
<g opacity="0.25" filter="url(#filter2_f_587_3)">
<path d="M119.251 58.6039L51.9998 120.088L128.087 149.295L119.251 58.6039Z" stroke="url(#paint7_linear_587_3)" stroke-width="22.1481"/>
<path d="M119.251 58.6039L51.9998 120.088L128.087 149.295L119.251 58.6039Z" stroke="url(#paint8_linear_587_3)" stroke-width="22.1481"/>
<path d="M119.251 58.6039L51.9998 120.088L128.087 149.295L119.251 58.6039Z" stroke="url(#paint9_linear_587_3)" stroke-width="22.1481"/>
<path d="M119.251 58.6039L51.9998 120.088L128.087 149.295L119.251 58.6039Z" stroke="url(#paint10_linear_587_3)" stroke-width="22.1481"/>
</g>
<path d="M126.773 61.4911L59.5222 122.975L135.61 152.182L126.773 61.4911Z" stroke="url(#paint11_linear_587_3)" stroke-width="22.1481"/>
<defs>
<filter id="filter0_f_587_3" x="1.17345" y="0.721786" width="184.847" height="205.872" filterUnits="userSpaceOnUse" color-interpolation-filters="sRGB">
<feFlood flood-opacity="0" result="BackgroundImageFix"/>
<feBlend mode="normal" in="SourceGraphic" in2="BackgroundImageFix" result="shape"/>
<feGaussianBlur stdDeviation="18.8259" result="effect1_foregroundBlur_587_3"/>
</filter>
<filter id="filter1_f_587_3" x="15.3384" y="10.2537" width="171.559" height="192.583" filterUnits="userSpaceOnUse" color-interpolation-filters="sRGB">
<feFlood flood-opacity="0" result="BackgroundImageFix"/>
<feBlend mode="normal" in="SourceGraphic" in2="BackgroundImageFix" result="shape"/>
<feGaussianBlur stdDeviation="15.5037" result="effect1_foregroundBlur_587_3"/>
</filter>
<filter id="filter2_f_587_3" x="0.295412" y="4.47901" width="171.559" height="192.583" filterUnits="userSpaceOnUse" color-interpolation-filters="sRGB">
<feFlood flood-opacity="0" result="BackgroundImageFix"/>
<feBlend mode="normal" in="SourceGraphic" in2="BackgroundImageFix" result="shape"/>
<feGaussianBlur stdDeviation="15.5037" result="effect1_foregroundBlur_587_3"/>
</filter>
<linearGradient id="paint0_linear_587_3" x1="82.658" y1="63.2976" x2="145.472" y2="145.182" gradientUnits="userSpaceOnUse">
<stop stop-color="#BACB86"/>
<stop offset="1" stop-color="#A3E1BE"/>
</linearGradient>
<linearGradient id="paint1_linear_587_3" x1="82.658" y1="63.2976" x2="145.472" y2="145.182" gradientUnits="userSpaceOnUse">
<stop stop-color="#F6EFA9"/>
<stop offset="1" stop-color="#D6B893"/>
</linearGradient>
<linearGradient id="paint2_linear_587_3" x1="82.658" y1="63.2976" x2="127.44" y2="131.627" gradientUnits="userSpaceOnUse">
<stop stop-color="#FFF47D"/>
<stop offset="1" stop-color="#D6B893"/>
</linearGradient>
<linearGradient id="paint3_linear_587_3" x1="90.1785" y1="66.1851" x2="152.993" y2="148.069" gradientUnits="userSpaceOnUse">
<stop stop-color="#BACB86"/>
<stop offset="1" stop-color="#A3E1BE"/>
</linearGradient>
<linearGradient id="paint4_linear_587_3" x1="90.1785" y1="66.1851" x2="152.993" y2="148.069" gradientUnits="userSpaceOnUse">
<stop stop-color="#FFFCD8"/>
<stop offset="1" stop-color="#FFEFDF"/>
</linearGradient>
<linearGradient id="paint5_linear_587_3" x1="90.1785" y1="66.1851" x2="152.993" y2="148.069" gradientUnits="userSpaceOnUse">
<stop stop-color="#F6EFA9"/>
<stop offset="1" stop-color="#D6B893"/>
</linearGradient>
<linearGradient id="paint6_linear_587_3" x1="90.1785" y1="66.1851" x2="134.961" y2="134.514" gradientUnits="userSpaceOnUse">
<stop stop-color="#FFF47D"/>
<stop offset="1" stop-color="#D6B893"/>
</linearGradient>
<linearGradient id="paint7_linear_587_3" x1="75.1355" y1="60.4104" x2="137.95" y2="142.295" gradientUnits="userSpaceOnUse">
<stop stop-color="#BACB86"/>
<stop offset="1" stop-color="#A3E1BE"/>
</linearGradient>
<linearGradient id="paint8_linear_587_3" x1="75.1355" y1="60.4104" x2="137.95" y2="142.295" gradientUnits="userSpaceOnUse">
<stop stop-color="#FFFCD8"/>
<stop offset="1" stop-color="#FFEFDF"/>
</linearGradient>
<linearGradient id="paint9_linear_587_3" x1="75.1355" y1="60.4104" x2="137.95" y2="142.295" gradientUnits="userSpaceOnUse">
<stop stop-color="#F6EFA9"/>
<stop offset="1" stop-color="#D6B893"/>
</linearGradient>
<linearGradient id="paint10_linear_587_3" x1="75.1355" y1="60.4104" x2="119.918" y2="128.74" gradientUnits="userSpaceOnUse">
<stop stop-color="#FFF47D"/>
<stop offset="1" stop-color="#D6B893"/>
</linearGradient>
<linearGradient id="paint11_linear_587_3" x1="82.658" y1="63.2976" x2="127.44" y2="131.627" gradientUnits="userSpaceOnUse">
<stop stop-color="#FFF47D"/>
<stop offset="1" stop-color="#D6B893"/>
</linearGradient>
</defs>
</svg>
