<svg width="3728" height="469" viewBox="0 0 3728 469" fill="none" xmlns="http://www.w3.org/2000/svg">
<path d="M184 469H0V83.6387H184V469Z" fill="#9585C2"/>
<path d="M504 455.712H420V83.6387H504V455.712Z" fill="#9585C2"/>
<path d="M674 455.712H607V83.6387H674V455.712Z" fill="#9585C2"/>
<path d="M1000 455.712H863V0H1000V455.712Z" fill="#9585C2"/>
<path d="M2335 455.712H2254V263.422H2335V455.712Z" fill="#9585C2"/>
<path d="M2484 455.712H2356V340.025H2484V455.712Z" fill="#9585C2"/>
<path d="M2620 455.712H2555V307.977H2620V455.712Z" fill="#9585C2"/>
<path d="M2926 455.712H2819V282.182H2926V455.712Z" fill="#9585C2"/>
<path d="M3728 455.712H3328V327.519H3728V455.712Z" fill="#9585C2"/>
<path d="M2740 443.205H2646V282.182H2740V443.205Z" fill="#9585C2"/>
<path d="M799 441.642H715V0H799V441.642Z" fill="#9585C2"/>
<path d="M3058 428.354H2953V307.977H3058V428.354Z" fill="#9585C2"/>
</svg>
