<svg width="3865" height="612" viewBox="0 0 3865 612" fill="none" xmlns="http://www.w3.org/2000/svg">
<path d="M2343 249H2353V261H2365V274H2374V282H2390V352H2412V612H2253V352H2278V282H2292V274H2303V261H2313V249H2323V241H2343V249Z" fill="#4D3A73"/>
<path d="M86 608H0V318H86V608Z" fill="#4D3A73"/>
<path d="M217 608H101V247H217V608Z" fill="#4D3A73"/>
<path d="M288 390H314V408H333V420H343V608H229V390H261V355H288V390Z" fill="#4D3A73"/>
<path d="M407 241H448V600H361V231H407V241Z" fill="#4D3A73"/>
<path d="M741 241H798V600H681V241H726V198H741V241Z" fill="#4D3A73"/>
<path d="M1325.39 0C1326.69 1.11765 1327.14 2.36853 1327.57 3.9873C1328.74 8.36266 1328.78 14.8353 1326.46 18.8008C1326.87 21.4154 1327.59 24.3427 1327.39 27H1346V48H1364V600H1178V381H1205V241H1223V48H1235V27H1325.97C1324.7 25.324 1323.84 23.1767 1322.31 21.8154C1325.37 15.436 1320.75 5.33624 1325.39 0Z" fill="#4D3A73"/>
<path d="M2689 241H2695V282H2717V482H2793V595H2562V482H2631V282H2647V241H2653V172H2689V241Z" fill="#4D3A73"/>
<path d="M943 588H826V287H943V588Z" fill="#4D3A73"/>
<path d="M1617 140H1691V588H1544V241H1552V226H1567V198H1577V172H1584V140H1609V127H1617V140Z" fill="#4D3A73"/>
<path d="M543 354C569.445 354 591.188 365.84 593.747 381H623V587H466V381H492.253C494.812 365.84 516.555 354 543 354Z" fill="#4D3A73"/>
<path d="M1134 286H1165V587H979V286H1079V247H1134V286Z" fill="#4D3A73"/>
<path d="M2161 165H2172V189H2183V371H2229V584H2024V313H2040V303H2057V189H2120V172H2125V189H2149V165H2160V146H2161V165Z" fill="#4D3A73"/>
<path d="M3858 75H3865V580H3581V75H3616V60H3716V75H3743V45H3858V75Z" fill="#4D3A73"/>
<path d="M1886 578H1760V241H1886V578Z" fill="#4D3A73"/>
<path d="M3440 172H3503V558H3283V172H3299V136H3440V172Z" fill="#4D3A73"/>
<path d="M1513 532H1400V267H1513V532Z" fill="#4D3A73"/>
</svg>
